<svg width="33" height="32" viewBox="0 0 33 32" fill="none" xmlns="http://www.w3.org/2000/svg">
<path fill-rule="evenodd" clip-rule="evenodd" d="M16.3484 32C7.51183 32 0.348389 24.8366 0.348389 16C0.348389 7.16344 7.51183 0 16.3484 0C25.1849 0 32.3484 7.16344 32.3484 16C32.3484 24.8366 25.1849 32 16.3484 32ZM16.3484 30.4C24.3013 30.4 30.7484 23.9529 30.7484 16C30.7484 8.0471 24.3013 1.6 16.3484 1.6C8.39549 1.6 1.94839 8.0471 1.94839 16C1.94839 23.9529 8.39549 30.4 16.3484 30.4ZM11.4621 11.9695H8.53442V13.1989H10.066V19.2625H11.4621V11.9695ZM18.2446 13.824C18.2446 13.2336 18.024 12.7665 17.583 12.4227C17.1419 12.0789 16.5394 11.907 15.7754 11.907C15.0252 11.907 14.4296 12.0754 13.9886 12.4123C13.5475 12.7492 13.327 13.2024 13.327 13.7719C13.327 14.1123 13.4225 14.4213 13.6135 14.6992C13.8045 14.977 14.0702 15.1993 14.4105 15.366C13.959 15.5257 13.6048 15.7705 13.3478 16.1005C13.0908 16.4304 12.9623 16.8107 12.9623 17.2413C12.9623 17.665 13.0769 18.0331 13.3061 18.3457C13.5354 18.6582 13.8635 18.8996 14.2907 19.0698C14.7179 19.2399 15.2162 19.325 15.7858 19.325C16.3553 19.325 16.8537 19.2399 17.2808 19.0698C17.708 18.8996 18.0362 18.6548 18.2654 18.3353C18.4946 18.0158 18.6092 17.6442 18.6092 17.2205C18.6092 16.7968 18.4859 16.4217 18.2394 16.0953C17.9928 15.7688 17.6542 15.5257 17.2235 15.366C17.543 15.2131 17.7931 15.0013 17.9737 14.7304C18.1543 14.4595 18.2446 14.1574 18.2446 13.824ZM14.5043 13.8969C14.5043 13.5844 14.6172 13.3413 14.8429 13.1676C15.0686 12.994 15.3829 12.9072 15.7858 12.9072C16.1886 12.9072 16.5012 12.994 16.7234 13.1676C16.9457 13.3413 17.0568 13.5844 17.0568 13.8969C17.0568 14.2095 16.9457 14.4526 16.7234 14.6262C16.5012 14.7999 16.1886 14.8867 15.7858 14.8867C15.3829 14.8867 15.0686 14.7999 14.8429 14.6262C14.6172 14.4526 14.5043 14.2095 14.5043 13.8969ZM14.2751 17.085C14.2751 16.7308 14.407 16.4564 14.671 16.262C14.9349 16.0675 15.303 15.9702 15.7754 15.9702C16.2546 15.9702 16.6279 16.0692 16.8954 16.2672C17.1628 16.4651 17.2965 16.7412 17.2965 17.0954C17.2965 17.4566 17.1628 17.7362 16.8954 17.9341C16.6279 18.1321 16.2581 18.2311 15.7858 18.2311C15.3065 18.2311 14.9349 18.1304 14.671 17.9289C14.407 17.7275 14.2751 17.4462 14.2751 17.085ZM23.954 16.3453V15.4076H22.1411V13.6052H21.2555V15.4076H19.4531V16.3453H21.2555V18.1373H22.1411V16.3453H23.954Z" fill="white"/>
</svg>
