<svg width="16" height="17" viewBox="0 0 16 17" fill="none" xmlns="http://www.w3.org/2000/svg">
<g clip-path="url(#clip0_4583_53475)">
<path d="M12.67 2.5H8.67V3.17C8.67 3.54 8.37 3.84 8 3.84C7.63 3.84 7.33 3.54 7.33 3.17V2.5H3.33C2.6 2.5 2 3.1 2 3.83V13.16C2 13.53 2.15 13.86 2.39 14.1C2.63 14.34 2.96 14.49 3.33 14.49H7.33V13.82C7.33 13.45 7.63 13.15 8 13.15C8.37 13.15 8.67 13.45 8.67 13.82V14.49H12.67C13.41 14.49 14 13.89 14 13.16V3.83C14 3.09 13.4 2.5 12.67 2.5ZM12.67 13.17H9.89C9.61 12.39 8.87 11.84 8 11.84C7.13 11.84 6.39 12.4 6.11 13.17H3.33V3.83H6.11C6.39 4.61 7.13 5.16 8 5.16C8.87 5.16 9.61 4.6 9.89 3.83H12.67V13.16V13.17Z" fill="white"/>
</g>
<defs>
<clipPath id="clip0_4583_53475">
<rect width="12" height="12" fill="white" transform="translate(2 2.5)"/>
</clipPath>
</defs>
</svg>
