<svg width="40" height="40" viewBox="0 0 40 40" fill="none" xmlns="http://www.w3.org/2000/svg">
<rect width="40" height="40" rx="20" fill="#45494F"/>
<g clip-path="url(#clip0_1985_22748)">
<path d="M23.7913 16.7503L23.8816 16.66C24.0312 16.5104 24.0312 16.268 23.8816 16.1184C23.732 15.9689 23.4895 15.9689 23.34 16.1184L23.2497 16.2087L22.4373 15.3963C22.2877 15.2468 22.0453 15.2468 21.8957 15.3963C21.7461 15.5459 21.7461 15.7884 21.8957 15.938L22.7081 16.7503L21.0833 18.3751L20.2708 17.5627C20.1212 17.4132 19.8788 17.4132 19.7292 17.5627C19.5796 17.7123 19.5796 17.9548 19.7292 18.1043L20.5416 18.9168L18.9168 20.5416L18.1044 19.7291C17.9548 19.5796 17.7123 19.5796 17.5628 19.7291C17.4132 19.8788 17.4132 20.1212 17.5628 20.2708L18.3752 21.0832L16.7504 22.708L15.938 21.8956C15.7884 21.7461 15.546 21.7461 15.3964 21.8956C15.2468 22.0452 15.2468 22.2877 15.3964 22.4373L16.2088 23.2496L16.1185 23.3399C15.9689 23.4895 15.9689 23.732 16.1185 23.8815C16.1933 23.9563 16.2913 23.9937 16.3893 23.9937C16.4873 23.9937 16.5854 23.9563 16.6602 23.8815L16.7504 23.7913L17.5628 24.6036C17.6376 24.6784 17.7357 24.7158 17.8337 24.7158C17.9317 24.7158 18.0297 24.6784 18.1045 24.6036C18.2541 24.454 18.2541 24.2116 18.1045 24.062L17.2921 23.2496L18.9169 21.6248L19.7294 22.4373C19.8042 22.512 19.9022 22.5494 20.0002 22.5494C20.0982 22.5494 20.1962 22.512 20.271 22.4373C20.4206 22.2876 20.4206 22.0452 20.271 21.8956L19.4586 21.0832L21.0834 19.4584L21.8958 20.2708C21.9706 20.3456 22.0687 20.383 22.1667 20.383C22.2647 20.383 22.3627 20.3456 22.4375 20.2708C22.5871 20.1212 22.5871 19.8787 22.4375 19.7292L21.6251 18.9168L23.2499 17.292L24.0623 18.1043C24.1371 18.1791 24.2351 18.2165 24.3331 18.2165C24.4311 18.2165 24.5292 18.1791 24.604 18.1043C24.7535 17.9547 24.7535 17.7123 24.604 17.5627L23.7913 16.7503Z" fill="white"/>
<path d="M12.396 20.3076C12.6076 20.3076 12.779 20.1361 12.779 19.9246C12.779 19.7131 12.6076 19.5416 12.396 19.5416C12.1845 19.5416 12.0131 19.7131 12.0131 19.9246C12.0131 20.1361 12.1845 20.3076 12.396 20.3076Z" fill="white"/>
<path d="M12.396 22.4741C12.6076 22.4741 12.779 22.3026 12.779 22.0911C12.779 21.8796 12.6076 21.7081 12.396 21.7081C12.1845 21.7081 12.0131 21.8796 12.0131 22.0911C12.0131 22.3026 12.1845 22.4741 12.396 22.4741Z" fill="white"/>
<path d="M31.2821 18.0425C31.4479 17.4531 31.5847 16.8563 31.693 16.2544C31.6951 16.2451 31.6966 16.2358 31.698 16.2264C32.139 13.7551 32.0952 11.2014 31.5604 8.74257C31.5597 8.7394 31.5592 8.7367 31.5586 8.73399C31.5582 8.7321 31.5574 8.73037 31.557 8.72853C31.5537 8.71413 31.5494 8.69993 31.5444 8.68594C31.5435 8.68334 31.5427 8.68073 31.5417 8.67818C31.5358 8.66271 31.5288 8.64759 31.5209 8.63283C31.5198 8.63079 31.5185 8.62885 31.5174 8.62686C31.5104 8.6146 31.5026 8.60266 31.4942 8.59106C31.492 8.58795 31.4898 8.58483 31.4874 8.58182C31.4775 8.569 31.4671 8.55649 31.4553 8.54475C31.4435 8.53306 31.4311 8.52254 31.4183 8.51268C31.4152 8.51028 31.412 8.50803 31.4088 8.50574C31.3974 8.49741 31.3857 8.4898 31.3736 8.48291C31.3714 8.48169 31.3693 8.48031 31.3671 8.47908C31.3525 8.47117 31.3375 8.46427 31.3221 8.4584C31.3193 8.45733 31.3164 8.45641 31.3136 8.45539C31.2999 8.45054 31.2861 8.44645 31.2721 8.44313C31.2701 8.44267 31.2681 8.4418 31.266 8.44134C29.9225 8.14849 28.543 8 27.1655 8C24.6764 8 22.25 8.47214 19.9537 9.40329C17.576 10.3675 15.4429 11.7839 13.6134 13.6133C11.3018 15.925 9.61199 18.7994 8.7266 21.9259C8.72368 21.9361 8.72098 21.9465 8.71812 21.9568C8.55211 22.5469 8.41531 23.1438 8.307 23.7455C8.30496 23.7548 8.30338 23.7642 8.30205 23.7735C7.86106 26.2449 7.90477 28.7986 8.43962 31.2574C8.44028 31.2605 8.44084 31.2633 8.4414 31.266C8.44181 31.2678 8.44258 31.2696 8.44304 31.2714C8.44636 31.2858 8.4506 31.3 8.4556 31.314C8.45652 31.3166 8.45734 31.3192 8.45831 31.3218C8.46423 31.3372 8.47117 31.3524 8.47919 31.3671C8.48031 31.3692 8.48159 31.3711 8.48271 31.3731C8.48966 31.3853 8.49742 31.3973 8.50585 31.4089C8.50809 31.412 8.51029 31.4151 8.51264 31.4181C8.52254 31.4309 8.53301 31.4435 8.54481 31.4552C8.55655 31.4669 8.56901 31.4774 8.58178 31.4873C8.58489 31.4897 8.58806 31.4919 8.59122 31.4942C8.60266 31.5025 8.61441 31.5102 8.62656 31.517C8.62876 31.5183 8.6308 31.5196 8.633 31.5208C8.64765 31.5288 8.66266 31.5357 8.67803 31.5415C8.68074 31.5426 8.68355 31.5435 8.68631 31.5445C8.70009 31.5494 8.71403 31.5535 8.72818 31.5568C8.73017 31.5573 8.73201 31.5581 8.734 31.5586C10.0774 31.8515 11.4569 32 12.8345 32C15.3237 32 17.7501 31.5279 20.0463 30.5967C22.424 29.6326 24.5572 28.2161 26.3866 26.3867C28.6982 24.075 30.388 21.2006 31.2734 18.0741C31.2764 18.0638 31.279 18.0534 31.2821 18.0425ZM30.4064 9.05202L30.1824 9.27598C30.0328 9.4256 30.0328 9.66805 30.1824 9.81762C30.2572 9.89237 30.3552 9.92975 30.4532 9.92975C30.5512 9.92975 30.6493 9.89237 30.7241 9.81762L30.9478 9.59386C31.2945 11.5332 31.3279 13.4821 31.0657 15.3768L24.6286 8.93968C25.4625 8.82534 26.3094 8.76596 27.1655 8.76596C28.2513 8.76596 29.3383 8.86201 30.4064 9.05202ZM16.3028 30.9085L9.08787 23.6935C9.14496 23.3952 9.20945 23.0986 9.2812 22.8038L17.1938 30.7164C16.899 30.7877 16.6019 30.8517 16.3028 30.9085ZM12.8345 31.234C11.7487 31.234 10.6617 31.138 9.59366 30.948L9.81762 30.724C9.96719 30.5744 9.96719 30.3319 9.81762 30.1824C9.66801 30.0329 9.42556 30.0329 9.27599 30.1824L9.05223 30.4061C8.70561 28.4668 8.67221 26.5179 8.93437 24.6232L15.3715 31.0603C14.5376 31.1747 13.6907 31.234 12.8345 31.234ZM25.845 25.845C23.6361 28.0539 20.9641 29.6308 18.0484 30.4876L9.51094 21.9501C10.3662 19.0544 11.9388 16.3713 14.155 14.155C16.3639 11.9461 19.0359 10.3692 21.9517 9.51246L27.8902 15.451C27.965 15.5257 28.063 15.5631 28.161 15.5631C28.259 15.5631 28.3571 15.5257 28.4319 15.451C28.5814 15.3014 28.5814 15.0589 28.4319 14.9093L22.8062 9.28364C23.1011 9.21236 23.3982 9.14832 23.6973 9.09159L30.9122 16.3065C30.8552 16.6049 30.7906 16.9015 30.7189 17.1963L29.515 15.9926C29.3655 15.843 29.123 15.843 28.9735 15.9926C28.8239 16.1422 28.8239 16.3846 28.9735 16.5342L30.4892 18.0498C29.6338 20.9456 28.0613 23.6287 25.845 25.845Z" fill="white"/>
<path d="M15.0352 24.4232L14.322 25.1363C14.1724 25.2859 14.1724 25.5284 14.322 25.678C14.3968 25.7527 14.4949 25.7901 14.5929 25.7901C14.6908 25.7901 14.7889 25.7527 14.8637 25.678L15.5769 24.9648C15.7264 24.8152 15.7264 24.5727 15.5769 24.4232C15.4272 24.2737 15.1848 24.2737 15.0352 24.4232Z" fill="white"/>
<path d="M11.0723 28.3861L10.3592 29.0992C10.2096 29.2488 10.2096 29.4912 10.3592 29.6408C10.434 29.7156 10.532 29.7529 10.63 29.7529C10.728 29.7529 10.826 29.7156 10.9008 29.6408L11.614 28.9277C11.7636 28.778 11.7636 28.5356 11.614 28.386C11.4644 28.2366 11.2219 28.2366 11.0723 28.3861Z" fill="white"/>
<path d="M25.1363 14.3221L24.4231 15.0352C24.2736 15.1848 24.2736 15.4273 24.4231 15.5768C24.498 15.6516 24.596 15.689 24.694 15.689C24.792 15.689 24.89 15.6516 24.9648 15.5768L25.6779 14.8637C25.8275 14.7141 25.8275 14.4717 25.6779 14.3221C25.5283 14.1726 25.2859 14.1726 25.1363 14.3221Z" fill="white"/>
<path d="M28.6569 11.7261C28.7549 11.7261 28.8529 11.6888 28.9277 11.614L29.6409 10.9008C29.7904 10.7512 29.7904 10.5088 29.6409 10.3592C29.4912 10.2097 29.2488 10.2097 29.0992 10.3592L28.3861 11.0724C28.2365 11.222 28.2365 11.4644 28.3861 11.614C28.4608 11.6887 28.5589 11.7261 28.6569 11.7261Z" fill="white"/>
</g>
<defs>
<clipPath id="clip0_1985_22748">
<rect width="24" height="24" fill="white" transform="translate(8 8)"/>
</clipPath>
</defs>
</svg>
