<svg width="14" height="11" viewBox="0 0 14 11" fill="none" xmlns="http://www.w3.org/2000/svg">
<path fillRule="evenodd" clipRule="evenodd" d="M7.77705 0.403691C7.50785 0.19877 7.07204 0.19877 6.80353 0.403691C6.53433 0.608618 6.53433 0.940147 6.80353 1.14455L11.2374 4.52455C11.4542 4.68964 11.3007 4.97573 10.9943 4.97573H0.809562C0.429518 4.97573 0.109375 5.20657 0.109375 5.49587V5.49792C0.109375 5.78722 0.429518 6.02395 0.809562 6.02395H10.9943C11.3007 6.02395 11.4542 6.30235 11.2374 6.46744L6.78219 9.85744C6.51299 10.0618 6.51299 10.3923 6.78219 10.5973C7.0507 10.8017 7.48651 10.8012 7.7557 10.5962L13.4873 6.23313C14.0251 5.82381 14.0251 5.15972 13.4873 4.75039C13.3627 4.65606 7.65243 0.308832 7.77705 0.403691Z" fill="white"/>
</svg>
