<svg width="40" height="40" viewBox="0 0 40 40" fill="none" xmlns="http://www.w3.org/2000/svg">
<rect width="40" height="40" rx="20" fill="#45494F"/>
<g clip-path="url(#clip0_1985_22767)">
<path d="M28.6755 11.7095C27.5668 10.5496 26.2622 9.63726 24.798 8.99782C23.2818 8.33571 21.6676 8 20 8C18.3324 8 16.7182 8.33571 15.202 8.99786C13.7378 9.63731 12.4333 10.5496 11.3245 11.7095C9.18069 13.9523 8 16.8965 8 20C8 23.1035 9.18069 26.0477 11.3245 28.2905C12.4332 29.4504 13.7378 30.3627 15.202 31.0022C16.7182 31.6643 18.3324 32 20 32C21.6676 32 23.2818 31.6643 24.798 31.0021C26.2622 30.3627 27.5668 29.4504 28.6755 28.2905C30.8193 26.0477 32 23.1035 32 20C32 16.8965 30.8193 13.9523 28.6755 11.7095ZM19.5219 31.0333C16.8147 30.9196 14.2971 29.8422 12.3452 27.9607C14.2972 26.079 16.8145 25.001 19.5219 24.8873V31.0333ZM19.5219 23.9305C18.0239 23.9887 16.5728 24.3195 15.202 24.9181C13.8935 25.4896 12.7126 26.2789 11.6849 27.2682C10.0263 25.3739 9.07388 22.9946 8.9666 20.4781H19.5219V23.9305ZM19.5219 19.5219H8.9666C9.07388 17.0055 10.0263 14.6261 11.6849 12.7318C12.7126 13.7211 13.8935 14.5104 15.202 15.0819C16.5728 15.6805 18.0239 16.0113 19.5219 16.0695V19.5219ZM19.5219 15.1127C16.8145 14.999 14.2972 13.921 12.3452 12.0393C14.2971 10.1578 16.8147 9.08043 19.5219 8.96674V15.1127ZM20.4781 8.96674C23.1853 9.08043 25.7029 10.1578 27.6548 12.0393C25.7028 13.921 23.1855 14.999 20.4781 15.1127V8.96674ZM20.4781 16.0695C21.9761 16.0113 23.4272 15.6805 24.798 15.0819C26.1065 14.5104 27.2874 13.7211 28.3151 12.7318C29.9737 14.6262 30.9261 17.0055 31.0334 19.5219H20.4781V16.0695ZM20.4781 31.0333V24.8873C23.1855 25.001 25.7028 26.079 27.6548 27.9607C25.7029 29.8422 23.1853 30.9196 20.4781 31.0333ZM28.3151 27.2682C27.2874 26.2789 26.1065 25.4896 24.798 24.9181C23.4272 24.3195 21.9761 23.9887 20.4781 23.9305V20.4781H31.0334C30.9261 22.9946 29.9737 25.3739 28.3151 27.2682Z" fill="white"/>
<path d="M13.922 12.3802C14.0153 12.5106 14.1621 12.5801 14.3112 12.5801C14.4075 12.5801 14.5047 12.5511 14.589 12.4907C15.6836 11.7075 16.9067 11.1838 18.2245 10.9343C18.4839 10.8852 18.6544 10.635 18.6053 10.3756C18.5562 10.1162 18.3059 9.94555 18.0466 9.99479C16.5914 10.2703 15.2409 10.8485 14.0326 11.7131C13.8178 11.8668 13.7683 12.1654 13.922 12.3802Z" fill="white"/>
<path d="M12.296 14.0159C12.0803 13.8635 11.782 13.9149 11.6296 14.1305C10.7541 15.3698 10.1787 16.7541 9.91967 18.2448C9.87449 18.505 10.0487 18.7525 10.3088 18.7977C10.3366 18.8025 10.364 18.8048 10.3913 18.8048C10.6193 18.8048 10.8213 18.641 10.8617 18.4085C11.0963 17.0586 11.6175 15.8049 12.4106 14.6822C12.563 14.4666 12.5116 14.1683 12.296 14.0159Z" fill="white"/>
</g>
<defs>
<clipPath id="clip0_1985_22767">
<rect width="24" height="24" fill="white" transform="translate(8 8)"/>
</clipPath>
</defs>
</svg>
