<svg width="165" height="16" viewBox="0 0 165 16" fill="none" xmlns="http://www.w3.org/2000/svg">
<path fillRule="evenodd" clipRule="evenodd" d="M72.25 1.3929H73.5625C73.5625 5.08785 73.5625 8.65754 73.5 12.2899H72.1875V13.4171H76.1875V12.2899H74.9375V0.265625H74.5625H72.25V1.3929ZM64.1875 11.7262V13.4798H61.5V12.3525H62.8125V1.45552H61.5625V0.328251H64.25V5.77674C64.4167 5.56798 64.5278 5.4149 64.6389 5.26181C64.6944 5.18527 64.75 5.10872 64.8125 5.02522C66.25 3.27169 68.5625 3.27169 70 5.08785C71.5625 7.09189 71.5 10.4111 69.8125 12.3525C68.375 13.9808 66.125 13.9808 64.6875 12.3525C64.6198 12.2508 64.5338 12.1491 64.4394 12.0374C64.3595 11.9428 64.2735 11.8411 64.1875 11.7262ZM29.1875 8.40704H32.0625C32.125 9.34643 31.875 10.0979 31.4375 10.8495C30.625 11.9767 29.625 12.603 28.1875 12.4151C27.1875 12.2899 26.4375 11.7262 25.875 10.9121C25.1875 9.9727 24.875 8.90805 24.8125 7.78078C24.6875 6.403 24.8125 5.08785 25.5 3.89795C26.125 2.77068 27.125 2.01916 28.4375 2.01916C29.9375 1.95653 31.3125 3.08381 31.8125 4.58684C31.8438 4.64946 31.8594 4.69643 31.875 4.7434C31.8906 4.79037 31.9062 4.83734 31.9375 4.89997H33.3125V0.954514H32V2.77068C31.9375 2.64542 31.875 2.52017 31.8125 2.45754C30.875 1.07977 29.5 0.51613 27.8125 0.704009C26.25 0.891888 25.125 1.76866 24.3125 3.02118C23.1875 4.71209 22.9375 6.6535 23.25 8.65754C23.4375 10.1606 24.125 11.5384 25.3125 12.603C27.4375 14.5444 30.625 13.9181 32 11.7889C32 11.7262 32.0625 11.6636 32.125 11.601V13.4171H33.5V7.15451H29.1875V8.40704ZM95.25 10.7242H90.8125C90.6875 11.1626 90.5469 11.6166 90.4062 12.0707C90.2656 12.5247 90.125 12.9788 90 13.4171H87.125V11.3505H88.0625C88.6562 9.59694 89.2344 7.8434 89.8125 6.08986L89.8125 6.08981L89.8125 6.08976L89.8126 6.0897L89.8126 6.08965L89.8126 6.0896L89.8126 6.08954L89.8127 6.08949L89.8127 6.08944L89.8127 6.08938L89.8127 6.08933L89.8128 6.08928L89.8128 6.08923L89.8128 6.08917L89.8128 6.08912L89.8128 6.08907L89.8129 6.08901L89.8129 6.08896L89.8129 6.08891L89.8129 6.08886L89.813 6.0888L89.813 6.08875C90.3909 4.33559 90.9689 2.58242 91.5625 0.829261H94.625C95.1252 2.38848 95.6377 3.93532 96.1516 5.48629C96.7935 7.42384 97.4377 9.36784 98.0625 11.3505H99V13.4171H96.125C95.8125 12.5404 95.5 11.6636 95.25 10.7242ZM0 13.4798V11.4131H0.9375V2.95855H0.0625V0.891888H0.375H6.4375C6.8125 0.891888 7.1875 0.891888 7.5625 0.954514C9.375 1.20502 10.5625 2.77068 10.375 4.64946C10.3125 5.4636 9.9375 6.08987 9.25 6.52825C9.20346 6.55157 9.15693 6.58356 9.10717 6.61777C9.02327 6.67546 8.9302 6.73944 8.8125 6.77876C8.875 6.81007 8.92188 6.84138 8.96875 6.8727L8.96876 6.8727C9.01563 6.90401 9.0625 6.93532 9.125 6.96664C10.3125 7.53027 10.8125 8.46967 10.875 9.72219C10.9375 11.7262 9.625 13.1666 7.625 13.4171C7.0625 13.4798 6.5 13.4798 5.9375 13.4798H0.5H0ZM160.499 15.7036L160.529 15.7109C160.562 15.7188 160.594 15.7266 160.625 15.7343H161.5C161.563 15.7343 161.688 15.7343 161.75 15.6717C161.896 15.6091 162.048 15.5535 162.201 15.4978L162.201 15.4977C162.507 15.3864 162.813 15.2751 163.063 15.108C163.813 14.607 164 13.8555 164 12.9788V7.46765V7.02926H164.938V6.21512H162.938V7.40502C162.875 7.27977 162.813 7.21714 162.75 7.15451C161.625 5.52623 159.25 5.77674 158.375 7.46765C157.688 8.7828 157.75 10.2232 158.5 11.5384C159.375 12.9788 161.625 13.3545 162.813 11.8515L163 11.6636C163 11.8744 163.007 12.0852 163.014 12.2936L163.014 12.2946C163.028 12.705 163.041 13.1061 163 13.4798C162.938 13.9181 162.688 14.2313 162.313 14.4818C161.25 15.108 159.938 14.7949 159.313 13.7303C159.313 13.699 159.297 13.6833 159.281 13.6676C159.266 13.652 159.25 13.6363 159.25 13.605H158.125C158.375 14.607 158.938 15.1707 159.813 15.4838C160.022 15.5887 160.275 15.6497 160.499 15.7036ZM163.25 9.53431H163.125C163.188 10.2232 163.062 10.8495 162.625 11.2878C162.062 11.9141 161.25 12.1646 160.5 11.9141C159.875 11.7262 159.562 11.2252 159.375 10.599C159.187 9.9727 159.187 9.28381 159.312 8.65754C159.5 7.71815 160.062 7.15451 160.812 7.02926C161.688 6.96663 162.562 7.40502 162.938 8.21916C163.051 8.44686 163.096 8.72055 163.141 8.99843C163.171 9.17912 163.201 9.36158 163.25 9.53431ZM4.55314 11.3645L4.55302 11.3645C4.22674 11.3575 3.89814 11.3505 3.5625 11.3505V7.96866H5.125C5.34898 7.99359 5.57296 7.99867 5.793 8.00366H5.79301C6.12556 8.0112 6.4491 8.01853 6.75 8.09391C7.9375 8.28179 8.5 9.40906 8.0625 10.3485C7.75 10.9747 7.1875 11.2878 6.5 11.3505C5.83568 11.3921 5.19894 11.3784 4.55314 11.3645ZM3.5625 5.96461C3.87735 5.96461 4.18515 5.97168 4.49063 5.97869C5.09477 5.99255 5.68985 6.00621 6.3125 5.96461C7.1875 5.90199 7.8125 5.27573 7.8125 4.46158C7.875 3.7727 7.375 3.14643 6.4375 3.02118C5.80338 2.93646 5.16926 2.90904 4.5158 2.88079H4.5158L4.51577 2.88079C4.20314 2.86727 3.88609 2.85357 3.5625 2.8333V5.96461ZM107.906 7.49896C107.641 6.2934 107.375 5.08785 107.125 3.89795C106.25 3.89795 105.438 3.89795 104.687 3.7727C104.125 6.21512 103.625 8.65754 103.125 11.1H103.062C102.687 9.28381 102.25 7.46764 101.812 5.65148H102.75V3.83532H98.9375V5.71411H99.75C100.5 8.28179 101.187 10.8495 101.875 13.4171H104.437C104.806 11.57 105.219 9.76725 105.639 7.93406C105.718 7.59194 105.796 7.24875 105.875 6.90401H105.938C106.188 7.96866 106.453 9.04896 106.719 10.1293L106.719 10.1293L106.719 10.1295L106.719 10.1296L106.719 10.1298L106.719 10.13L106.719 10.1304L106.719 10.1308L106.719 10.1314L106.719 10.1322L106.72 10.1332C106.985 11.2122 107.25 12.2912 107.5 13.3545H110.062L112.125 5.65148H112.938V3.83532H109.125V5.71411H110C109.562 7.53027 109.125 9.34643 108.75 11.1H108.688C108.438 9.91007 108.172 8.70451 107.906 7.49896ZM93 3.33431H93.0625C93.3437 4.24239 93.6094 5.13482 93.875 6.02724C94.1406 6.91966 94.4062 7.81209 94.6875 8.72017H91.375C91.6563 7.81201 91.9219 6.91951 92.1876 6.02701L92.1876 6.0269L92.1876 6.02676L92.1877 6.02657C92.4532 5.13437 92.7188 4.24217 93 3.33431ZM18.8125 10.2858H21.25C21 11.5384 20.3125 12.4777 19.1875 13.0414C16.375 14.5444 12.75 13.2919 12.25 9.47169C12 7.78078 12.375 6.21512 13.5625 4.96259C15.625 2.77068 20 3.02118 21.125 6.90401C21.2584 7.39419 21.3285 7.91607 21.4029 8.46967C21.4331 8.69408 21.4639 8.92371 21.5 9.15855H14.5625C14.5 10.2858 15.1875 11.4131 16.125 11.6636C17.3125 11.9767 18.0625 11.601 18.8125 10.2858ZM16.75 7.46765H14.75C14.875 6.27775 15.875 5.52623 17.0625 5.58886C18 5.71411 18.75 6.52825 18.75 7.46765H16.75ZM140.812 9.15855H134C133.937 10.1606 134.625 11.3505 135.562 11.6636C136.687 12.0394 137.5 11.6636 138.25 10.3485H139.437H140.687C140.562 11.1 140.25 11.7262 139.75 12.2899C138.875 13.2293 137.812 13.6676 136.562 13.7303C133.625 13.8555 131.75 11.6636 131.625 9.0333C131.562 7.71815 131.812 6.52825 132.625 5.4636C133.687 4.08583 135.125 3.45956 136.812 3.64744C138.562 3.83532 139.75 4.89997 140.437 6.52825C140.75 7.34239 140.812 8.21916 140.812 9.15855ZM136.313 5.65148C137.438 5.65148 138.25 6.46563 138.188 7.46765H134.125C134.188 6.46563 135.25 5.58886 136.313 5.65148ZM116.188 6.84119H113.813C113.875 6.46543 113.938 6.08967 114.063 5.77654C114.5 4.71189 115.313 4.08563 116.438 3.7725C117.5 3.522 118.563 3.522 119.625 3.83513C121.063 4.27351 121.813 5.33816 121.813 6.84119V11.0998V11.4755H122.625V13.3543H119.688V12.2897C119.5 12.4776 119.313 12.6028 119.125 12.7281C117.75 13.9806 115.438 13.6674 114.313 12.6028C113.063 11.4755 112.938 8.97048 115 8.03109C115.938 7.5927 116.938 7.40482 118 7.27957C118.5 7.21695 119.063 7.15432 119.688 7.09169C119.625 6.65331 119.563 6.27755 119.438 5.90179C119.313 5.65129 119 5.40078 118.75 5.33816C118.25 5.27553 117.75 5.2129 117.313 5.33816C116.688 5.65129 116.313 6.1523 116.188 6.84119ZM119.066 8.96833C119.238 8.95342 119.417 8.9378 119.625 8.90805C119.688 9.84744 119.688 10.7242 118.938 11.4131C118.312 11.9767 117.625 12.102 116.812 11.8515C116.25 11.6636 116 11.2878 115.938 10.7242C115.938 10.1606 116.188 9.72219 116.688 9.53431C117.25 9.28381 117.875 9.15856 118.5 9.0333C118.697 9.00043 118.876 8.98481 119.066 8.96833ZM53.4375 5.4636C53.8125 5.02522 54.1875 4.58684 54.625 4.27371C55.25 3.71007 56.0625 3.58482 56.9375 3.71007C58 3.83532 58.75 4.71209 58.75 5.96461V11.9141V12.3525H60.0625V13.4798H57.375V13.104V6.77876C57.375 6.52825 57.375 6.21512 57.3125 5.96461C57.125 5.15047 56.5625 4.77472 55.75 4.96259C55.125 5.08785 54.625 5.4636 54.25 5.96461C53.8125 6.59088 53.5 7.21714 53.5625 8.03128V12.0394V12.4151H54.9375V13.5424H52.1875V13.1666V6.84138V6.84135C52.1875 6.52823 52.1875 6.21511 52.0625 5.90199C51.875 5.15047 51.25 4.83734 50.4375 5.02522C49.375 5.27573 48.3125 6.52825 48.25 7.71815V12.2899V12.4777H49.5625V13.605H45.5V12.4777H46.875V5.15047H45.5V4.0232H48.25V5.65148H48.3125C48.375 5.52623 48.4375 5.4636 48.5625 5.33835C49.3125 4.33633 50.1875 3.71007 51.5 3.7727C52.5625 3.83532 53.1875 4.33633 53.4375 5.40098V5.4636ZM64.125 8.59492H64.1875C64.0625 7.65552 64.25 6.77876 64.8125 5.96461C65.5625 5.15047 66.375 4.58684 67.5 4.89997C68.375 5.15047 68.875 5.77674 69.1875 6.52825C69.75 7.90603 69.75 9.22118 69.25 10.599C68.875 11.7262 67.9375 12.3525 66.875 12.3525C65.8125 12.3525 64.75 11.4757 64.375 10.2858C64.2353 9.91245 64.1997 9.4695 64.1647 9.03476C64.1528 8.88615 64.1409 8.7385 64.125 8.59492ZM78.8125 8.90805C78.875 10.0353 79.125 11.1 80 11.8515C81.3125 12.9788 83.0625 12.603 83.8125 11.1C83.8438 11.0687 83.8594 11.0217 83.875 10.9747C83.8906 10.9277 83.9062 10.8808 83.9375 10.8495H85.5C85.25 11.9141 84.625 12.6656 83.6875 13.1666C81.5625 14.4192 78.75 13.4798 77.75 11.1C77 9.34643 77.0625 7.53027 78 5.90199C78.8125 4.39896 80.125 3.64744 81.8125 3.7727C83.625 3.89795 84.75 4.96259 85.3125 6.6535C85.5625 7.40502 85.6875 8.15653 85.625 8.97068C83.375 8.90805 81.125 8.90805 78.8125 8.90805ZM84.0625 7.8434H78.875C78.9375 6.59088 79.6875 5.40098 80.6875 5.02522C81.8125 4.58684 83.0625 5.02522 83.625 6.15249C83.9375 6.6535 84 7.21714 84.0625 7.8434ZM42.875 12.2899H44.1875V13.4171H41.5V11.7889C41.366 11.9231 41.2679 12.0573 41.1769 12.182C41.0981 12.2899 41.0245 12.3906 40.9375 12.4777C39.625 13.9181 37.25 14.0434 36 12.7283C34.6875 11.4131 35.0625 9.34643 36.6875 8.53229C37.5625 8.09391 38.5 7.90603 39.5 7.78078L39.6564 7.76519C40.2384 7.70735 40.8642 7.64516 41.4375 7.53027C41.625 6.08987 41.375 5.27573 40.1875 4.89997C39.5 4.71209 38.8125 4.71209 38.1875 4.96259C37.5 5.2131 37.1875 5.83936 37 6.46562H35.5625C35.75 5.27573 36.375 4.46158 37.5 4.0232C38.5625 3.58482 39.625 3.58482 40.6875 3.96057C42 4.33633 42.75 5.40098 42.8125 6.77876C42.8542 7.90824 42.8402 9.06568 42.8263 10.2137V10.2138V10.2138V10.2138V10.2139V10.2139V10.2139V10.214V10.2143V10.2147V10.215V10.2154V10.2157V10.2161V10.2165C42.8194 10.7862 42.8125 11.3536 42.8125 11.9141C42.875 11.9767 42.875 12.102 42.875 12.2899ZM41.0625 8.581C41.2083 8.56708 41.3542 8.55317 41.5 8.53229C41.75 10.1606 41.3125 11.4131 40.125 12.102C39.1875 12.7283 38.125 12.6656 37.375 12.0394C36.5625 11.4131 36.3125 9.91007 37.6875 9.34643C38.278 9.11888 38.9014 8.99054 39.5099 8.86529C39.7387 8.81818 39.9655 8.77152 40.1875 8.72017C40.4792 8.63667 40.7708 8.60883 41.0625 8.581ZM128.75 13.4171H124.375V11.5384H125.25V5.71411H124.375V3.83532H127.625V5.15047C128.375 3.71007 129.562 3.33431 131.062 3.7727V5.90199C130.875 5.90199 130.688 5.89503 130.5 5.88807C130.125 5.87415 129.75 5.86024 129.375 5.90199C128.25 6.08987 127.625 6.90401 127.625 8.03128V11.1626V11.5384H128.75V13.4171ZM151.375 9.84744C151.312 10.9747 151 12.0394 150.187 12.7909C148.5 14.2939 145.875 13.6676 145.062 11.601C144.625 10.5363 144.625 9.40906 145 8.34441C145.438 6.96664 146.625 6.15249 148.062 6.15249C149.5 6.15249 150.625 6.96664 151.125 8.34441C151.187 8.84542 151.25 9.34643 151.375 9.84744ZM149.625 7.90603C150 8.46966 150.125 9.09593 150.125 9.91007L150.123 9.93307C150.061 10.6782 149.994 11.4834 149.438 12.2272C148.5 13.104 146.938 12.9161 146.375 11.7889C145.688 10.5363 145.688 9.28381 146.312 8.09391C146.938 6.71613 148.75 6.6535 149.625 7.90603ZM152.25 13.4171V12.603H153.25V7.09189H152.25V6.27775H154.312V7.78078C154.938 6.59088 155.812 5.90199 157.25 6.27775V7.27977H156.938C155.562 7.09189 154.438 7.90603 154.375 9.28381C154.333 10.0351 154.347 10.7864 154.361 11.5377V11.5384C154.368 11.9141 154.375 12.2899 154.375 12.6656H155.562V13.5424C154.375 13.4171 153.312 13.4171 152.25 13.4171ZM142 12.2272V13.4171H143.188V12.2272H142Z" fill="white"/>
</svg>
