<svg width="38" height="38" viewBox="0 0 38 38" fill="none" xmlns="http://www.w3.org/2000/svg">
<circle cx="19" cy="19" r="19" fill="#24282C"/>
<path d="M27.4623 14.709C27.4653 14.5261 27.3704 14.3554 27.2134 14.2613C27.0565 14.1673 26.8612 14.1641 26.7013 14.253C26.5413 14.342 26.441 14.5095 26.438 14.6924C26.4279 15.291 26.1813 15.8612 25.7521 16.2786C25.3229 16.6959 24.7459 16.9263 24.1473 16.9195C23.5486 16.9129 22.977 16.6695 22.5572 16.2425C22.1376 15.8157 21.9038 15.24 21.9072 14.6414C21.9106 14.0427 22.1508 13.4698 22.5753 13.0477C22.9999 12.6255 23.5742 12.3885 24.1729 12.3887C24.3558 12.3887 24.5249 12.2909 24.6165 12.1326C24.7079 11.9741 24.7079 11.7788 24.6165 11.6205C24.5249 11.462 24.3558 11.3644 24.1729 11.3644C23.5226 11.3637 22.8869 11.5571 22.347 11.9195C22.2664 11.6542 22.103 11.4217 21.8806 11.2562C21.6581 11.0908 21.3886 11.0009 21.1113 11H14.2965C14.2176 11.0005 14.1398 11.0195 14.0695 11.0553C14.0608 11.0596 14.0525 11.0643 14.0441 11.0691C14.0037 11.0912 13.9666 11.1188 13.9335 11.1508L10.15 14.9343C10.0587 15.0276 10.0069 15.1525 10.0054 15.283L10 15.2815V24.4633C10.0004 24.8077 10.1373 25.1378 10.3807 25.3813C10.6243 25.6247 10.9544 25.7616 11.2987 25.762H13.1087L13.1086 27.0438C13.109 27.3881 13.2459 27.7183 13.4895 27.9618C13.7329 28.2052 14.063 28.3421 14.4073 28.3425H24.22C24.5644 28.3423 24.8945 28.2053 25.1379 27.9618C25.3815 27.7184 25.5184 27.3883 25.5188 27.0438V17.6499C26.0874 17.3933 26.5717 16.981 26.9156 16.4606C27.2596 15.9402 27.4492 15.333 27.4624 14.7093L27.4623 14.709ZM13.7841 12.7485V14.5174V14.5173C13.7839 14.6646 13.6644 14.784 13.5172 14.7842H11.7483L13.7841 12.7485ZM11.2985 24.7376C11.147 24.7373 11.0244 24.6146 11.0241 24.4632V15.8084H13.5172C13.8595 15.808 14.1877 15.6719 14.4298 15.4298C14.6718 15.1877 14.8081 14.8595 14.8084 14.5172V12.0244H21.1112C21.2626 12.0246 21.3853 12.1473 21.3856 12.2987V12.9146C21.2544 13.1238 21.1474 13.3472 21.0665 13.5806H17.4017L17.4026 13.5857C17.2682 13.5844 17.1387 13.6365 17.0425 13.7306L13.2587 17.5148C13.1611 17.6138 13.1083 17.7486 13.1127 17.8876L13.1086 17.8855V24.7375L11.2985 24.7376ZM16.8925 15.3289V17.0978V17.0977C16.8922 17.2448 16.7729 17.3641 16.6258 17.3644H14.857L16.8925 15.3289ZM24.4943 27.0437C24.4941 27.1952 24.3714 27.3179 24.22 27.3181H14.4069C14.2555 27.3179 14.1328 27.1952 14.1326 27.0437V18.3886H16.6257C16.968 18.3883 17.2962 18.2521 17.5381 18.0102C17.7801 17.7682 17.9163 17.44 17.9166 17.0977V14.6047H20.8852C20.8849 14.6213 20.8827 14.6375 20.8827 14.6542V14.6541C20.8837 15.5263 21.2306 16.3625 21.8475 16.9793C22.4641 17.596 23.3003 17.943 24.1726 17.944C24.281 17.944 24.3881 17.9381 24.4941 17.9276L24.4943 27.0437Z" fill="white"/>
<path d="M22.586 19.3558H15.9033C15.7204 19.3558 15.5512 19.4534 15.4597 19.6119C15.3682 19.7704 15.3682 19.9656 15.4597 20.1241C15.5512 20.2825 15.7204 20.3801 15.9033 20.3801H22.586C22.769 20.3801 22.9381 20.2825 23.0296 20.1241C23.121 19.9656 23.121 19.7704 23.0296 19.6119C22.9381 19.4534 22.7691 19.3558 22.586 19.3558Z" fill="white"/>
<path d="M20.4109 21.1683H15.9033C15.7204 21.1683 15.5512 21.2659 15.4597 21.4244C15.3682 21.5828 15.3682 21.7781 15.4597 21.9365C15.5512 22.0949 15.7204 22.1926 15.9033 22.1926H20.4109C20.594 22.1926 20.763 22.0949 20.8545 21.9365C20.946 21.7781 20.946 21.5827 20.8545 21.4244C20.7631 21.2659 20.594 21.1683 20.4109 21.1683Z" fill="white"/>
<path d="M23.7573 13.3214C23.5787 13.1288 23.2779 13.1173 23.0853 13.2959C22.8928 13.4744 22.8814 13.7753 23.0599 13.9679L23.6098 14.5611L23.0599 15.1544C22.8814 15.347 22.8928 15.6478 23.0853 15.8264C23.2779 16.0048 23.5787 15.9935 23.7573 15.8009L24.2582 15.2605L24.7592 15.8009H24.759C24.9375 15.9935 25.2384 16.0048 25.431 15.8264C25.6236 15.6478 25.6349 15.347 25.4563 15.1544L24.9064 14.5611L25.4563 13.9677C25.6349 13.7751 25.6236 13.4742 25.431 13.2958C25.2384 13.1173 24.9375 13.1287 24.759 13.3212L24.2581 13.8616L23.7573 13.3214Z" fill="white"/>
</svg>
