<svg width="38" height="38" viewBox="0 0 38 38" fill="none" xmlns="http://www.w3.org/2000/svg">
<circle cx="19" cy="19" r="19" fill="#24282C"/>
<g clip-path="url(#clip0_2186_27186)">
<path d="M12.4117 10C12.1794 10.0041 12.0011 10.2113 12 10.4091V27.5909C12 27.8051 12.1962 28 12.4117 28H22.706C22.8134 28 22.9199 27.9545 22.9955 27.8786L25.8778 25.015C25.9542 24.94 25.9991 24.8341 26 24.7274V10.4091C26 10.195 25.8038 10.0001 25.5883 10.0001L12.4117 10ZM12.8235 10.8181H25.1765V24.3182H22.706C22.4833 24.3204 22.2933 24.5228 22.2942 24.7272V27.1817H12.8235L12.8235 10.8181ZM23.2721 15.7334C23.192 15.742 23.1146 15.7702 23.0534 15.8229L20.4347 18.0537L18.7684 16.7305C18.6454 16.5067 18.2912 16.4585 18.112 16.641L15.0883 19.2939V17.7662C15.0914 17.55 14.8941 17.3507 14.6765 17.3507C14.459 17.3507 14.2616 17.55 14.2648 17.7662V20.2207C14.2648 20.4349 14.461 20.6298 14.6765 20.6298H17.1471C17.3823 20.6278 17.5824 20.4313 17.5782 20.2014C17.5682 19.9873 17.3628 19.8013 17.1471 19.8115H15.7381L18.3952 17.4784L20.1002 18.8336C20.3194 19.0382 20.5318 19.0252 20.7114 18.8975L23.5937 16.443C23.7572 16.3024 23.7803 16.03 23.6388 15.8677C23.5504 15.7662 23.4058 15.7191 23.2721 15.7334L23.2721 15.7334ZM23.1177 25.1364H24.591L23.1177 26.6001V25.1364Z" fill="white"/>
</g>
<defs>
<clipPath id="clip0_2186_27186">
<rect width="20" height="20" fill="white" transform="translate(9 9)"/>
</clipPath>
</defs>
</svg>
