<svg width="38" height="38" viewBox="0 0 38 38" fill="none" xmlns="http://www.w3.org/2000/svg">
<circle cx="19" cy="19" r="19" fill="#24282C"/>
<g clip-path="url(#clip0_2186_26409)">
<path d="M22.1219 13.7448L19.4552 11.0781C19.4052 11.0281 19.3374 11 19.2667 11H12.3333C11.9799 11.0004 11.6409 11.141 11.3909 11.3909C11.141 11.6409 11.0004 11.9799 11 12.3333V23.5333C11.0004 23.8868 11.141 24.2257 11.3909 24.4757C11.6409 24.7257 11.9799 24.8663 12.3333 24.8667H19.5333V26.7333C19.5333 26.804 19.5614 26.8719 19.6114 26.9219C19.6614 26.9719 19.7293 27 19.8 27H24.0667C24.1374 27 24.2052 26.9719 24.2552 26.9219C24.3052 26.8719 24.3333 26.804 24.3333 26.7333V23.2667H26.2C26.3111 23.2667 26.4106 23.1977 26.4496 23.0938C26.4887 22.9898 26.4592 22.8725 26.3756 22.7993L22.2001 19.1458V13.9335C22.2001 13.8627 22.172 13.7949 22.122 13.7449L22.1219 13.7448ZM19.5333 11.9105L21.2895 13.6667H20.3333C20.1212 13.6664 19.9178 13.582 19.7678 13.4321C19.618 13.2821 19.5335 13.0788 19.5333 12.8666L19.5333 11.9105ZM19.5333 24.3332H12.3333C12.1212 24.3329 11.9178 24.2485 11.7678 24.0986C11.618 23.9486 11.5335 23.7453 11.5333 23.5332V12.3332C11.5335 12.121 11.618 11.9177 11.7678 11.7677C11.9178 11.6178 12.1212 11.5334 12.3333 11.5331H19V12.8665C19.0003 13.2199 19.1409 13.5589 19.3909 13.8089C19.6409 14.0589 19.9799 14.1994 20.3333 14.1998H21.6667V19.1455L17.4911 22.799C17.4075 22.8722 17.378 22.9895 17.4171 23.0935C17.4561 23.1974 17.5556 23.2664 17.6667 23.2664H19.5334L19.5333 24.3332ZM25.4902 22.7332H24.0666C23.9194 22.7332 23.8 22.8526 23.8 22.9998V26.4665H20.0666V22.9998C20.0666 22.9291 20.0385 22.8613 19.9885 22.8113C19.9385 22.7613 19.8707 22.7332 19.8 22.7332H18.3764L21.9333 19.6209L25.4902 22.7332Z" fill="white" stroke="white" stroke-width="0.3"/>
<path d="M15.2666 15.5334C15.2666 15.6041 15.2947 15.672 15.3447 15.722C15.3947 15.772 15.4626 15.8001 15.5333 15.8001H20.3333C20.4805 15.8001 20.5999 15.6807 20.5999 15.5334C20.5999 15.3861 20.4805 15.2667 20.3333 15.2667H15.5333C15.386 15.2667 15.2666 15.3861 15.2666 15.5334Z" fill="white" stroke="white" stroke-width="0.3"/>
<path d="M12.8665 17.4001H17.1332C17.2804 17.4001 17.3999 17.2807 17.3999 17.1334C17.3999 16.9862 17.2804 16.8667 17.1332 16.8667H12.8665C12.7193 16.8667 12.5999 16.9862 12.5999 17.1334C12.5999 17.2807 12.7193 17.4001 12.8665 17.4001Z" fill="white" stroke="white" stroke-width="0.3"/>
<path d="M12.8665 20.6001H18.1999C18.3471 20.6001 18.4665 20.4807 18.4665 20.3334C18.4665 20.1861 18.3471 20.0667 18.1999 20.0667H12.8665C12.7193 20.0667 12.5999 20.1861 12.5999 20.3334C12.5999 20.4807 12.7193 20.6001 12.8665 20.6001Z" fill="white" stroke="white" stroke-width="0.3"/>
<path d="M12.8665 15.8001H14.4665C14.6138 15.8001 14.7332 15.6807 14.7332 15.5334C14.7332 15.3861 14.6138 15.2667 14.4665 15.2667H12.8665C12.7193 15.2667 12.5999 15.3861 12.5999 15.5334C12.5999 15.6807 12.7193 15.8001 12.8665 15.8001Z" fill="white" stroke="white" stroke-width="0.3"/>
<path d="M20.3333 16.8667H18.2C18.0528 16.8667 17.9333 16.9862 17.9333 17.1334C17.9333 17.2807 18.0528 17.4001 18.2 17.4001H20.3333C20.4806 17.4001 20.6 17.2807 20.6 17.1334C20.6 16.9862 20.4806 16.8667 20.3333 16.8667Z" fill="white" stroke="white" stroke-width="0.3"/>
<path d="M12.8665 19.0001H16.0665C16.2138 19.0001 16.3332 18.8807 16.3332 18.7334C16.3332 18.5861 16.2138 18.4667 16.0665 18.4667H12.8665C12.7193 18.4667 12.5999 18.5861 12.5999 18.7334C12.5999 18.8807 12.7193 19.0001 12.8665 19.0001Z" fill="white" stroke="white" stroke-width="0.3"/>
<path d="M12.8665 14.2001H16.0665C16.2138 14.2001 16.3332 14.0807 16.3332 13.9334C16.3332 13.7861 16.2138 13.6667 16.0665 13.6667H12.8665C12.7193 13.6667 12.5999 13.7861 12.5999 13.9334C12.5999 14.0807 12.7193 14.2001 12.8665 14.2001Z" fill="white" stroke="white" stroke-width="0.3"/>
<path d="M20.3334 18.4667H17.1334C16.9861 18.4667 16.8667 18.5861 16.8667 18.7334C16.8667 18.8807 16.9861 19.0001 17.1334 19.0001H20.3334C20.4806 19.0001 20.6 18.8807 20.6 18.7334C20.6 18.5861 20.4806 18.4667 20.3334 18.4667Z" fill="white" stroke="white" stroke-width="0.3"/>
<path d="M14.4665 21.6667H12.8665C12.7193 21.6667 12.5999 21.7861 12.5999 21.9334C12.5999 22.0807 12.7193 22.2001 12.8665 22.2001H14.4665C14.6138 22.2001 14.7332 22.0807 14.7332 21.9334C14.7332 21.7861 14.6138 21.6667 14.4665 21.6667Z" fill="white" stroke="white" stroke-width="0.3"/>
<path d="M16.5999 21.6667H15.5333C15.386 21.6667 15.2666 21.7861 15.2666 21.9334C15.2666 22.0807 15.386 22.2001 15.5333 22.2001H16.5999C16.7472 22.2001 16.8666 22.0807 16.8666 21.9334C16.8666 21.7861 16.7472 21.6667 16.5999 21.6667Z" fill="white" stroke="white" stroke-width="0.3"/>
</g>
<defs>
<clipPath id="clip0_2186_26409">
<rect width="20" height="20" fill="white" transform="translate(9 9)"/>
</clipPath>
</defs>
</svg>
