<svg width="38" height="38" viewBox="0 0 38 38" fill="none" xmlns="http://www.w3.org/2000/svg">
<circle cx="19" cy="19" r="19" fill="#24282C"/>
<mask id="mask0_799_14001" style="mask-type:alpha" maskUnits="userSpaceOnUse" x="11" y="11" width="16" height="16">
<path d="M24.7692 11.5C25.6835 11.5 26.4323 12.2373 26.4957 13.1715L26.5 13.3V24.7C26.5 25.6509 25.791 26.4296 24.8928 26.4955L24.7692 26.5H13.2308C12.3165 26.5 11.5677 25.7627 11.5043 24.8285L11.5 24.7V13.3C11.5 12.3491 12.209 11.5704 13.1072 11.5045L13.2308 11.5H24.7692ZM24.7692 12.7H13.2308C12.9387 12.7 12.6973 12.9257 12.6591 13.2186L12.6538 13.3V24.7C12.6538 25.0038 12.8709 25.2548 13.1525 25.2945L13.2308 25.3H24.7692C25.0613 25.3 25.3027 25.0743 25.3409 24.7814L25.3461 24.7V13.3C25.3461 12.9686 25.0879 12.7 24.7692 12.7Z" fill="white"/>
</mask>
<g mask="url(#mask0_799_14001)">
<path fillRule="evenodd" clipRule="evenodd" d="M10.6667 10.6665H27.3334V27.3332H10.6667V10.6665Z" fill="white"/>
</g>
<mask id="mask1_799_14001" style="mask-type:alpha" maskUnits="userSpaceOnUse" x="14" y="15" width="10" height="4">
<path d="M17.0688 15.3085C17.2606 15.508 17.2904 15.8154 17.1516 16.0484L17.099 16.1231L16.3548 16.9001H22.75C23.0686 16.9001 23.3269 17.1687 23.3269 17.5001C23.3269 17.8038 23.1099 18.0549 22.8283 18.0946L22.75 18.1001H14.9615C14.7283 18.1006 14.5177 17.955 14.4279 17.7311C14.3501 17.5345 14.3788 17.3123 14.4981 17.1451L14.5548 17.0771L16.2856 15.2771C16.5145 15.0732 16.8557 15.0869 17.0688 15.3085Z" fill="white"/>
</mask>
<g mask="url(#mask1_799_14001)">
<path fillRule="evenodd" clipRule="evenodd" d="M13.5057 14.2397H24.1603V18.9338H13.5057V14.2397Z" fill="white"/>
</g>
<mask id="mask2_799_14001" style="mask-type:alpha" maskUnits="userSpaceOnUse" x="14" y="20" width="10" height="4">
<path d="M23.3269 20.2002C23.5602 20.1997 23.7708 20.3453 23.8606 20.5692C23.9384 20.7657 23.9097 20.988 23.7903 21.1552L23.7337 21.2232L22.0029 23.0232C21.8619 23.1944 21.6405 23.269 21.4298 23.2163C21.219 23.1636 21.0545 22.9924 21.0038 22.7732C20.9603 22.5854 21.0068 22.3894 21.1246 22.2449L21.1894 22.1772L21.9337 21.4002H15.5385C15.2198 21.4002 14.9615 21.1316 14.9615 20.8002C14.9615 20.4964 15.1786 20.2454 15.4602 20.2057L15.5385 20.2002H23.3269Z" fill="white"/>
</mask>
<g mask="url(#mask2_799_14001)">
<path fillRule="evenodd" clipRule="evenodd" d="M14.1282 19.3662H24.7828V24.1022H14.1282V19.3662Z" fill="white"/>
</g>
</svg>
