<svg width="40" height="40" viewBox="0 0 40 40" fill="none" xmlns="http://www.w3.org/2000/svg">
<rect width="40" height="40" rx="20" fill="#D6C08F"/>
<path d="M24.6724 10.9552C24.4637 10.736 24.1657 10.5088 23.7863 10.3224C23.4084 10.1392 22.9465 10 22.4314 10H14.6882C13.2038 10 12 11.2664 12 12.8302V27.1689C12 28.7329 13.2039 30 14.6882 30H25.311C26.7968 30 28 28.7329 28 27.1689V15.8526C27.9992 15.3087 27.8629 14.8222 27.6868 14.4231C27.5062 14.024 27.2891 13.7111 27.0818 13.492L24.6724 10.9552ZM23.9128 11.756L26.3222 14.2919C26.4297 14.4031 26.5919 14.6287 26.7138 14.9054C26.8387 15.1839 26.9264 15.5126 26.9256 15.8534V27.169C26.9241 28.1081 26.2047 28.8658 25.3132 28.8673H14.6905C13.7991 28.8658 13.079 28.1081 13.0774 27.169L13.0775 12.8296C13.079 11.892 13.7991 11.1336 14.6907 11.1312H22.4325C22.7602 11.1312 23.0726 11.2216 23.3354 11.3496C23.5959 11.4768 23.8084 11.6457 23.9128 11.756ZM15.9779 22.1141C15.6746 22.1141 15.4292 21.8596 15.4292 21.5436C15.4292 21.2285 15.6738 20.9732 15.9779 20.9732H24.0252C24.3277 20.9732 24.5746 21.2284 24.5746 21.5436C24.5746 21.8596 24.3293 22.1141 24.0252 22.1141H15.9779ZM15.9779 25.9436C15.6746 25.9436 15.4292 25.6891 15.4292 25.374C15.4292 25.058 15.6738 24.8035 15.9779 24.8035H24.0252C24.3277 24.8035 24.5746 25.058 24.5746 25.374C24.5746 25.6891 24.3293 25.9436 24.0252 25.9436H15.9779ZM15.9779 18.2832C15.6746 18.2832 15.4292 18.028 15.4292 17.7136C15.4292 17.3991 15.6738 17.144 15.9779 17.144H24.0252C24.3277 17.144 24.5746 17.3992 24.5746 17.7136C24.5746 18.0287 24.3293 18.2832 24.0252 18.2832H15.9779Z" fill="white" stroke="white" stroke-width="0.3"/>
</svg>
