<svg width="38" height="38" viewBox="0 0 38 38" fill="none" xmlns="http://www.w3.org/2000/svg">
<circle cx="19" cy="19" r="19" fill="#24282C"/>
<g clip-path="url(#clip0_2183_26298)">
<path d="M21.7229 22.0976C22.4842 21.5387 23.1379 20.8581 23.6547 20.0862C24.3136 19.8627 26.8594 18.6993 26.9996 14.066C27.0064 13.8617 26.9252 13.6635 26.7751 13.5176C26.6234 13.3698 26.4159 13.2861 26.1991 13.2856H24.5991V12.1429C24.5988 11.8399 24.4722 11.5493 24.2472 11.335C24.0224 11.1209 23.7173 11.0003 23.3992 11H14.6008C14.2827 11.0003 13.9776 11.1209 13.7526 11.335C13.5278 11.5493 13.4012 11.8399 13.4009 12.1429V13.2857H11.8009C11.584 13.2863 11.3766 13.3699 11.2249 13.5177C11.0747 13.6638 10.9936 13.862 11.0004 14.0663C11.1406 18.6987 13.6863 19.8626 14.3453 20.0865V20.0863C14.8621 20.8583 15.5158 21.5388 16.2771 22.0978C16.618 22.3532 16.9965 22.5592 17.4007 22.7093V23.5714C17.4004 23.7734 17.3161 23.9671 17.1662 24.11C17.0162 24.2528 16.8128 24.333 16.6007 24.3333H15.4008C14.8706 24.3339 14.3623 24.5349 13.9873 24.8919C13.6125 25.249 13.4015 25.7332 13.4009 26.2381C13.4012 26.44 13.4854 26.6338 13.6354 26.7766C13.7854 26.9195 13.9888 26.9997 14.2008 27H23.8003C24.0124 26.9997 24.2158 26.9195 24.3658 26.7766C24.5158 26.6338 24.6 26.4401 24.6003 26.2381C24.5997 25.7331 24.3887 25.249 24.0138 24.8919C23.6389 24.5349 23.1305 24.3339 22.6004 24.3333H21.4005C21.1884 24.333 20.985 24.2528 20.835 24.11C20.685 23.9671 20.6008 23.7734 20.6005 23.5714V22.7093C21.0042 22.5591 21.3824 22.353 21.7231 22.0976L21.7229 22.0976ZM26.2 14.0439C26.1148 16.8862 25.0725 18.2468 24.2632 18.8784C24.486 18.2761 24.6 17.6423 24.6001 17.0037V14.0471L26.2 14.0439ZM11.8008 14.0478H13.4007V17.0036C13.401 17.642 13.5147 18.2759 13.7373 18.8783C12.9275 18.2462 11.8873 16.8872 11.8017 14.0478L11.8008 14.0478ZM14.2007 17.0036V12.143C14.201 11.9327 14.3798 11.7623 14.6007 11.762H23.4002C23.621 11.7623 23.7998 11.9327 23.8002 12.143V17.0036C23.8002 18.7022 22.9343 20.2152 21.2268 21.4999C20.5938 21.9789 19.809 22.2395 19.0004 22.2395C18.1918 22.2395 17.4071 21.9789 16.7741 21.4999C15.0666 20.215 14.2007 18.7021 14.2007 17.0036ZM21.4003 25.0953H22.6002C22.9184 25.0956 23.2234 25.2162 23.4484 25.4304C23.6732 25.6447 23.7999 25.9352 23.8002 26.2382H14.2007C14.201 25.9352 14.3276 25.6447 14.5525 25.4304C14.7774 25.2162 15.0825 25.0956 15.4006 25.0953H16.6006C17.0248 25.0949 17.4313 24.9342 17.7313 24.6485C18.0313 24.3628 18.2001 23.9756 18.2005 23.5715V22.9295C18.7289 23.0265 19.272 23.0265 19.8004 22.9295V23.5715C19.8008 23.9756 19.9696 24.3628 20.2696 24.6485C20.5695 24.9342 20.9761 25.0949 21.4003 25.0953H21.4003Z" fill="white" stroke="white" stroke-width="0.2"/>
<path d="M19.964 17.9828C19.9948 17.9941 20.0272 17.9999 20.0598 18C20.137 17.9999 20.2107 17.9673 20.2645 17.9095C20.3183 17.8516 20.3475 17.7735 20.3452 17.6929L20.3172 16.6237L20.9407 15.7759C20.9982 15.6977 21.0151 15.595 20.986 15.5013C20.9569 15.4076 20.8855 15.3349 20.7952 15.307L19.8144 15.0042L19.2355 14.1218H19.2356C19.1795 14.045 19.0924 14 19 14C18.9076 14 18.8205 14.045 18.7645 14.1218L18.1856 15.0042L17.2048 15.307H17.2049C17.1145 15.3349 17.0431 15.4076 17.014 15.5013C16.9849 15.595 17.0019 15.6977 17.0592 15.7759L17.6828 16.6237L17.6547 17.6929C17.6522 17.7912 17.6961 17.8847 17.7723 17.9426C17.8483 18.0007 17.9468 18.0156 18.0356 17.9828L19.0006 17.6242L19.964 17.9828ZM18.2389 17.2735L18.2583 16.5337C18.2602 16.4648 18.2394 16.3972 18.1992 16.3425L17.7667 15.7568L18.4452 15.5476C18.5082 15.5282 18.5628 15.4867 18.6 15.43L19.0006 14.8196L19.4007 15.43C19.4378 15.4867 19.4924 15.5282 19.5554 15.5476L20.2345 15.7568L19.8031 16.3433C19.763 16.398 19.7421 16.4656 19.7441 16.5345L19.7623 17.2735L19.0959 17.0255C19.034 17.0026 18.9664 17.0026 18.9045 17.0255L18.2389 17.2735Z" fill="white"/>
</g>
<defs>
<clipPath id="clip0_2183_26298">
<rect width="20" height="20" fill="white" transform="translate(9 9)"/>
</clipPath>
</defs>
</svg>
