<svg width="40" height="40" viewBox="0 0 40 40" fill="none" xmlns="http://www.w3.org/2000/svg">
<rect width="40" height="40" rx="20" fill="#45494F"/>
<path d="M32 17.1086C32 13.6613 31.655 10.5635 27.4877 10.5222L26.9848 10.517C23.8623 10.4802 22.5719 10.4671 21.37 12.3518C20.6639 13.4599 20.0621 15.1601 20.6902 16.305C21.1192 17.0872 22.0117 17.4836 23.3429 17.4836H27.4599C27.6752 17.5095 28.9299 17.6242 29.5288 16.8424C29.9439 16.3009 29.9289 15.5044 29.4849 14.475C29.4028 14.2849 29.1812 14.1975 28.9922 14.2796C28.8021 14.3618 28.7147 14.5823 28.7968 14.7724C29.0225 15.2948 29.2292 15.9986 28.9348 16.3849C28.6239 16.7921 27.8203 16.7775 27.5387 16.7374C27.5207 16.7347 27.5023 16.7336 27.4843 16.7336H23.3429C22.306 16.7336 21.6348 16.4681 21.3475 15.9442C20.9077 15.1418 21.3595 13.7644 22.0027 12.7549C22.9806 11.2219 23.9095 11.2332 26.9766 11.2666L27.4806 11.2722C29.9803 11.2969 31.2496 12.2063 31.2496 17.1086C31.2496 20.3501 29.7148 24.0872 29.3105 25.0154H23.5296C22.588 23.7434 20.7416 20.6538 21.9517 19.4441C22.4032 18.9918 22.852 18.8088 23.2199 18.9307C23.5364 19.0357 23.7145 19.3334 23.7509 19.5824C23.77 19.7129 23.7685 19.9556 23.542 20.1138C22.9098 20.5563 22.9296 21.0607 22.9675 21.2568C23.0361 21.6123 23.317 21.8973 23.683 21.9832C24.115 22.0855 24.5654 21.895 24.8834 21.4762C25.0086 21.3115 24.9767 21.076 24.8121 20.9508C24.6464 20.8259 24.4116 20.8578 24.2867 21.0224C24.1506 21.2017 23.9928 21.2845 23.854 21.253C23.7756 21.2347 23.7171 21.1807 23.704 21.115C23.683 21.0067 23.7861 20.8585 23.9721 20.7284C24.3722 20.4483 24.5672 19.9796 24.4934 19.4741C24.4079 18.8924 24.001 18.3997 23.4558 18.219C23.0796 18.0941 22.3169 18.0191 21.4214 18.9138C19.5817 20.7535 22.4399 24.8031 22.9679 25.5156V29.1174C22.9679 29.3244 23.1355 29.4924 23.3429 29.4924H29.5543C29.7617 29.4924 29.9293 29.3244 29.9293 29.1174V25.4725C30.212 24.8489 32 20.7622 32 17.1086ZM29.1793 25.7653V26.8787H23.7569C23.743 26.8787 23.7314 26.8851 23.7179 26.8866V25.7653H29.1793ZM23.7179 28.7424V27.6212C23.7314 27.6227 23.743 27.6291 23.7569 27.6291H29.1793V28.7424H23.7179Z" fill="white"/>
<path d="M13.0152 10.5166L12.5123 10.5218C8.34499 10.5634 8 13.6613 8 17.1086C8 20.7622 9.7876 24.8488 10.0707 25.4725V29.1174C10.0707 29.3244 10.2387 29.4924 10.4457 29.4924H16.6575C16.8649 29.4924 17.0325 29.3244 17.0325 29.1174V25.5156C17.5605 24.8031 20.4183 20.7535 18.579 18.9138C17.6842 18.0194 16.9207 18.0941 16.5442 18.2189C15.9994 18.3997 15.5921 18.8921 15.507 19.474C15.4331 19.9795 15.6278 20.4487 16.0282 20.7284C16.2142 20.8585 16.3166 21.007 16.296 21.115C16.2832 21.1803 16.2244 21.2346 16.1464 21.253C16.008 21.2849 15.8494 21.2013 15.7136 21.0224C15.5884 20.8578 15.3529 20.8255 15.1883 20.9511C15.0236 21.0764 14.9918 21.3115 15.1166 21.4765C15.4354 21.8958 15.8831 22.0859 16.3174 21.9835C16.6834 21.898 16.9642 21.613 17.0325 21.2575C17.0704 21.0614 17.0902 20.5567 16.4584 20.1142C16.2319 19.9559 16.2304 19.7133 16.2495 19.5824C16.2859 19.3338 16.464 19.0357 16.7805 18.9311C17.1439 18.8092 17.5961 18.9918 18.0487 19.4444C19.2566 20.6527 17.4116 23.743 16.4707 25.0157H10.6887C10.2845 24.088 8.74999 20.3534 8.74999 17.1086C8.74999 13.2626 9.3331 11.3037 12.5198 11.2718L13.0238 11.2662C16.0946 11.2324 17.0197 11.2212 17.9973 12.7545C18.6408 13.7636 19.0927 15.1414 18.6528 15.9439C18.3652 16.4673 17.694 16.7332 16.6575 16.7332H12.5161C12.4984 16.7332 12.4801 16.7343 12.4628 16.737C12.1793 16.7763 11.3761 16.7913 11.066 16.3845C10.7712 15.9982 10.9786 15.2944 11.2039 14.772C11.2861 14.5819 11.1983 14.361 11.0086 14.2793C10.8173 14.1968 10.5976 14.2845 10.5158 14.4746C10.0715 15.5036 10.0568 16.3001 10.472 16.842C11.0708 17.6235 12.3256 17.5091 12.5404 17.4832H16.6575C17.9887 17.4832 18.8816 17.0865 19.3102 16.3046C19.9383 15.1601 19.3361 13.4599 18.63 12.3514C17.4281 10.4667 16.1359 10.4791 13.0152 10.5166ZM10.8207 28.7424V27.629H16.2431C16.257 27.629 16.269 27.6227 16.2821 27.6212V28.7424H10.8207ZM16.2821 25.7653V26.8866C16.2686 26.8851 16.257 26.8787 16.2431 26.8787H10.8207V25.7653H16.2821Z" fill="white"/>
</svg>
