<svg width="16" height="16" viewBox="0 0 16 16" fill="none" xmlns="http://www.w3.org/2000/svg">
<path fill-rule="evenodd" clip-rule="evenodd" d="M11.9345 9.14873C11.0265 7.19268 11.3535 4.5856 12.1375 2.71255C12.5055 2.58155 11.7855 2.35154 11.5175 2.40054C8.69639 2.93156 6.13032 4.80161 5.14829 7.53569C3.27624 5.66963 0.410159 7.50769 0.502161 10.2298C0.578163 12.4738 1.8952 14.1469 3.98526 14.5259C7.01734 15.0749 9.1084 12.1828 9.20441 10.1778C9.29541 8.29171 7.76537 7.19768 6.07432 7.73069C6.84834 5.37063 8.8894 3.63458 11.2425 2.94556C10.5504 4.78061 10.3004 7.10368 11.0545 8.96273C10.6524 8.55772 10.2044 8.32171 9.74842 8.23171C10.0394 8.75372 10.2084 9.36274 10.2054 10.0168C10.2054 10.0748 10.2054 10.1398 10.2014 10.2268C10.1014 11.7868 9.17741 13.6199 7.57736 14.6899C8.16238 15.3179 8.9354 15.7609 9.87542 15.9319C12.9065 16.4809 14.9986 13.5889 15.0956 11.5838C15.1866 9.68875 13.6385 8.59372 11.9345 9.14873ZM7.26035 10.7148L7.26235 10.7178C7.29735 10.5118 7.49236 10.3748 7.69636 10.4148C7.89837 10.4508 8.03437 10.6448 7.99937 10.8488C7.75636 12.1598 6.71233 13.1888 5.4623 13.1988C5.4623 13.1988 5.4473 13.1968 5.4493 13.1988C5.4363 13.2008 5.4243 13.2008 5.4113 13.2008C5.22129 13.2008 5.05529 13.0588 5.03329 12.8658C5.01129 12.6598 5.15929 12.4738 5.3653 12.4518C5.4023 12.4478 5.4293 12.4478 5.4443 12.4478H5.4633C6.26332 12.4588 7.07934 11.7228 7.26035 10.7148ZM11.2265 14.6039C11.2265 14.6039 11.2115 14.6019 11.2115 14.6039C11.1975 14.6059 11.1835 14.6059 11.1695 14.6059C10.9815 14.6059 10.8185 14.4639 10.7975 14.2719C10.7745 14.0669 10.9225 13.8789 11.1295 13.8589C11.1895 13.8519 11.2195 13.8539 11.2265 13.8539C12.0255 13.8649 12.8435 13.1288 13.0245 12.1208V12.1228C13.0615 11.9188 13.2555 11.7828 13.4595 11.8198C13.6635 11.8568 13.7995 12.0498 13.7625 12.2548C13.5215 13.5649 12.4745 14.5929 11.2265 14.6039ZM10.4204 1.27151C10.4204 1.27151 9.0954 -0.597541 6.71334 0.196481C5.4993 0.602493 4.47827 1.43152 3.86326 2.13454C4.95329 2.86456 6.11632 3.13556 7.43736 3.05056C8.48539 2.97856 9.59542 2.31254 10.4204 1.27151Z" fill="white"/>
</svg>
