<svg width="26" height="24" viewBox="0 0 26 24" fill="none" xmlns="http://www.w3.org/2000/svg">
<path d="M24.1999 7.19427H22.4482C21.0123 3.29309 17.2502 0.692383 13 0.692383C8.7498 0.692383 4.98777 3.29314 3.55188 7.19427H1.8001C0.852417 7.19427 0.0769348 7.95758 0.0769348 8.89051V12.2828C0.0769348 13.2156 0.852365 13.979 1.8001 13.979H3.95393C4.12621 13.979 4.29848 13.8942 4.41346 13.7528C4.52825 13.6114 4.55709 13.4137 4.4996 13.2441C4.21234 12.396 4.06892 11.4914 4.06892 10.5867C4.06892 9.68202 4.21255 8.77751 4.4996 7.92939C5.70575 4.28258 9.09434 1.82327 13.0001 1.82327C16.9058 1.82327 20.2944 4.28263 21.4718 7.92939C21.759 8.77751 21.9025 9.68202 21.9025 10.5867C21.9025 11.4914 21.7588 12.396 21.4718 13.2441C20.2943 16.8907 16.9057 19.3502 13.0001 19.3502H8.69239C7.5724 19.3502 6.6822 20.2265 6.6822 21.329C6.6822 22.4315 7.5724 23.3078 8.69239 23.3078H11.5642C12.6842 23.3078 13.5744 22.4315 13.5744 21.329V20.4527C17.5947 20.2265 21.0697 17.7106 22.4481 13.9791L24.1999 13.9789C25.1476 13.9789 25.9231 13.2156 25.9231 12.2826V8.89039C25.9231 7.95767 25.1477 7.19435 24.1999 7.19435L24.1999 7.19427ZM3.20727 12.8481H1.8002C1.4843 12.8481 1.2259 12.5937 1.2259 12.2828L1.2257 8.89031C1.2257 8.57934 1.48411 8.32498 1.8 8.32498H3.20722C3.03495 9.05993 2.94881 9.82324 2.94881 10.5866C2.94881 11.3499 3.03495 12.113 3.20722 12.8481L3.20727 12.8481ZM12.4257 21.3288C12.4257 21.8094 12.0523 22.1769 11.5641 22.1769H8.69231C8.20413 22.1769 7.83073 21.8094 7.83073 21.3288C7.83073 20.8482 8.20412 20.4807 8.69231 20.4807H12.4257V21.3288ZM24.7743 12.2827C24.7743 12.5937 24.5159 12.848 24.2 12.848H22.7928C22.965 12.1131 23.0512 11.3498 23.0512 10.5865C23.0512 9.82314 22.965 9.06003 22.7928 8.32488H24.1998C24.5157 8.32488 24.7741 8.57926 24.7741 8.89021L24.7743 12.2827ZM20.1794 10.5865C20.1794 6.68528 16.963 3.51919 12.9999 3.51919C9.03682 3.51919 5.82048 6.68528 5.82048 10.5865C5.82048 12.2827 6.42366 13.8939 7.54365 15.166L5.99299 16.6924C5.82072 16.862 5.79187 17.0882 5.87821 17.3143C5.96435 17.5123 6.16547 17.6535 6.39503 17.6535H13.0001C16.963 17.6537 20.1795 14.4876 20.1795 10.5862L20.1794 10.5865ZM8.74969 14.7702C7.60109 13.6396 6.96924 12.1695 6.96924 10.5865C6.96924 7.30719 9.66876 4.64995 13 4.64995C16.3313 4.64995 19.0307 7.3073 19.0307 10.5865C19.0307 13.8656 16.3312 16.523 13 16.523H7.77283L8.72051 15.5901C8.95028 15.3639 8.95028 14.9963 8.74936 14.7702L8.74969 14.7702ZM12.4256 10.5865C12.4256 10.2755 12.684 10.0211 12.9999 10.0211C13.3158 10.0211 13.5742 10.2755 13.5742 10.5865C13.5742 10.8974 13.3158 11.1518 12.9999 11.1518C12.684 11.1518 12.4256 10.8974 12.4256 10.5865ZM15.2973 10.5865C15.2973 10.2755 15.5558 10.0211 15.8716 10.0211C16.1875 10.0211 16.4459 10.2755 16.4459 10.5865C16.4459 10.8974 16.1875 11.1518 15.8716 11.1518C15.5558 11.1518 15.2973 10.8974 15.2973 10.5865ZM9.55379 10.5865C9.55379 10.2755 9.8122 10.0211 10.1281 10.0211C10.444 10.0211 10.7024 10.2755 10.7024 10.5865C10.7024 10.8974 10.444 11.1518 10.1281 11.1518C9.8122 11.1518 9.55379 10.8974 9.55379 10.5865Z" fill="#191919"/>
</svg>
