<svg width="24" height="21" viewBox="0 0 24 21" fill="none" xmlns="http://www.w3.org/2000/svg">
<path d="M21.6 6.38091H20.0984C18.8677 3.03704 15.6431 0.807861 12 0.807861C8.35698 0.807861 5.13238 3.03708 3.90162 6.38091H2.4001C1.58779 6.38091 0.923096 7.03518 0.923096 7.83483V10.7425C0.923096 11.5421 1.58775 12.1964 2.4001 12.1964H4.24624C4.3939 12.1964 4.54157 12.1237 4.64012 12.0025C4.73851 11.8813 4.76323 11.7118 4.71395 11.5665C4.46773 10.8395 4.34479 10.0642 4.34479 9.28873C4.34479 8.51327 4.46791 7.73797 4.71395 7.01101C5.74779 3.88517 8.6523 1.77719 12.0001 1.77719C15.3478 1.77719 18.2523 3.88522 19.2615 7.01101C19.5078 7.73797 19.6307 8.51327 19.6307 9.28873C19.6307 10.0642 19.5076 10.8395 19.2615 11.5665C18.2523 14.6921 15.3478 16.8003 12.0001 16.8003H8.30777C7.34778 16.8003 6.58475 17.5514 6.58475 18.4964C6.58475 19.4414 7.34778 20.1925 8.30777 20.1925H10.7693C11.7293 20.1925 12.4923 19.4414 12.4923 18.4964V17.7453C15.9384 17.5514 18.9169 15.3949 20.0984 12.1965L21.5999 12.1963C22.4122 12.1963 23.0769 11.542 23.0769 10.7424V7.83473C23.0769 7.03525 22.4123 6.38098 21.5999 6.38098L21.6 6.38091ZM3.60624 11.227H2.40018C2.12941 11.227 1.90792 11.009 1.90792 10.7425L1.90775 7.83466C1.90775 7.56811 2.12925 7.35009 2.40001 7.35009H3.6062C3.45854 7.98004 3.3847 8.63431 3.3847 9.28858C3.3847 9.94285 3.45854 10.597 3.6062 11.2271L3.60624 11.227ZM11.5077 18.4962C11.5077 18.9081 11.1877 19.2232 10.7692 19.2232H8.3077C7.88927 19.2232 7.5692 18.9081 7.5692 18.4962C7.5692 18.0843 7.88925 17.7693 8.3077 17.7693H11.5077V18.4962ZM22.0923 10.7424C22.0923 11.009 21.8708 11.227 21.6 11.227H20.3938C20.5415 10.597 20.6153 9.94277 20.6153 9.2885C20.6153 8.63423 20.5415 7.98013 20.3938 7.35H21.5999C21.8706 7.35 22.0921 7.56804 22.0921 7.83457L22.0923 10.7424ZM18.1537 9.2885C18.1537 5.94463 15.3969 3.23084 11.9999 3.23084C8.603 3.23084 5.84614 5.94463 5.84614 9.2885C5.84614 10.7424 6.36314 12.1235 7.32314 13.2138L5.994 14.5222C5.84634 14.6675 5.82161 14.8614 5.89562 15.0553C5.96945 15.225 6.14184 15.346 6.3386 15.346H12.0001C15.3969 15.3461 18.1539 12.6324 18.1539 9.28831L18.1537 9.2885ZM8.35689 12.8746C7.37237 11.9054 6.83079 10.6454 6.83079 9.2885C6.83079 6.4777 9.14466 4.20006 12 4.20006C14.8554 4.20006 17.1692 6.47779 17.1692 9.2885C17.1692 12.0992 14.8553 14.3769 12 14.3769H7.51958L8.33188 13.5773C8.52882 13.3835 8.52882 13.0684 8.3566 12.8745L8.35689 12.8746ZM11.5076 9.2885C11.5076 9.02195 11.7291 8.80393 11.9999 8.80393C12.2707 8.80393 12.4922 9.02196 12.4922 9.2885C12.4922 9.55503 12.2707 9.77307 11.9999 9.77307C11.7291 9.77307 11.5076 9.55503 11.5076 9.2885ZM13.9692 9.2885C13.9692 9.02195 14.1907 8.80393 14.4614 8.80393C14.7322 8.80393 14.9537 9.02196 14.9537 9.2885C14.9537 9.55503 14.7322 9.77307 14.4614 9.77307C14.1907 9.77307 13.9692 9.55503 13.9692 9.2885ZM9.04611 9.2885C9.04611 9.02195 9.26761 8.80393 9.53837 8.80393C9.80914 8.80393 10.0306 9.02196 10.0306 9.2885C10.0306 9.55503 9.80914 9.77307 9.53837 9.77307C9.26761 9.77307 9.04611 9.55503 9.04611 9.2885Z" fill="white"/>
</svg>
