<svg width="36" height="37" viewBox="0 0 36 37" fill="none" xmlns="http://www.w3.org/2000/svg">
<circle cx="18" cy="18.5" r="18" fill="#C59E43"/>
<path d="M27.5997 14.3807H26.0982C24.8674 11.0368 21.6428 8.80762 17.9998 8.80762C14.3567 8.80762 11.1321 11.0368 9.90138 14.3807H8.39985C7.58755 14.3807 6.92285 15.0349 6.92285 15.8346V18.7422C6.92285 19.5418 7.58751 20.1961 8.39985 20.1961H10.246C10.3937 20.1961 10.5413 20.1235 10.6399 20.0023C10.7383 19.8811 10.763 19.7116 10.7137 19.5662C10.4675 18.8393 10.3445 18.064 10.3445 17.2885C10.3445 16.513 10.4677 15.7377 10.7137 15.0108C11.7475 11.8849 14.6521 9.77695 17.9998 9.77695C21.3476 9.77695 24.2521 11.885 25.2613 15.0108C25.5075 15.7377 25.6305 16.513 25.6305 17.2885C25.6305 18.064 25.5073 18.8393 25.2613 19.5662C24.252 22.6919 21.3475 24.8 17.9998 24.8H14.3075C13.3475 24.8 12.5845 25.5511 12.5845 26.4961C12.5845 27.4411 13.3475 28.1922 14.3075 28.1922H16.769C17.729 28.1922 18.4921 27.4411 18.4921 26.4961V25.745C21.9381 25.5512 24.9166 23.3947 26.0982 20.1962L27.5997 20.196C28.412 20.196 29.0767 19.5418 29.0767 18.7421V15.8345C29.0767 15.035 28.412 14.3807 27.5997 14.3807L27.5997 14.3807ZM9.606 19.2268H8.39994C8.12916 19.2268 7.90768 19.0088 7.90768 18.7422L7.90751 15.8344C7.90751 15.5679 8.12901 15.3498 8.39977 15.3498H9.60596C9.45829 15.9798 9.38446 16.6341 9.38446 17.2883C9.38446 17.9426 9.45829 18.5967 9.60596 19.2268L9.606 19.2268ZM17.5075 26.496C17.5075 26.9079 17.1874 27.2229 16.769 27.2229H14.3075C13.889 27.2229 13.569 26.9079 13.569 26.496C13.569 26.0841 13.889 25.769 14.3075 25.769H17.5075V26.496ZM28.092 18.7422C28.092 19.0087 27.8705 19.2267 27.5998 19.2267H26.3936C26.5412 18.5968 26.6151 17.9425 26.6151 17.2883C26.6151 16.634 26.5412 15.9799 26.3936 15.3498H27.5996C27.8704 15.3498 28.0919 15.5678 28.0919 15.8343L28.092 18.7422ZM24.1535 17.2883C24.1535 13.9444 21.3966 11.2306 17.9997 11.2306C14.6028 11.2306 11.8459 13.9444 11.8459 17.2883C11.8459 18.7422 12.3629 20.1232 13.3229 21.2136L11.9938 22.5219C11.8461 22.6673 11.8214 22.8612 11.8954 23.055C11.9692 23.2247 12.1416 23.3457 12.3384 23.3457H17.9999C21.3966 23.3459 24.1537 20.6321 24.1537 17.2881L24.1535 17.2883ZM14.3566 20.8743C13.3721 19.9052 12.8305 18.6451 12.8305 17.2883C12.8305 14.4775 15.1444 12.1998 17.9997 12.1998C20.8551 12.1998 23.1689 14.4775 23.1689 17.2883C23.1689 20.099 20.8551 22.3767 17.9997 22.3767H13.5193L14.3316 21.5771C14.5286 21.3832 14.5286 21.0681 14.3564 20.8743L14.3566 20.8743ZM17.5074 17.2883C17.5074 17.0217 17.7289 16.8037 17.9997 16.8037C18.2704 16.8037 18.4919 17.0217 18.4919 17.2883C18.4919 17.5548 18.2704 17.7728 17.9997 17.7728C17.7289 17.7728 17.5074 17.5548 17.5074 17.2883ZM19.9689 17.2883C19.9689 17.0217 20.1904 16.8037 20.4612 16.8037C20.7319 16.8037 20.9534 17.0217 20.9534 17.2883C20.9534 17.5548 20.7319 17.7728 20.4612 17.7728C20.1904 17.7728 19.9689 17.5548 19.9689 17.2883ZM15.0459 17.2883C15.0459 17.0217 15.2674 16.8037 15.5381 16.8037C15.8089 16.8037 16.0304 17.0217 16.0304 17.2883C16.0304 17.5548 15.8089 17.7728 15.5381 17.7728C15.2674 17.7728 15.0459 17.5548 15.0459 17.2883Z" fill="white"/>
</svg>
