<svg width="65" height="64" viewBox="0 0 65 64" fill="none" xmlns="http://www.w3.org/2000/svg">
<path d="M23.5572 23.0575C24.0778 22.5368 24.9221 22.5368 25.4428 23.0575L32.5 30.1147L39.5571 23.0575C40.0778 22.5368 40.9221 22.5368 41.4428 23.0575C41.9635 23.5782 41.9635 24.4224 41.4428 24.9431L34.3856 32.0003L41.4428 39.0575C41.9635 39.5782 41.9635 40.4224 41.4428 40.9431C40.9221 41.4638 40.0778 41.4638 39.5571 40.9431L32.5 33.8859L25.4428 40.9431C24.9221 41.4638 24.0778 41.4638 23.5572 40.9431C23.0365 40.4224 23.0365 39.5782 23.5572 39.0575L30.6143 32.0003L23.5572 24.9431C23.0365 24.4224 23.0365 23.5782 23.5572 23.0575Z" fill="white"/>
<circle cx="32.5" cy="32" r="30.5" stroke="#BC9239" stroke-width="3"/>
<circle cx="32.5" cy="32" r="30.5" stroke="url(#paint0_linear_4163_19873)" stroke-opacity="0.2" stroke-width="3"/>
<defs>
<linearGradient id="paint0_linear_4163_19873" x1="32.5" y1="0" x2="27.2496" y2="45.4025" gradientUnits="userSpaceOnUse">
<stop stop-color="white"/>
<stop offset="1" stop-color="white" stop-opacity="0"/>
</linearGradient>
</defs>
</svg>
