<svg width="40" height="40" viewBox="0 0 40 40" fill="none" xmlns="http://www.w3.org/2000/svg">
<rect width="40" height="40" rx="20" fill="#45494F"/>
<g clip-path="url(#clip0_1985_22796)">
<path d="M29.0632 20.9032C28.8568 20.8619 28.6503 20.9961 28.609 21.2077C28.3355 22.56 27.8193 23.8297 26.9213 25.3213C26.8129 25.5071 26.8697 25.7445 27.0555 25.8529C27.1226 25.8942 27.1897 25.9097 27.2568 25.9097C27.391 25.9097 27.5148 25.8426 27.5871 25.7187C28.5316 24.1497 29.0787 22.8026 29.3677 21.3574C29.409 21.1509 29.2748 20.9445 29.0632 20.9032Z" fill="white"/>
<path d="M22.3003 19.278L22.8477 19.8254L24.1324 18.5408L23.585 17.9934L22.3003 19.278Z" fill="white"/>
<path d="M12.4098 24.8699L12.9572 25.4174L14.2419 24.1327L13.6944 23.5853L12.4098 24.8699Z" fill="white"/>
<path d="M16.1598 22.1956L15.6124 21.6482L14.3278 22.9328L14.8752 23.4803L16.1598 22.1956Z" fill="white"/>
<path d="M20.023 18.3508L19.4756 17.8033L18.1909 19.088L18.7383 19.6354L20.023 18.3508Z" fill="white"/>
<path d="M18.0952 20.2748L17.5478 19.7274L16.2631 21.0121L16.8106 21.5595L18.0952 20.2748Z" fill="white"/>
<path d="M21.9405 16.4158L21.3931 15.8684L20.1084 17.153L20.6559 17.7005L21.9405 16.4158Z" fill="white"/>
<path d="M23.8754 14.4931L23.328 13.9457L22.0433 15.2303L22.5908 15.7778L23.8754 14.4931Z" fill="white"/>
<path d="M25.7965 12.5617L25.2491 12.0143L23.9644 13.2989L24.5119 13.8464L25.7965 12.5617Z" fill="white"/>
<path d="M14.5915 26.9897L15.1389 27.5371L16.4236 26.2525L15.8762 25.705L14.5915 26.9897Z" fill="white"/>
<path d="M16.52 25.059L17.0674 25.6064L18.3521 24.3218L17.8046 23.7744L16.52 25.059Z" fill="white"/>
<path d="M20.3726 21.2087L20.92 21.7561L22.2047 20.4715L21.6572 19.924L20.3726 21.2087Z" fill="white"/>
<path d="M18.4477 23.1357L18.9952 23.6831L20.2798 22.3985L19.7324 21.851L18.4477 23.1357Z" fill="white"/>
<path d="M24.2288 17.3548L24.7762 17.9022L26.0609 16.6176L25.5134 16.0701L24.2288 17.3548Z" fill="white"/>
<path d="M26.1529 15.4278L26.7003 15.9752L27.985 14.6906L27.4375 14.1431L26.1529 15.4278Z" fill="white"/>
<path d="M28.4748 11.4994C26.209 9.24387 23.2 8 20 8C16.7742 8 13.76 9.24387 11.4994 11.4994C9.24387 13.7548 8 16.7742 8 20C8 23.2 9.24387 26.209 11.4994 28.4748C13.7652 30.7458 16.7845 32 20 32C23.1948 32 26.2039 30.7458 28.4748 28.4748C30.7458 26.2039 32 23.1897 32 20C32 16.7845 30.7458 13.7652 28.4748 11.4994ZM8.77419 20C8.77419 13.8116 13.8116 8.77419 20 8.77419C21.8323 8.77419 23.5613 9.2129 25.089 9.99742L9.99742 25.089C9.21806 23.5613 8.77419 21.8323 8.77419 20ZM13.5123 29.1561L14.4929 28.1755L13.9458 27.6284L12.8929 28.6813C12.3045 28.2013 11.7677 27.6594 11.2877 27.0761L12.3045 26.0594L11.7574 25.5123L10.8129 26.4568C10.6632 26.2452 10.5187 26.0232 10.3845 25.7961L25.791 10.3897C26.0181 10.5239 26.2348 10.6684 26.4516 10.8181L25.8942 11.3755L26.4413 11.9226L27.0761 11.2877C27.6594 11.7626 28.191 12.289 28.6658 12.8671L28.0671 13.5019L28.6297 14.0335L29.1406 13.4916C29.2903 13.6981 29.4297 13.9097 29.5639 14.1265L14.1265 29.5639C13.9148 29.4348 13.7084 29.3006 13.5123 29.1561ZM20 31.2258C18.1368 31.2258 16.3768 30.7665 14.8284 29.9613L29.9613 14.8284C30.7716 16.3768 31.2258 18.1368 31.2258 20C31.2258 26.1884 26.1884 31.2258 20 31.2258Z" fill="white"/>
<path d="M26.4258 27.1741C26.6396 27.1741 26.8129 27.0008 26.8129 26.787C26.8129 26.5732 26.6396 26.3999 26.4258 26.3999C26.212 26.3999 26.0387 26.5732 26.0387 26.787C26.0387 27.0008 26.212 27.1741 26.4258 27.1741Z" fill="white"/>
</g>
<defs>
<clipPath id="clip0_1985_22796">
<rect width="24" height="24" fill="white" transform="translate(8 8)"/>
</clipPath>
</defs>
</svg>
