<svg width="40" height="40" viewBox="0 0 40 40" fill="none" xmlns="http://www.w3.org/2000/svg">
<rect width="40" height="40" rx="20" fill="#45494F"/>
<g clip-path="url(#clip0_1985_22825)">
<path d="M30.631 14.4288C30.5312 14.2388 30.2962 14.1655 30.1061 14.2654C29.9159 14.3652 29.8428 14.6002 29.9426 14.7903C30.7798 16.3848 31.2224 18.1863 31.2224 20C31.2224 22.9976 30.0551 25.8158 27.9355 27.9355C25.8158 30.0551 22.9976 31.2225 20 31.2225C17.0024 31.2225 14.1842 30.0551 12.0645 27.9355C9.94483 25.8158 8.77754 22.9976 8.77754 20C8.77754 17.0024 9.94488 14.1842 12.0645 12.0645C14.1842 9.94488 17.0024 8.77754 20 8.77754C21.8142 8.77754 23.6161 9.22032 25.2111 10.0581C25.4012 10.1581 25.6362 10.0847 25.736 9.8947C25.8358 9.70462 25.7627 9.4696 25.5726 9.36976C23.8667 8.47367 21.9397 8 20 8C16.7947 8 13.7812 9.2482 11.5147 11.5147C9.2482 13.7812 8 16.7947 8 20C8 23.2053 9.2482 26.2188 11.5147 28.4852C13.7812 30.7517 16.7947 31.9999 20 31.9999C23.2053 31.9999 26.2188 30.7517 28.4852 28.4852C30.7517 26.2188 31.9999 23.2053 31.9999 20C31.9999 18.0609 31.5266 16.1344 30.631 14.4288Z" fill="white"/>
<path d="M24.9381 12.3178C25.0466 12.1324 24.9843 11.8943 24.7989 11.7859C23.3489 10.9369 21.6894 10.4882 20 10.4882C14.7551 10.4882 10.4881 14.7552 10.4881 20C10.4881 25.2449 14.7551 29.5119 20 29.5119C25.2449 29.5119 29.5118 25.2449 29.5118 20C29.5118 18.3111 29.0634 16.6521 28.2149 15.2023C28.1064 15.0169 27.8682 14.9547 27.683 15.0631C27.4977 15.1716 27.4354 15.4098 27.5438 15.595C28.3227 16.9258 28.7343 18.449 28.7343 20C28.7343 24.8162 24.8161 28.7343 20 28.7343C15.1839 28.7343 11.2657 24.8162 11.2657 20C11.2657 15.1839 15.1839 11.2657 20 11.2657C21.5515 11.2657 23.0751 11.6776 24.4061 12.4568C24.5913 12.5653 24.8296 12.503 24.9381 12.3178Z" fill="white"/>
<path d="M23.6659 13.4847C23.7615 13.2924 23.683 13.0591 23.4908 12.9635C22.4005 12.4216 21.226 12.1469 20 12.1469C15.6698 12.1469 12.1469 15.6698 12.1469 20C12.1469 24.3302 15.6698 27.8531 20 27.8531C24.3302 27.8531 27.8531 24.3302 27.8531 20C27.8531 18.7483 27.5512 17.5028 26.9801 16.3982C26.8815 16.2074 26.6469 16.1328 26.4563 16.2314C26.2655 16.3299 26.1909 16.5645 26.2895 16.7553C26.8111 17.7642 27.0755 18.8559 27.0755 20C27.0755 23.9015 23.9015 27.0755 20 27.0755C16.0984 27.0755 12.9244 23.9015 12.9244 20C12.9244 16.0985 16.0985 12.9244 20 12.9244C21.1048 12.9244 22.1629 13.1718 23.1447 13.6598C23.3369 13.7553 23.5703 13.6769 23.6659 13.4847Z" fill="white"/>
<path d="M21.6179 15.2766C21.6713 15.0686 21.546 14.8567 21.338 14.8033C20.9032 14.6916 20.453 14.635 20 14.635C17.0417 14.635 14.635 17.0417 14.635 20C14.635 22.9583 17.0417 25.365 20 25.365C22.9582 25.365 25.365 22.9583 25.365 20C25.365 19.5458 25.308 19.0944 25.1957 18.6585C25.1422 18.4506 24.9304 18.3256 24.7223 18.379C24.5144 18.4325 24.3892 18.6445 24.4428 18.8524C24.5388 19.225 24.5874 19.6111 24.5874 20C24.5874 22.5295 22.5295 24.5875 19.9999 24.5875C17.4704 24.5875 15.4125 22.5295 15.4125 20C15.4125 17.4705 17.4704 15.4125 20 15.4125C20.3878 15.4125 20.7729 15.461 21.1446 15.5564C21.3524 15.6098 21.5644 15.4845 21.6179 15.2766Z" fill="white"/>
<path d="M20 17.0712C20.2147 17.0712 20.3888 16.8972 20.3888 16.6825C20.3888 16.4678 20.2147 16.2937 20 16.2937C17.9564 16.2937 16.2937 17.9563 16.2937 20C16.2937 22.0436 17.9564 23.7062 20 23.7062C22.0436 23.7062 23.7062 22.0436 23.7062 20C23.7062 19.7853 23.5322 19.6112 23.3175 19.6112C23.1027 19.6112 22.9287 19.7853 22.9287 20C22.9287 21.6148 21.6149 22.9287 20 22.9287C18.3851 22.9287 17.0713 21.6148 17.0713 20C17.0713 18.3851 18.3851 17.0712 20 17.0712Z" fill="white"/>
<path d="M25.189 14.261C25.0228 14.1783 24.8385 14.1343 24.6474 14.1343C24.3218 14.1343 24.0158 14.2611 23.7861 14.4912L21.2121 17.0651C20.9821 17.2952 20.8553 17.6011 20.8553 17.9264C20.8553 18.1175 20.8993 18.3018 20.982 18.468L19.725 19.725C19.5732 19.8768 19.5732 20.123 19.725 20.2747C19.801 20.3506 19.9005 20.3886 20 20.3886C20.0995 20.3886 20.199 20.3507 20.2749 20.2747L21.5318 19.0178C21.6981 19.1005 21.8823 19.1445 22.0735 19.1445C22.399 19.1445 22.705 19.0177 22.9348 18.7877L25.5087 16.2137C25.7388 15.9836 25.8656 15.6777 25.8656 15.3524C25.8656 15.1614 25.8215 14.9771 25.7388 14.8108L26.3813 14.1683H28.7084C28.8115 14.1683 28.9103 14.1274 28.9833 14.0545L31.8861 11.1517C31.9973 11.0405 32.0305 10.8732 31.9704 10.728C31.9102 10.5827 31.7684 10.488 31.6112 10.488H29.5118V8.38865C29.5118 8.23138 29.4171 8.08966 29.2718 8.02948C29.1265 7.9693 28.9594 8.00258 28.8481 8.11377L25.9453 11.0166C25.8725 11.0895 25.8315 11.1884 25.8315 11.2915V13.6185L25.189 14.261ZM24.9588 15.664L22.3847 18.2381C22.3016 18.3213 22.1911 18.367 22.0734 18.367C21.9557 18.367 21.8451 18.3213 21.7619 18.2379C21.6787 18.1547 21.6328 18.044 21.6328 17.9264C21.6328 17.8088 21.6787 17.6982 21.7619 17.6149L24.336 15.0408C24.4191 14.9576 24.5296 14.9119 24.6474 14.9119C24.7651 14.9119 24.8757 14.9576 24.9588 15.041C25.1306 15.2127 25.1306 15.4922 24.9588 15.664ZM26.609 11.4525L28.7343 9.32724V10.8768C28.7343 11.0915 28.9083 11.2655 29.1231 11.2655H30.6727L28.5474 13.3908H27.1589L28.154 12.3957C28.3058 12.2439 28.3058 11.9977 28.154 11.8459C28.0021 11.6941 27.756 11.6941 27.6041 11.8459L26.609 12.841V11.4525Z" fill="white"/>
</g>
<defs>
<clipPath id="clip0_1985_22825">
<rect width="24" height="24" fill="white" transform="translate(8 8)"/>
</clipPath>
</defs>
</svg>
