<svg width="24" height="24" viewBox="0 0 24 24" fill="none" xmlns="http://www.w3.org/2000/svg">
<path d="M3.36002 4.32007C2.04002 4.32007 0.960022 5.40007 0.960022 6.72007V17.2801C0.960022 18.6001 2.04002 19.6801 3.36002 19.6801H20.64C21.96 19.6801 23.04 18.6001 23.04 17.2801V6.72007C23.04 5.40007 21.96 4.32007 20.64 4.32007H3.36002ZM3.36002 5.28007H20.64C21.4406 5.28007 22.08 5.91944 22.08 6.72007V17.2801C22.08 18.0807 21.4406 18.7201 20.64 18.7201H3.36002C2.5594 18.7201 1.92002 18.0807 1.92002 17.2801V6.72007C1.92002 5.91944 2.5594 5.28007 3.36002 5.28007ZM4.80002 7.68007C4.27502 7.68007 3.84002 8.11507 3.84002 8.64007V10.0801C3.84002 10.6051 4.27502 11.0401 4.80002 11.0401H6.72002C7.24502 11.0401 7.68002 10.6051 7.68002 10.0801V8.64007C7.68002 8.11507 7.24502 7.68007 6.72002 7.68007H4.80002ZM4.80002 8.64007H6.72002V10.0801H4.80002V8.64007ZM13.305 8.64007C13.0406 8.67757 12.855 8.92319 12.8925 9.18757C12.93 9.45194 13.1756 9.63757 13.44 9.60007H19.68C19.8525 9.60194 20.0138 9.51194 20.1019 9.36194C20.1881 9.21194 20.1881 9.02819 20.1019 8.87819C20.0138 8.72819 19.8525 8.63819 19.68 8.64007H13.44C13.425 8.64007 13.41 8.64007 13.395 8.64007C13.38 8.64007 13.365 8.64007 13.35 8.64007C13.335 8.64007 13.32 8.64007 13.305 8.64007ZM4.18502 13.4401C3.92065 13.4776 3.73502 13.7232 3.77252 13.9876C3.81002 14.2519 4.05565 14.4376 4.32002 14.4001H6.72002C6.89252 14.4019 7.05377 14.3119 7.1419 14.1619C7.22815 14.0119 7.22815 13.8282 7.1419 13.6782C7.05377 13.5282 6.89252 13.4382 6.72002 13.4401H4.32002C4.30502 13.4401 4.29002 13.4401 4.27502 13.4401C4.26002 13.4401 4.24502 13.4401 4.23002 13.4401C4.21502 13.4401 4.20002 13.4401 4.18502 13.4401ZM8.50502 13.4401C8.24065 13.4776 8.05502 13.7232 8.09252 13.9876C8.13002 14.2519 8.37565 14.4376 8.64002 14.4001H11.04C11.2125 14.4019 11.3738 14.3119 11.4619 14.1619C11.5481 14.0119 11.5481 13.8282 11.4619 13.6782C11.3738 13.5282 11.2125 13.4382 11.04 13.4401H8.64002C8.62502 13.4401 8.61002 13.4401 8.59502 13.4401C8.58002 13.4401 8.56502 13.4401 8.55002 13.4401C8.53502 13.4401 8.52002 13.4401 8.50502 13.4401ZM12.825 13.4401C12.5606 13.4776 12.375 13.7232 12.4125 13.9876C12.45 14.2519 12.6956 14.4376 12.96 14.4001H15.36C15.5325 14.4019 15.6938 14.3119 15.7819 14.1619C15.8681 14.0119 15.8681 13.8282 15.7819 13.6782C15.6938 13.5282 15.5325 13.4382 15.36 13.4401H12.96C12.945 13.4401 12.93 13.4401 12.915 13.4401C12.9 13.4401 12.885 13.4401 12.87 13.4401C12.855 13.4401 12.84 13.4401 12.825 13.4401ZM17.145 13.4401C16.8806 13.4776 16.695 13.7232 16.7325 13.9876C16.77 14.2519 17.0156 14.4376 17.28 14.4001H19.68C19.8525 14.4019 20.0138 14.3119 20.1019 14.1619C20.1881 14.0119 20.1881 13.8282 20.1019 13.6782C20.0138 13.5282 19.8525 13.4382 19.68 13.4401H17.28C17.265 13.4401 17.25 13.4401 17.235 13.4401C17.22 13.4401 17.205 13.4401 17.19 13.4401C17.175 13.4401 17.16 13.4401 17.145 13.4401ZM4.18502 15.8401C3.92065 15.8776 3.73502 16.1232 3.77252 16.3876C3.81002 16.6519 4.05565 16.8376 4.32002 16.8001H10.56C10.7325 16.8019 10.8938 16.7119 10.9819 16.5619C11.0681 16.4119 11.0681 16.2282 10.9819 16.0782C10.8938 15.9282 10.7325 15.8382 10.56 15.8401H4.32002C4.30502 15.8401 4.29002 15.8401 4.27502 15.8401C4.26002 15.8401 4.24502 15.8401 4.23002 15.8401C4.21502 15.8401 4.20002 15.8401 4.18502 15.8401Z" fill="white"/>
</svg>
