<svg width="38" height="38" viewBox="0 0 38 38" fill="none" xmlns="http://www.w3.org/2000/svg">
<circle cx="19" cy="19" r="19" fill="#24282C"/>
<path fill-rule="evenodd" clip-rule="evenodd" d="M19.6944 13.793V9.21935C19.6944 8.83578 19.3835 8.5249 19 8.5249C18.6164 8.5249 18.3055 8.83578 18.3055 9.21935V13.793L16.7132 12.2006C16.4419 11.9293 16.0025 11.9293 15.7312 12.2006C15.4599 12.4719 15.4599 12.9113 15.7312 13.1825L18.5088 15.9601C18.775 16.2265 19.216 16.2358 19.4912 15.9601L22.2687 13.1825C22.54 12.9113 22.54 12.4719 22.2687 12.2006C21.9974 11.9293 21.5581 11.9293 21.2868 12.2006L19.6944 13.793ZM26.6389 17.5527H11.3611C10.9775 17.5527 10.6666 17.8636 10.6666 18.2471V26.5805C10.6666 26.9643 10.9775 27.2749 11.3611 27.2749H26.6389C27.0224 27.2749 27.3333 26.9643 27.3333 26.5805V18.2471C27.3333 17.8636 27.0224 17.5527 26.6389 17.5527ZM12.0555 18.9416H13.3254C13.1159 19.533 12.6465 20.0022 12.0555 20.2117V18.9416ZM12.0555 25.886V24.6159C12.6465 24.8254 13.1159 25.2948 13.3254 25.886H12.0555ZM25.9444 25.886H24.6745C24.884 25.2946 25.3535 24.8254 25.9444 24.6159V25.886ZM25.9444 23.1784C24.5861 23.4552 23.5136 24.5277 23.2368 25.886H14.7632C14.4863 24.5277 13.4139 23.4552 12.0555 23.1784V21.6492C13.4139 21.3724 14.4863 20.2999 14.7632 18.9416H23.2368C23.5136 20.2999 24.5861 21.3724 25.9444 21.6492V23.1784ZM25.9444 20.2117C25.3535 20.0022 24.884 19.5328 24.6745 18.9416H25.9444V20.2117ZM19 20.3305C17.8511 20.3305 16.9166 21.265 16.9166 22.4138C16.9166 23.5627 17.8511 24.4971 19 24.4971C20.1488 24.4971 21.0833 23.5627 21.0833 22.4138C21.0833 21.265 20.1488 20.3305 19 20.3305ZM19 23.1083C18.6171 23.1083 18.3055 22.7969 18.3055 22.4138C18.3055 22.0307 18.6171 21.7194 19 21.7194C19.3829 21.7194 19.6944 22.0307 19.6944 22.4138C19.6944 22.7969 19.3829 23.1083 19 23.1083Z" fill="white"/>
</svg>
