<svg width="21" height="16" viewBox="0 0 21 16" fill="none" xmlns="http://www.w3.org/2000/svg">
<path d="M3.5 8C3.5 7.44772 3.0523 7 2.5 7C1.9477 7 1.5 7.44772 1.5 8C1.5 8.55228 1.9477 9 2.5 9C3.0523 9 3.5 8.55228 3.5 8Z" stroke="white" stroke-width="2" stroke-linecap="round" stroke-linejoin="round"/>
<path d="M11.5 8C11.5 7.4477 11.0523 7 10.5 7C9.9477 7 9.5 7.4477 9.5 8C9.5 8.5523 9.9477 9 10.5 9C11.0523 9 11.5 8.5523 11.5 8Z" stroke="white" stroke-width="2" stroke-linecap="round" stroke-linejoin="round"/>
<path d="M19.5 8C19.5 7.4477 19.0523 7 18.5 7C17.9477 7 17.5 7.4477 17.5 8C17.5 8.5523 17.9477 9 18.5 9C19.0523 9 19.5 8.5523 19.5 8Z" stroke="white" stroke-width="2" stroke-linecap="round" stroke-linejoin="round"/>
</svg>
