<svg width="18" height="14" viewBox="0 0 18 14" fill="none" xmlns="http://www.w3.org/2000/svg">
<path d="M2.75 0.125C1.625 0.125 0.71875 1.03125 0.71875 2.15625V11.8438C0.71875 12.9688 1.625 13.875 2.75 13.875H15.25C16.3281 13.875 17.2812 13 17.2812 12V2.15625C17.2812 1.03125 16.375 0.125 15.25 0.125H2.75ZM2.75 1.0625H15.25C15.8594 1.0625 16.3438 1.54688 16.3438 2.15625V12C16.3438 12.4375 15.8594 12.9375 15.25 12.9375H2.75C2.14062 12.9375 1.65625 12.4531 1.65625 11.8438V2.15625C1.65625 1.54688 2.14062 1.0625 2.75 1.0625ZM8.95361 2.77484C8.88079 2.77522 8.80774 2.77734 8.7345 2.78125C6.62512 2.90625 4.92181 4.60925 4.79681 6.71863C4.71869 7.8905 5.12506 9.01569 5.93756 9.87506C6.71881 10.7344 7.84375 11.2188 9 11.2188C9.26562 11.2188 9.46875 11.0156 9.46875 10.75C9.46875 10.4844 9.26562 10.2812 9 10.2812C8.07812 10.2812 7.23425 9.90631 6.60925 9.25006C5.98425 8.57819 5.67188 7.703 5.71875 6.79675C5.82812 5.15613 7.14056 3.82806 8.78119 3.73431C9.70306 3.67181 10.5782 3.9845 11.2345 4.62512C11.9064 5.25012 12.2657 6.09369 12.2657 7.01556V7.32806C12.2657 7.67181 11.9844 7.95306 11.6407 7.95306C11.2969 7.95306 11.0157 7.67181 11.0157 7.32806V7.01556C11.0157 5.89056 10.1094 4.98431 8.98444 4.98431C7.85944 4.98431 6.95319 5.89056 6.95319 7.01556C6.95319 8.14056 7.85944 9.04681 8.98444 9.04681C9.57819 9.04681 10.1094 8.78137 10.4844 8.37512C10.7656 8.68762 11.1876 8.89056 11.6407 8.89056C12.5001 8.89056 13.2032 8.18744 13.2032 7.32806V7.01556C13.2188 5.84369 12.7344 4.71887 11.8906 3.922C11.085 3.16028 10.046 2.76923 8.95361 2.77484ZM9 5.90625C9.60938 5.90625 10.0938 6.39062 10.0938 7C10.0938 7.60938 9.60938 8.09375 9 8.09375C8.39062 8.09375 7.90625 7.60938 7.90625 7C7.90625 6.39062 8.39062 5.90625 9 5.90625Z" fill="white"/>
</svg>
