<svg width="36" height="36" viewBox="0 0 36 36" fill="none" xmlns="http://www.w3.org/2000/svg">
<circle cx="18" cy="18" r="18" fill="white"/>
<path fill-rule="evenodd" clip-rule="evenodd" d="M18 32.625C21.8788 32.625 25.5987 31.0842 28.3414 28.3414C31.0842 25.5987 32.625 21.8788 32.625 18C32.625 14.1212 31.0842 10.4013 28.3414 7.65856C25.5987 4.91584 21.8788 3.375 18 3.375C14.1212 3.375 10.4013 4.91584 7.65856 7.65856C4.91584 10.4013 3.375 14.1212 3.375 18C3.375 21.8788 4.91584 25.5987 7.65856 28.3414C10.4013 31.0842 14.1212 32.625 18 32.625ZM18 16.1719C18.3636 16.1719 18.7124 16.3163 18.9695 16.5735C19.2266 16.8306 19.3711 17.1793 19.3711 17.543V23.9414C19.3711 24.305 19.2266 24.6538 18.9695 24.9109C18.7124 25.168 18.3636 25.3125 18 25.3125C17.6364 25.3125 17.2876 25.168 17.0305 24.9109C16.7734 24.6538 16.6289 24.305 16.6289 23.9414V17.543C16.6289 17.1793 16.7734 16.8306 17.0305 16.5735C17.2876 16.3163 17.6364 16.1719 18 16.1719ZM18 10.6875C17.5152 10.6875 17.0502 10.8801 16.7073 11.2229C16.3645 11.5658 16.1719 12.0308 16.1719 12.5156C16.1719 13.0005 16.3645 13.4655 16.7073 13.8083C17.0502 14.1511 17.5152 14.3438 18 14.3438H18.0128C18.4976 14.3438 18.9626 14.1511 19.3055 13.8083C19.6483 13.4655 19.8409 13.0005 19.8409 12.5156C19.8409 12.0308 19.6483 11.5658 19.3055 11.2229C18.9626 10.8801 18.4976 10.6875 18.0128 10.6875H18Z" fill="#BC9239"/>
<path fill-rule="evenodd" clip-rule="evenodd" d="M18 32.625C21.8788 32.625 25.5987 31.0842 28.3414 28.3414C31.0842 25.5987 32.625 21.8788 32.625 18C32.625 14.1212 31.0842 10.4013 28.3414 7.65856C25.5987 4.91584 21.8788 3.375 18 3.375C14.1212 3.375 10.4013 4.91584 7.65856 7.65856C4.91584 10.4013 3.375 14.1212 3.375 18C3.375 21.8788 4.91584 25.5987 7.65856 28.3414C10.4013 31.0842 14.1212 32.625 18 32.625ZM18 16.1719C18.3636 16.1719 18.7124 16.3163 18.9695 16.5735C19.2266 16.8306 19.3711 17.1793 19.3711 17.543V23.9414C19.3711 24.305 19.2266 24.6538 18.9695 24.9109C18.7124 25.168 18.3636 25.3125 18 25.3125C17.6364 25.3125 17.2876 25.168 17.0305 24.9109C16.7734 24.6538 16.6289 24.305 16.6289 23.9414V17.543C16.6289 17.1793 16.7734 16.8306 17.0305 16.5735C17.2876 16.3163 17.6364 16.1719 18 16.1719ZM18 10.6875C17.5152 10.6875 17.0502 10.8801 16.7073 11.2229C16.3645 11.5658 16.1719 12.0308 16.1719 12.5156C16.1719 13.0005 16.3645 13.4655 16.7073 13.8083C17.0502 14.1511 17.5152 14.3438 18 14.3438H18.0128C18.4976 14.3438 18.9626 14.1511 19.3055 13.8083C19.6483 13.4655 19.8409 13.0005 19.8409 12.5156C19.8409 12.0308 19.6483 11.5658 19.3055 11.2229C18.9626 10.8801 18.4976 10.6875 18.0128 10.6875H18Z" fill="url(#paint0_linear_7301_57452)" fill-opacity="0.2"/>
<defs>
<linearGradient id="paint0_linear_7301_57452" x1="18" y1="3.375" x2="15.6004" y2="24.1254" gradientUnits="userSpaceOnUse">
<stop stop-color="white"/>
<stop offset="1" stop-color="white" stop-opacity="0"/>
</linearGradient>
</defs>
</svg>
