<svg width="40" height="40" viewBox="0 0 40 40" fill="none" xmlns="http://www.w3.org/2000/svg">
<rect width="40" height="40" rx="20" fill="#45494F"/>
<g clip-path="url(#clip0_2026_22832)">
<path d="M28.4853 11.5147C26.2187 9.24822 23.2053 8 20 8C16.7946 8 13.7812 9.24822 11.5147 11.5147C9.24822 13.7812 8 16.7947 8 20C8 23.2053 9.24822 26.2187 11.5147 28.4853C13.7812 30.7518 16.7947 32 20 32C23.2054 32 26.2188 30.7518 28.4853 28.4853C30.7518 26.2187 32.0001 23.2053 32.0001 20C32.0001 16.7946 30.7517 13.7812 28.4853 11.5147ZM28.3991 12.6424L26.8751 17.3327L24.4217 18.1585L20.4142 15.2469V12.6313L24.4029 9.73334C25.9443 10.397 27.3074 11.3977 28.3991 12.6424ZM23.8643 18.7775L22.3883 23.3203H17.6118L16.1358 18.7775L20 15.97L23.8643 18.7775ZM20 8.82843C21.2131 8.82843 22.3814 9.02355 23.476 9.38281L20 11.9083L16.524 9.38281C17.6185 9.02355 18.7868 8.82843 20 8.82843ZM15.5971 9.7334L19.5858 12.6313V15.2469L15.5783 18.1586L13.1249 17.3328L11.6009 12.6424C12.6926 11.3977 14.0557 10.397 15.5971 9.7334ZM8.82843 20C8.82843 17.5398 9.62841 15.2633 10.9811 13.4156L12.3084 17.5006L8.82887 20.0286C8.82876 20.0191 8.82843 20.0096 8.82843 20ZM8.87537 21.0188L12.8657 18.1196L15.3191 18.9454L16.851 23.6601L15.3356 25.7162H10.4053C9.5692 24.3181 9.03018 22.7232 8.87537 21.0188ZM10.952 26.5445H15.2439L16.5723 30.6329C14.2922 29.8961 12.3305 28.4452 10.952 26.5445ZM20 31.1716C19.151 31.1716 18.324 31.0759 17.5287 30.8956L16.0046 26.2048L17.52 24.1487H22.4799L23.9954 26.2048L22.4712 30.8956C21.676 31.0759 20.8489 31.1716 20 31.1716ZM23.4276 30.6329L24.756 26.5446H29.048C27.6694 28.4452 25.7078 29.8961 23.4276 30.6329ZM29.5947 25.7161H24.6643L23.1489 23.6601L24.6808 18.9454L27.1342 18.1196L31.1246 21.0188C30.9698 22.7232 30.4308 24.3181 29.5947 25.7161ZM27.6916 17.5006L29.0189 13.4156C30.3716 15.2633 31.1716 17.5398 31.1716 20C31.1716 20.0095 31.1712 20.0191 31.1712 20.0286L27.6916 17.5006Z" fill="white"/>
</g>
<defs>
<clipPath id="clip0_2026_22832">
<rect width="24" height="24" fill="white" transform="translate(8 8)"/>
</clipPath>
</defs>
</svg>
