<svg width="30" height="32" viewBox="0 0 30 32" fill="none" xmlns="http://www.w3.org/2000/svg">
<path fill-rule="evenodd" clip-rule="evenodd" d="M14.8623 24.6563L2.31272 24.6563V24.6563C1.7863 24.6563 1.33508 24.448 0.959061 24.0313C0.583044 23.6146 0.395036 23.1146 0.395036 22.5313V2.125C0.395036 1.54167 0.583044 1.04167 0.959061 0.625001C1.33508 0.208334 1.7863 0 2.31272 0H14.8623V2.96875C13.1702 3.11458 11.5909 3.45833 10.1244 4C8.65798 4.5625 7.38422 5.26563 6.30318 6.10938C5.22213 6.95313 4.37139 7.92709 3.75096 9.03125C3.13054 10.1146 2.82032 11.2708 2.82032 12.5C2.82032 13.7292 3.13054 14.8958 3.75096 16C4.37139 17.0833 5.22213 18.0521 6.30318 18.9063C7.38422 19.7604 8.65798 20.4583 10.1244 21C11.5908 21.5416 13.1699 21.8854 14.8617 22.0312V22.0312C14.8619 22.0313 14.8621 22.0313 14.8623 22.0313V24.6563ZM14.8623 22.0313C15.1253 22.0521 15.3836 22.0677 15.6373 22.0781C15.8911 22.0885 16.1496 22.0937 16.4128 22.0937C17.3152 22.0937 18.1801 22.0312 19.0073 21.9062C19.8533 21.8021 20.6665 21.6406 21.4467 21.4219C22.227 21.2031 22.9649 20.9375 23.6605 20.625C24.3749 20.3125 25.033 19.9583 25.6346 19.5625L25.6346 19.5625C25.6534 19.5417 25.6675 19.5313 25.6769 19.5313H25.7192C25.7944 19.5313 25.8508 19.5521 25.8884 19.5938C25.926 19.6354 25.9448 19.6875 25.9448 19.75V19.7969V19.8438L25.4372 21.3438C25.3056 21.7396 25.3197 22.1354 25.4795 22.5312C25.6393 22.9271 25.8978 23.1979 26.255 23.3438C26.3302 23.3646 26.4101 23.3854 26.4948 23.4063C26.5794 23.4271 26.6593 23.4375 26.7345 23.4375C27.0165 23.4375 27.2797 23.3438 27.5241 23.1563C27.7685 22.9688 27.9377 22.7188 28.0317 22.4062L29.8648 16.9375C29.9964 16.5625 29.9917 16.1927 29.8507 15.8281C29.7097 15.4635 29.4888 15.1979 29.188 15.0312C29.1128 14.9896 29.047 14.9583 28.9906 14.9375C28.9342 14.9167 28.8684 14.8958 28.7932 14.875H28.7367H28.6803H28.6662H28.6521H28.5957H28.5252H28.4547H19.938C19.6371 14.875 19.3833 14.9896 19.1765 15.2188C18.9697 15.4479 18.8663 15.7292 18.8663 16.0625C18.8663 16.3958 18.9697 16.6823 19.1765 16.9219C19.3833 17.1615 19.6371 17.2813 19.938 17.2813H23.2657C23.3221 17.2813 23.3691 17.3021 23.4067 17.3438C23.4443 17.3854 23.4631 17.4375 23.4631 17.5C23.4631 17.5417 23.4537 17.5729 23.4349 17.5938L23.3785 17.6563C22.4761 18.1979 21.4514 18.6198 20.3046 18.9219C19.1577 19.224 17.9451 19.375 16.6666 19.375C16.3658 19.375 16.065 19.3698 15.7642 19.3594C15.4634 19.349 15.1625 19.3229 14.8617 19.2812V22.0312C14.8619 22.0312 14.8621 22.0312 14.8623 22.0313V22.0313ZM16.6678 4.65625C17.965 4.65625 19.1871 4.8125 20.334 5.125C21.4808 5.4375 22.5148 5.86459 23.4361 6.40625L24.0706 6.75C24.4936 6.97917 24.8461 6.875 25.1282 6.4375C25.4478 5.9375 25.4243 5.53646 25.0577 5.23438L24.5077 4.78125C23.3797 4.19792 22.1294 3.73959 20.757 3.40625C19.3845 3.07292 17.9369 2.90625 16.414 2.90625C16.1508 2.90625 15.8876 2.91667 15.6243 2.9375C15.3611 2.95834 15.1073 2.97917 14.8629 3V4.78119C15.1637 4.73953 15.4645 4.70828 15.7654 4.68744C16.0662 4.66661 16.367 4.65619 16.6678 4.65619V4.65625ZM14.8629 4.78125C13.6409 4.92709 12.5034 5.21875 11.4506 5.65625C10.3977 6.09375 9.48588 6.63021 8.71504 7.26563C7.94421 7.90105 7.34258 8.625 6.91016 9.4375C6.45894 10.25 6.23333 11.1146 6.23333 12.0313C6.23333 12.9271 6.45894 13.7813 6.91016 14.5938C7.34258 15.4063 7.94421 16.1354 8.71504 16.7813C9.48588 17.4271 10.3977 17.9688 11.4506 18.4063C12.5034 18.8438 13.6409 19.1354 14.8629 19.2813V4.78125ZM2.1999 30.0625H4.28679C4.09879 30.4792 3.87318 30.7864 3.60996 30.9844C3.34675 31.1823 3.04594 31.2812 2.70752 31.2812C2.50072 31.2812 2.29391 31.2344 2.0871 31.1406C1.88029 31.0469 1.70168 30.9062 1.55127 30.7187C1.40087 30.5521 1.28336 30.3489 1.19876 30.1094C1.11415 29.8698 1.07185 29.6146 1.07185 29.3437C1.07185 29.1146 1.11885 28.8802 1.21286 28.6406C1.30686 28.401 1.42907 28.1979 1.57947 28.0312C1.72988 27.8437 1.90379 27.7083 2.1012 27.625C2.29861 27.5417 2.50071 27.5 2.70752 27.5C2.97073 27.5 3.20575 27.5521 3.41255 27.6562C3.61936 27.7604 3.79797 27.9167 3.94838 28.125H4.76621C4.57821 27.6875 4.31029 27.3489 3.96248 27.1094C3.61466 26.8698 3.21515 26.75 2.76392 26.75C2.42551 26.75 2.11999 26.8125 1.84738 26.9375C1.57477 27.0625 1.32566 27.25 1.10005 27.5C0.874441 27.75 0.700533 28.0312 0.578328 28.3437C0.456122 28.6562 0.39502 28.9896 0.39502 29.3437C0.39502 29.6979 0.446722 30.026 0.550127 30.3281C0.653531 30.6302 0.799238 30.8958 0.987246 31.125C1.21286 31.4167 1.47137 31.6354 1.76278 31.7812C2.05419 31.9271 2.36911 32 2.70752 32C3.34675 32 3.88727 31.7604 4.32909 31.2812C4.77091 30.8021 5.00122 30.1667 5.02002 29.375H2.1999L2.1999 30.0625ZM6.82387 26.875L5.04719 31.9062H5.72402L6.25985 30.4375H8.00833L8.51595 31.9062H9.24918L7.4443 26.875H6.82387ZM7.13434 27.8125L6.48571 29.7187H7.78297L7.13434 27.8125ZM11.7897 30.75L10.4643 26.875H9.47722V31.9063H10.1258L10.0694 27.5312L11.5359 31.9063H12.0153L13.4818 27.5312L13.4536 31.9063H14.074V26.875H13.087L11.7897 30.75ZM17.5554 30.5625C17.734 30.4375 17.8891 30.2604 18.0207 30.0312H19.2333C19.0829 30.6354 18.8056 31.1146 18.4014 31.4688C17.9972 31.8229 17.5225 32 16.9772 32C16.6388 32 16.3286 31.9323 16.0466 31.7969C15.7646 31.6615 15.5108 31.4583 15.2852 31.1875C15.0595 30.9375 14.895 30.6562 14.7916 30.3437C14.6882 30.0312 14.6365 29.6875 14.6365 29.3125C14.6365 28.9792 14.6929 28.6562 14.8057 28.3437C14.9185 28.0312 15.0877 27.75 15.3134 27.5C15.539 27.25 15.7928 27.0625 16.0748 26.9375C16.3568 26.8125 16.6576 26.75 16.9772 26.75C17.5037 26.75 17.9737 26.9323 18.3873 27.2969C18.8009 27.6615 19.0829 28.1562 19.2333 28.7812H18.0489C17.9173 28.5312 17.7622 28.3437 17.5836 28.2187C17.4049 28.0937 17.2028 28.0312 16.9772 28.0312C16.6388 28.0312 16.3521 28.1562 16.1171 28.4062C15.8821 28.6562 15.7646 28.9687 15.7646 29.3437C15.7646 29.7396 15.8868 30.0729 16.1312 30.3437C16.3756 30.6146 16.6482 30.75 16.949 30.75C17.1746 30.75 17.3767 30.6875 17.5554 30.5625ZM20.8687 26.875L19.1202 31.9063H20.3329L20.5867 31.1875H22.0814L22.307 31.9063H23.5196L21.7993 26.875H20.8687ZM21.3194 28.5L20.8682 30.125H21.7706L21.3194 28.5ZM26.9048 28.5625C26.9048 28.25 26.8531 27.974 26.7497 27.7344C26.6463 27.4948 26.4912 27.2917 26.2844 27.125C26.134 27.0208 25.9648 26.9531 25.7768 26.9219C25.5888 26.8906 25.3725 26.875 25.1281 26.875H23.6335V31.9063H24.7333V30.2813L25.6076 31.9063H26.9894L25.8614 30.1875C26.181 30.0833 26.4348 29.8854 26.6228 29.5938C26.8108 29.3021 26.9048 28.9583 26.9048 28.5625ZM24.7333 29.1875L24.9589 29.1875C25.2222 29.1875 25.4243 29.1406 25.5653 29.0469C25.7063 28.9531 25.7768 28.7917 25.7768 28.5625C25.7768 28.3542 25.7157 28.2083 25.5935 28.125C25.4713 28.0417 25.288 28 25.0435 28H24.7333V29.1875ZM29.9498 27.9688V26.875H27.4962V31.9063H29.9498V30.7813H28.5961V29.9063H29.9498V28.7813H28.5961V27.9688H29.9498Z" fill="white"/>
</svg>
