<svg width="108" height="25" viewBox="0 0 108 25" fill="none" xmlns="http://www.w3.org/2000/svg">
<path d="M36.3973 5.99159C32.7912 5.99159 29.9579 8.69613 29.9579 12.5414C29.9579 16.3866 32.7912 19.0727 36.3973 19.0727C39.8745 19.0727 42.3951 16.5154 42.6895 13.3325V12.0446H35.7901V13.4061H40.9048C40.6473 15.945 38.9178 17.5641 36.3973 17.5641C33.6927 17.5641 31.6689 15.6139 31.6689 12.5414C31.6689 9.45046 33.6927 7.50025 36.3973 7.50025C38.2003 7.50025 39.5986 8.36496 40.2977 9.85522H42.3031C41.3464 7.38986 39.1018 5.99159 36.3973 5.99159Z" fill="#C59E43"/>
<path d="M54.4334 18.9623H56.1996L51.5817 6.21237H49.6499L45.0135 18.9623H46.7798L47.8101 16.1106H53.4031L54.4334 18.9623ZM52.9248 14.7491H48.2884L50.6066 8.27297L52.9248 14.7491Z" fill="#C59E43"/>
<path d="M59.1402 18.9623H60.8144V9.45046L65.0644 18.9623H66.2419L70.4735 9.46886V18.9623H72.1477V6.23077H70.3631L65.6532 16.7546L60.9432 6.23077H59.1402V18.9623Z" fill="#C59E43"/>
<path d="M75.907 18.9623H77.5813V6.13878H75.907V18.9623Z" fill="#C59E43"/>
<path d="M89.7626 6.12038V16.313L83.0289 6.12038H81.3546V18.9623H83.0289V8.75133L89.7626 18.9623H91.4368V6.12038H89.7626Z" fill="#C59E43"/>
<path d="M101.025 5.99159C97.4186 5.99159 94.5852 8.69613 94.5852 12.5414C94.5852 16.3866 97.4186 19.0727 101.025 19.0727C104.502 19.0727 107.022 16.5154 107.317 13.3325V12.0446H100.417V13.4061H105.532C105.275 15.945 103.545 17.5641 101.025 17.5641C98.3201 17.5641 96.2963 15.6139 96.2963 12.5414C96.2963 9.45046 98.3201 7.50025 101.025 7.50025C102.828 7.50025 104.226 8.36496 104.925 9.85522H106.93C105.974 7.38986 103.729 5.99159 101.025 5.99159Z" fill="#C59E43"/>
<path fill-rule="evenodd" clip-rule="evenodd" d="M5.80999 11.3086C4.78887 12.8335 5.00264 14.7027 7.03124 15.0527C8.50152 15.305 10.8531 14.7584 14.0847 13.4142C14.2735 13.3358 14.4645 13.2551 14.659 13.1721C11.2772 15.8845 8.13992 17.181 5.24826 17.0617C2.56241 16.9481 -0.19394 15.8095 0.0107399 12.6585C0.50197 5.11681 13.5184 0.0374983 20.0739 0C18.2011 0.646562 16.376 1.42607 14.6135 2.33285C15.9803 2.16013 17.3619 2.14308 18.7309 2.28399C16.7819 2.85442 14.8932 3.61461 13.0909 4.55434C14.4543 4.2214 15.8484 4.03504 17.2504 3.99868C13.5651 5.15545 8.03986 7.98373 5.80885 11.3086H5.80999ZM18.7503 13.6903C19.7669 12.1654 19.5576 10.2961 17.529 9.94614C16.0246 9.68706 13.5992 10.2632 10.2527 11.6756L10.015 11.7767L9.90471 11.8233L10.0059 11.7438C10.0741 11.6892 10.1446 11.6347 10.214 11.5813C10.2754 11.5336 10.3357 11.487 10.3925 11.4415C10.5051 11.3518 10.6177 11.2688 10.7303 11.1859L10.7587 11.1654C13.8152 8.8996 16.6682 7.82351 19.3154 7.93487C21.999 8.0485 24.7553 9.18708 24.5507 12.3392C24.0606 19.8809 11.0441 24.9602 4.48981 25C6.36262 24.3534 8.18768 23.5728 9.9502 22.6672C8.58226 22.8399 7.19953 22.8569 5.82818 22.716C7.77719 22.1444 9.66592 21.3843 11.4682 20.4457C10.1048 20.7786 8.71075 20.965 7.3087 21.0013C10.9941 19.8446 16.5181 17.0197 18.7503 13.6914V13.6903Z" fill="url(#paint0_linear_303_1286)"/>
<defs>
<linearGradient id="paint0_linear_303_1286" x1="-0.107519" y1="0.118176" x2="24.4266" y2="24.6706" gradientUnits="userSpaceOnUse">
<stop offset="0.2" stop-color="#FF3364"/>
<stop offset="0.51" stop-color="#BB34FF"/>
<stop offset="0.81" stop-color="#3586FF"/>
</linearGradient>
</defs>
</svg>
