<svg width="84" height="16" viewBox="0 0 84 16" fill="none" xmlns="http://www.w3.org/2000/svg">
<path fill-rule="evenodd" clip-rule="evenodd" d="M40.9727 15.2982L1.7952 15.2982C1.39377 15.2982 1.06835 14.9726 1.06835 14.5709V7.77818C1.06835 3.85796 4.24449 0.679998 8.16246 0.679998L40.9727 0.679998C41.3742 0.679998 41.6996 1.00561 41.6996 1.40727V14.6C41.6996 15.0017 41.3742 15.3273 40.9727 15.3273V15.2982Z" fill="#35A8E0"/>
<path fill-rule="evenodd" clip-rule="evenodd" d="M1.80246 15.4655H40.98C41.4577 15.4655 41.8449 15.078 41.8449 14.6V1.4C41.8449 0.922023 41.4577 0.534546 40.98 0.534546H8.20606C4.19174 0.534546 0.9375 3.79066 0.9375 7.80727V14.6C0.9375 15.078 1.32476 15.4655 1.80246 15.4655ZM1.26459 7.81455C1.26859 3.98837 4.36754 0.887645 8.19152 0.883637L40.98 0.876364C41.1207 0.876364 41.2557 0.932299 41.3552 1.03186C41.4547 1.13143 41.5106 1.26647 41.5106 1.40727V14.6073C41.5106 14.7481 41.4547 14.8831 41.3552 14.9827C41.2557 15.0822 41.1207 15.1382 40.98 15.1382H1.79519C1.50215 15.1382 1.26459 14.9005 1.26459 14.6073V7.81455Z" fill="white"/>
<path fill-rule="evenodd" clip-rule="evenodd" d="M14.7841 7.47994V12.9272C14.7841 12.9834 14.7385 13.029 14.6823 13.029H12.5454C12.4892 13.029 12.4436 12.9834 12.4436 12.9272C12.4434 12.8938 12.4269 12.8626 12.3993 12.8437C12.3718 12.8249 12.3367 12.8207 12.3055 12.8327C12.0918 12.9008 11.8731 12.9518 11.6514 12.9854C11.3845 13.0277 11.1148 13.0495 10.8445 13.0508C10.1901 13.0401 9.54372 12.9043 8.94019 12.6508C8.30992 12.3995 7.73831 12.0207 7.26115 11.5381C6.78576 11.0692 6.41213 10.5072 6.1636 9.88721C5.92341 9.28069 5.80009 8.63416 5.80017 7.98176C5.8004 7.32702 5.92368 6.67817 6.1636 6.06903C6.41035 5.43786 6.78673 4.86552 7.26842 4.38903C7.74558 3.90643 8.31719 3.52761 8.94746 3.2763C10.1734 2.77899 11.5448 2.77899 12.7707 3.2763C13.3666 3.51497 13.9099 3.86832 14.3698 4.3163C14.3893 4.33545 14.4003 4.36167 14.4003 4.38903C14.4003 4.41639 14.3893 4.44261 14.3698 4.46176L12.8652 5.96721C12.8461 5.98676 12.8199 5.99777 12.7925 5.99777C12.7652 5.99777 12.739 5.98676 12.7198 5.96721C12.4775 5.73863 12.1938 5.55844 11.884 5.4363C11.2216 5.17011 10.4821 5.17011 9.81968 5.4363C9.47865 5.56967 9.1692 5.77279 8.91111 6.03267C8.39578 6.54586 8.10607 7.24336 8.10607 7.97085C8.10607 8.69834 8.39578 9.39584 8.91111 9.90903C9.14299 10.1442 9.41659 10.3341 9.71792 10.469C10.0096 10.6002 10.3221 10.679 10.641 10.7018C10.9587 10.7257 11.2781 10.6962 11.5859 10.6145C11.8797 10.5375 12.1577 10.4095 12.4073 10.2363C12.4357 10.2165 12.4521 10.1837 12.4509 10.149V9.79994C12.4509 9.74371 12.4053 9.69812 12.3491 9.69812H10.5247C10.4685 9.69812 10.423 9.65254 10.423 9.5963V7.47994C10.423 7.42371 10.4685 7.37812 10.5247 7.37812H14.6751C14.7033 7.3761 14.7311 7.38593 14.7518 7.40524C14.7725 7.42456 14.7842 7.45163 14.7841 7.47994Z" fill="white"/>
<path fill-rule="evenodd" clip-rule="evenodd" d="M22.387 11.9237L22.7358 12.971C22.7338 12.9992 22.7437 13.027 22.763 13.0477C22.7823 13.0684 22.8093 13.0801 22.8376 13.0801H25.0618C25.0964 13.0824 25.1299 13.0668 25.1505 13.0389C25.1711 13.0109 25.176 12.9743 25.1635 12.9419L21.9727 3.05096C21.9594 3.00627 21.9175 2.97631 21.8709 2.97824H19.8212C19.7773 2.97955 19.7392 3.00887 19.7267 3.05096L16.3613 12.9419C16.3494 12.9731 16.3535 13.0082 16.3724 13.0357C16.3912 13.0633 16.4224 13.0799 16.4558 13.0801H18.6945C18.7384 13.0787 18.7765 13.0494 18.789 13.0073L19.1525 11.9237C19.165 11.8816 19.2031 11.8523 19.2469 11.851H22.2852C22.3318 11.849 22.3737 11.879 22.387 11.9237ZM21.4784 9.4946H20.1264C20.0883 9.50655 20.0468 9.4951 20.0202 9.46534C19.9936 9.43557 19.9868 9.39298 20.0029 9.35642L20.7297 7.3346C20.7419 7.29039 20.782 7.25975 20.8279 7.25975C20.8737 7.25975 20.9138 7.29039 20.926 7.3346L21.5801 9.35642C21.5926 9.38886 21.5877 9.42543 21.5671 9.45341C21.5465 9.48139 21.5131 9.49692 21.4784 9.4946Z" fill="white"/>
<path fill-rule="evenodd" clip-rule="evenodd" d="M34.0821 2.92725H36.3063C36.3598 2.92711 36.4043 2.96842 36.4081 3.02179L36.9896 12.9272C36.9916 12.9555 36.9818 12.9833 36.9625 13.004C36.9432 13.0247 36.9161 13.0364 36.8878 13.0363H34.7654C34.7119 13.0365 34.6674 12.9952 34.6636 12.9418L34.4528 9.43634C34.4528 9.3801 34.4073 9.33452 34.3511 9.33452C34.2949 9.33452 34.2493 9.3801 34.2493 9.43634L33.0573 12.9709C33.0448 13.013 33.0067 13.0423 32.9628 13.0436H30.7822C30.7383 13.0423 30.7003 13.013 30.6877 12.9709L29.3794 9.2327C29.3794 9.17647 29.3338 9.13088 29.2776 9.13088C29.2214 9.13088 29.1759 9.17647 29.1759 9.2327L28.9433 12.9127C28.9395 12.9661 28.895 13.0074 28.8415 13.0072H26.7046C26.6763 13.0073 26.6492 12.9956 26.6299 12.9749C26.6106 12.9542 26.6008 12.9264 26.6028 12.8982L27.2424 3.02906C27.2463 2.97569 27.2907 2.93438 27.3442 2.93452H29.5684C29.6122 2.93583 29.6503 2.96515 29.6629 3.00725L31.7562 8.98543C31.7683 9.02964 31.8085 9.06028 31.8543 9.06028C31.9002 9.06028 31.9403 9.02964 31.9525 8.98543L33.9877 3.00725C33.9975 2.96227 34.0362 2.92948 34.0821 2.92725Z" fill="white"/>
<path fill-rule="evenodd" clip-rule="evenodd" d="M43.2914 0.709107H82.4835C82.8849 0.709107 83.2104 1.03472 83.2104 1.43638V8.22911C83.2104 12.1493 80.0342 15.3273 76.1162 15.3273H43.2914C42.89 15.3273 42.5646 15.0017 42.5646 14.6V1.40729C42.5802 1.01703 42.9011 0.708794 43.2914 0.709107Z" fill="#1C1F22"/>
<path fill-rule="evenodd" clip-rule="evenodd" d="M43.2913 15.4655H76.0871C80.0957 15.4615 83.3444 12.211 83.3484 8.20005V1.40732C83.3484 0.929347 82.9611 0.54187 82.4834 0.54187H43.2913C42.8136 0.54187 42.4264 0.929347 42.4264 1.40732V14.6001C42.4264 15.078 42.8136 15.4655 43.2913 15.4655ZM42.7607 1.4146C42.7607 1.12138 42.9983 0.883688 43.2913 0.883688L82.4834 0.876416C82.7765 0.876416 83.014 1.11411 83.014 1.40732V8.20005C83.01 12.0262 79.9111 15.127 76.0871 15.131H43.2913C42.9983 15.131 42.7607 14.8933 42.7607 14.6001V1.4146Z" fill="white"/>
<path fill-rule="evenodd" clip-rule="evenodd" d="M49.0481 13.0436C48.7263 13.043 48.406 12.9989 48.096 12.9127C47.7764 12.824 47.4725 12.6866 47.1947 12.5055C46.71 12.196 46.3122 11.768 46.039 11.2618C45.7786 10.781 45.6366 10.2449 45.6246 9.69818C45.6226 9.66994 45.6325 9.64213 45.6518 9.62143C45.6711 9.60073 45.6981 9.58901 45.7264 9.58909H47.8852C47.9414 9.58909 47.9869 9.63467 47.9869 9.69091C47.9883 9.88399 48.0493 10.0719 48.1614 10.2291C48.249 10.3511 48.3573 10.4569 48.4812 10.5418C48.6401 10.6512 48.8264 10.7141 49.0191 10.7236C49.2141 10.7334 49.4085 10.696 49.586 10.6145C49.7031 10.5688 49.8094 10.4995 49.8986 10.4109C49.9696 10.3394 50.0307 10.2587 50.0803 10.1709C50.1179 10.1007 50.1425 10.0244 50.153 9.94545C50.1712 9.82737 50.1712 9.70717 50.153 9.58909C50.142 9.50797 50.1174 9.42929 50.0803 9.35636C50.033 9.26709 49.9717 9.18605 49.8986 9.11636C49.8063 9.02982 49.7008 8.95861 49.586 8.90545L49.2662 8.78181L48.9028 8.65818L48.1759 8.4109C47.9216 8.3124 47.6781 8.18811 47.4491 8.04C47.1343 7.85116 46.858 7.60439 46.635 7.31272C46.1979 6.72028 45.9936 5.98784 46.0608 5.25454C46.0937 4.88108 46.1999 4.51778 46.3733 4.18545C46.5316 3.88083 46.7405 3.60538 46.9911 3.3709C47.2326 3.14451 47.5102 2.96015 47.8125 2.82545C48.1214 2.69123 48.4506 2.61009 48.7865 2.58545C49.143 2.55779 49.5016 2.58974 49.8477 2.68C50.1823 2.75731 50.5017 2.89005 50.7926 3.07272C51.0684 3.2476 51.3139 3.46621 51.5194 3.72C51.7081 3.96333 51.8554 4.23606 51.9556 4.52727C52.0532 4.80828 52.1071 5.10262 52.1155 5.4C52.1175 5.42824 52.1077 5.45604 52.0884 5.47674C52.0691 5.49744 52.042 5.50916 52.0137 5.50909H49.9058C49.8548 5.50961 49.8113 5.4723 49.8041 5.42181C49.799 5.28051 49.7259 5.1504 49.6078 5.07272C49.5014 5.00477 49.3865 4.95099 49.2662 4.91272H49.1499C49.073 4.89913 48.9942 4.89913 48.9173 4.91272C48.8229 4.92846 48.7319 4.96045 48.6484 5.00727C48.5527 5.06293 48.4766 5.14673 48.4303 5.24727C48.3574 5.38869 48.3418 5.5528 48.3867 5.70545C48.429 5.86128 48.5274 5.99598 48.6629 6.08363C48.8005 6.16016 48.9439 6.22581 49.0918 6.28L49.586 6.45454L50.0585 6.60727C50.2184 6.6606 50.3807 6.72363 50.5455 6.79636C51.7145 7.31026 52.472 8.46421 52.4789 9.74181C52.4833 10.372 52.3012 10.9895 51.9556 11.5164C51.4588 12.2635 50.6889 12.7858 49.8113 12.9709C49.5601 13.0214 49.3044 13.0457 49.0481 13.0436Z" fill="white"/>
<path fill-rule="evenodd" clip-rule="evenodd" d="M79.7941 8.82546C80.0096 8.30962 80.1184 7.75544 80.1139 7.19637C80.1161 6.6368 80.0048 6.0826 79.7868 5.56728C79.5768 5.06828 79.2733 4.61406 78.8928 4.2291C78.5101 3.84188 78.0591 3.52875 77.5627 3.30546C77.0529 3.07556 76.5009 2.9542 75.9418 2.9491H73.7321C73.6759 2.9491 73.6304 2.99468 73.6304 3.05091V12.9418C73.6304 12.9981 73.6759 13.0436 73.7321 13.0436H75.8473C75.9035 13.0436 75.949 12.9981 75.949 12.9418V11.5309C75.949 11.4747 75.9946 11.4291 76.0508 11.4291C76.5749 11.4116 77.0907 11.293 77.5699 11.08C78.067 10.861 78.5182 10.5501 78.9001 10.1636C79.2806 9.77868 79.5841 9.32446 79.7941 8.82546ZM75.9741 9.08925C75.9534 9.06993 75.9417 9.04286 75.9418 9.01455V5.37819C75.9493 5.3248 75.9971 5.28654 76.0508 5.29091C76.2625 5.3105 76.4692 5.36712 76.6614 5.45819C76.8786 5.56005 77.0756 5.70051 77.2428 5.87273C77.4105 6.04737 77.5437 6.25219 77.6353 6.47637C77.8252 6.94261 77.8252 7.46468 77.6353 7.93091C77.5439 8.15518 77.4107 8.36002 77.2428 8.53455C77.0756 8.70677 76.8786 8.84723 76.6614 8.9491C76.4692 9.04031 76.2626 9.09693 76.0508 9.11637C76.0226 9.11839 75.9948 9.10856 75.9741 9.08925Z" fill="white"/>
<path fill-rule="evenodd" clip-rule="evenodd" d="M68.3897 3.34185C67.7702 3.07431 67.102 2.93811 66.4272 2.94185C65.752 2.94041 65.0837 3.07909 64.4647 3.34912C63.2585 3.86203 62.2992 4.8245 61.7899 6.03276C61.2629 7.29127 61.2629 8.70878 61.7899 9.9673C62.2992 11.1756 63.2585 12.138 64.4647 12.6509C65.7192 13.182 67.1352 13.182 68.3897 12.6509C68.9897 12.3896 69.5347 12.017 69.9961 11.5528C70.4559 11.0935 70.8235 10.5504 71.0791 9.95275C71.6102 8.69507 71.6102 7.2759 71.0791 6.01821C70.8235 5.42058 70.4559 4.87747 69.9961 4.41821C69.5327 3.96192 68.9878 3.5968 68.3897 3.34185ZM66.4309 10.7164C66.7941 10.7195 67.1541 10.6477 67.4884 10.5055C68.1433 10.2278 68.6646 9.70618 68.9421 9.05094C69.226 8.37408 69.226 7.61143 68.9421 6.93457C68.6646 6.27933 68.1433 5.75773 67.4884 5.48003C66.812 5.19598 66.0498 5.19598 65.3733 5.48003C64.7184 5.75773 64.1971 6.27933 63.9196 6.93457C63.6357 7.61143 63.6357 8.37408 63.9196 9.05094C64.1971 9.70618 64.7184 10.2278 65.3733 10.5055C65.7076 10.6477 66.0676 10.7195 66.4309 10.7164Z" fill="white"/>
<rect x="56.0404" y="5.16003" width="2.34048" height="7.88364" rx="0.14" fill="white"/>
<rect x="54.1143" y="2.94177" width="6.18554" height="2.34182" rx="0.14" fill="white"/>
</svg>
