<svg width="40" height="40" viewBox="0 0 40 40" fill="none" xmlns="http://www.w3.org/2000/svg">
<rect width="40" height="40" rx="20" fill="#45494F"/>
<g clip-path="url(#clip0_1985_22862)">
<path d="M17.9327 24.2109C18.1453 24.2109 18.3177 24.0385 18.3177 23.826C18.3177 23.6134 18.1453 23.441 17.9327 23.441C17.7202 23.441 17.5478 23.6134 17.5478 23.826C17.5478 24.0385 17.7202 24.2109 17.9327 24.2109Z" fill="white"/>
<path d="M16.2288 23.359C16.4414 23.359 16.6137 23.1866 16.6137 22.974C16.6137 22.7614 16.4414 22.5891 16.2288 22.5891C16.0162 22.5891 15.8439 22.7614 15.8439 22.974C15.8439 23.1866 16.0162 23.359 16.2288 23.359Z" fill="white"/>
<path d="M16.2288 25.0629C16.4414 25.0629 16.6137 24.8906 16.6137 24.678C16.6137 24.4654 16.4414 24.2931 16.2288 24.2931C16.0162 24.2931 15.8439 24.4654 15.8439 24.678C15.8439 24.8906 16.0162 25.0629 16.2288 25.0629Z" fill="white"/>
<path d="M19.6315 23.359C19.8441 23.359 20.0164 23.1866 20.0164 22.974C20.0164 22.7614 19.8441 22.5891 19.6315 22.5891C19.4189 22.5891 19.2466 22.7614 19.2466 22.974C19.2466 23.1866 19.4189 23.359 19.6315 23.359Z" fill="white"/>
<path d="M19.6315 25.0629C19.8441 25.0629 20.0164 24.8906 20.0164 24.678C20.0164 24.4654 19.8441 24.2931 19.6315 24.2931C19.4189 24.2931 19.2466 24.4654 19.2466 24.678C19.2466 24.8906 19.4189 25.0629 19.6315 25.0629Z" fill="white"/>
<path d="M17.9122 25.9149C18.1248 25.9149 18.2971 25.7425 18.2971 25.5299C18.2971 25.3174 18.1248 25.145 17.9122 25.145C17.6996 25.145 17.5273 25.3174 17.5273 25.5299C17.5273 25.7425 17.6996 25.9149 17.9122 25.9149Z" fill="white"/>
<path d="M17.9122 22.5019C18.1248 22.5019 18.2971 22.3296 18.2971 22.117C18.2971 21.9044 18.1248 21.7321 17.9122 21.7321C17.6996 21.7321 17.5273 21.9044 17.5273 22.117C17.5273 22.3296 17.6996 22.5019 17.9122 22.5019Z" fill="white"/>
<path d="M29.3619 8.55249L22.8388 17.5853C22.4539 18.1293 21.7559 18.3295 21.176 18.0728L11.2245 14.198L11.1886 14.1928C11.0038 14.1569 10.9166 14.1518 10.7524 14.1518C9.92093 14.1518 9.16136 14.6394 8.82263 15.3938L8.7867 15.4656L8.74565 15.5478C7.91935 17.5288 7.78591 19.5355 8.31454 22.0503C8.37612 22.348 8.58141 22.6252 8.88935 22.8356C9.48982 23.2462 9.95686 23.4463 10.6138 23.5798L14.1191 24.211C14.2423 25.4684 14.9557 26.5308 15.9975 27.121C16.3209 27.6548 16.7007 28.3887 16.8033 28.5888L17.2601 31.4475H18.6047L19.0615 28.5888C19.1641 28.3887 19.5439 27.6548 19.8673 27.121C21.0118 26.4692 21.7611 25.2529 21.7611 23.8312C21.7611 23.667 21.7508 23.5079 21.7303 23.3488L23.0801 22.9536L23.1006 22.9434C24.0347 22.5379 24.5735 21.8091 24.5735 20.952V20.8597C24.9893 20.8443 25.4358 20.5569 25.6308 20.1771L31.9999 8.55249H29.3619V8.55249ZM18.343 28.2912L18.3173 28.3425L17.9478 30.6725H17.917L17.5475 28.3476L17.5218 28.2963C17.5064 28.2706 17.3422 27.9422 17.1266 27.547C17.3884 27.5983 17.6553 27.6291 17.9324 27.6291C18.2095 27.6291 18.4815 27.5983 18.7382 27.547C18.5226 27.937 18.3584 28.2655 18.343 28.2912ZM20.9707 24.2213C20.868 24.9809 20.4934 25.6532 19.9391 26.1254C19.8673 26.0484 19.7697 25.9971 19.6517 25.9971C19.4413 25.9971 19.2668 26.1715 19.2668 26.382C19.2668 26.4384 19.277 26.4897 19.3027 26.5411C18.8921 26.7412 18.4302 26.8541 17.9324 26.8541C17.45 26.8541 16.9983 26.7464 16.5929 26.5616C16.6185 26.5103 16.6339 26.4487 16.6339 26.3871C16.6339 26.1767 16.4594 26.0022 16.249 26.0022C16.1258 26.0022 16.0181 26.0586 15.9462 26.151C15.3765 25.6789 14.9916 24.9963 14.8941 24.2162C15.0943 24.2059 15.2534 24.0365 15.2534 23.8312C15.2534 23.6259 15.0943 23.4617 14.8941 23.4463C14.9865 22.6765 15.3663 22.0042 15.9205 21.532C15.9873 21.6398 16.1104 21.7167 16.249 21.7167C16.4594 21.7167 16.6339 21.5422 16.6339 21.3318C16.6339 21.2497 16.6083 21.1779 16.5672 21.1111C16.9778 20.9161 17.4397 20.8032 17.9324 20.8032C18.4405 20.8032 18.9127 20.9212 19.3284 21.1265C19.2924 21.1881 19.2719 21.2548 19.2719 21.3318C19.2719 21.5422 19.4464 21.7167 19.6568 21.7167C19.7851 21.7167 19.8981 21.6552 19.9699 21.5576C20.5139 22.0298 20.8783 22.6919 20.9707 23.4514C20.7705 23.4617 20.6114 23.6311 20.6114 23.8364C20.6114 24.0417 20.7705 24.2059 20.9707 24.2213ZM24.9533 19.8075L24.9482 19.8178C24.8712 19.9666 24.6608 20.0847 24.5325 20.0847H23.8037V20.9469C23.8037 21.6346 23.2699 22.0195 22.8183 22.2197L21.5609 22.5892C21.0528 21.0855 19.6414 20.0282 17.9324 20.0282C15.9205 20.0282 14.3193 21.4909 14.1243 23.4258L10.7575 22.8202C10.1621 22.6867 9.82855 22.5482 9.32046 22.1992C9.18189 22.1068 9.08437 21.9888 9.06898 21.8912C8.57628 19.5458 8.69432 17.6931 9.45903 15.8608L9.50522 15.7582L9.52575 15.712C9.7413 15.2296 10.2289 14.9165 10.7575 14.9165C10.8601 14.9165 10.9012 14.9165 11.009 14.937L20.8732 18.776C21.7867 19.1814 22.8799 18.8683 23.4701 18.0318L29.7571 9.32233H30.7015L24.9533 19.8075Z" fill="white"/>
</g>
<defs>
<clipPath id="clip0_1985_22862">
<rect width="24" height="24" fill="white" transform="translate(8 8)"/>
</clipPath>
</defs>
</svg>
