<svg width="40" height="40" viewBox="0 0 40 40" fill="none" xmlns="http://www.w3.org/2000/svg">
<rect width="40" height="40" rx="20" fill="#45494F"/>
<g clip-path="url(#clip0_2026_22831)">
<path d="M31.98 12.6786C31.9437 12.5732 31.8615 12.4899 31.7565 12.4522L29.9734 11.8121L29.6738 11.2794C29.5744 11.1028 29.4036 10.9777 29.2052 10.9364L27.4942 10.5799C27.0457 10.4865 26.593 10.6732 26.3408 11.0555L23.8421 14.8425C23.6658 15.1098 23.3829 15.2918 23.0661 15.3418C21.8601 15.532 19.5127 15.8435 17.3448 15.7922C16.3021 15.7676 15.2881 15.9238 14.3297 16.2565C14.0316 16.36 13.7524 16.4756 13.4923 16.6026C13.0091 16.5745 10.1656 16.4907 9.73773 18.3624C9.33863 20.1086 10.5945 21.8794 10.808 22.1641C10.8075 22.1828 10.8069 22.2019 10.8064 22.2201C10.7762 23.2988 10.7716 23.4646 10.0204 23.9049C8.57352 24.7532 8.20497 25.2301 8.16771 25.2817C8.12446 25.3416 8.10024 25.4131 8.09823 25.4869L8.00017 29.0661C7.99743 29.1653 8.03493 29.2614 8.10421 29.3326C8.17349 29.4038 8.26851 29.4439 8.36775 29.4439H9.91218C10.0304 29.4439 10.1414 29.3871 10.2105 29.2912C10.2796 29.1953 10.2984 29.072 10.261 28.9599L10.223 28.846C10.1177 28.5302 9.88914 28.2741 9.59731 28.1308C9.62987 27.378 9.85437 25.9712 10.66 25.5832C11.0363 25.4021 11.5216 25.1458 12.0288 24.819C12.1078 25.1858 12.1224 25.5278 12.0706 25.8385C12.0372 26.0389 12.1725 26.2283 12.3729 26.2617C12.3933 26.2651 12.4137 26.2668 12.4338 26.2668C12.6103 26.2668 12.7661 26.1393 12.7961 25.9594C12.8774 25.4712 12.8363 24.9367 12.6742 24.3693C12.7805 24.2889 12.8861 24.2057 12.9904 24.1195C13.9136 23.3551 14.514 22.5351 14.7745 21.6821C14.8436 21.4562 15.0297 20.917 15.0625 20.8543C15.2162 20.561 15.4717 20.3329 15.7869 20.2138C16.1262 20.0855 16.5098 20.0992 16.8391 20.2512L20.4651 21.9247C21.3736 22.344 22.3733 22.5706 23.3742 22.5871C23.8326 24.7401 23.6048 26.3717 23.4952 26.9363C23.4399 27.2208 23.4804 27.5193 23.6092 27.7769L24.2921 29.1426C24.3544 29.2672 24.4817 29.3459 24.621 29.3459H26.0919C26.2236 29.3459 26.3452 29.2755 26.4107 29.1613C26.4763 29.0471 26.4759 28.9066 26.4095 28.7928L26.2655 28.5459C26.1257 28.3063 25.9031 28.1251 25.6451 28.0335L25.4333 27.3632L25.732 22.3277C25.7513 22.0023 25.8517 21.6908 26.0221 21.4271C26.3963 20.8481 26.8355 19.841 26.8027 18.3307C26.7639 16.5458 27.9487 14.5301 28.3222 13.9405L30.304 14.0553C30.8801 14.0889 31.4306 13.8061 31.7391 13.3177L31.9431 12.9947C32.0028 12.9003 32.0163 12.7841 31.98 12.6786ZM10.4546 18.5264C10.6252 17.7802 11.5132 17.4948 12.2865 17.3897C11.5821 18.0069 11.1517 18.7704 11.0194 19.6572C10.9518 20.1103 10.9072 20.5089 10.8768 20.8622C10.5637 20.2327 10.2651 19.3554 10.4546 18.5264ZM30.3466 13.3211L28.1522 13.1939C27.9552 13.1825 27.7702 13.0887 27.6445 12.9365L27.2766 12.4911C27.1472 12.3346 26.9155 12.3125 26.7589 12.4419C26.6024 12.5712 26.5802 12.803 26.7096 12.9596L27.0775 13.4049C27.2089 13.564 27.3725 13.6914 27.5546 13.7811C27.0487 14.6189 26.0282 16.5397 26.0675 18.3466C26.0978 19.7403 25.6652 20.6247 25.4046 21.0278C25.1654 21.3979 25.0248 21.8323 24.998 22.2841L24.6953 27.3873C24.6927 27.4321 24.6982 27.477 24.7117 27.5198L25.0059 28.4514C25.0255 28.5135 25.0607 28.5679 25.1066 28.6104H24.8484L24.2671 27.4479C24.2104 27.3346 24.1927 27.2026 24.2173 27.0764C24.4239 26.0118 24.7377 23.1582 23.1924 19.6609C23.1103 19.4752 22.8932 19.3913 22.7074 19.4732C22.5216 19.5553 22.4376 19.7724 22.5197 19.9582C22.809 20.613 23.0284 21.2454 23.1934 21.8457C22.3593 21.8068 21.531 21.6066 20.7733 21.257L17.1473 19.5834C16.6401 19.3493 16.0495 19.3283 15.5269 19.5258H15.5269C15.6558 19.2062 15.734 19.0391 15.7359 19.0353C15.8227 18.8518 15.7444 18.6327 15.5609 18.5458C15.3774 18.4588 15.1581 18.5371 15.0712 18.7207C15.0527 18.7597 14.6122 19.6968 14.0712 21.4672C13.8927 22.0515 13.1719 23.5576 10.341 24.9206C8.82191 25.652 8.85589 28.2853 8.85809 28.397C8.86069 28.5288 8.93291 28.6456 9.0422 28.7085H8.74567L8.82965 25.6431C8.98174 25.4919 9.41061 25.115 10.3923 24.5396C11.4953 23.893 11.5098 23.3753 11.5415 22.2409C11.5575 21.6696 11.5794 20.8872 11.7468 19.7659C11.9383 18.4826 12.8885 17.5357 14.5709 16.9515C15.446 16.6477 16.3733 16.5051 17.3274 16.5277C19.5537 16.5805 21.9503 16.2626 23.1808 16.0685C23.7013 15.9864 24.1661 15.6872 24.456 15.2478L26.9547 11.4608C27.0342 11.3402 27.1729 11.2783 27.3142 11.2962L27.2441 11.3719C27.1061 11.5209 27.115 11.7536 27.264 11.8916C27.3347 11.9572 27.4243 11.9896 27.5138 11.9896C27.6126 11.9896 27.7112 11.95 27.7836 11.8718L28.1563 11.4694L29.0404 11.6536L29.1418 11.834C28.9976 11.899 28.9066 12.0528 28.9286 12.2177C28.9532 12.4025 29.1111 12.5369 29.2926 12.5369C29.3088 12.5369 29.3252 12.5358 29.3416 12.5336L29.6801 12.4885L31.0733 12.9886C30.9023 13.2114 30.6303 13.3375 30.3466 13.3211Z" fill="white"/>
</g>
<defs>
<clipPath id="clip0_2026_22831">
<rect width="24" height="24" fill="white" transform="translate(8 8)"/>
</clipPath>
</defs>
</svg>
