<svg width="273" height="38" viewBox="0 0 273 38" fill="none" xmlns="http://www.w3.org/2000/svg">
<path d="M166.471 9.37598C161.055 9.37598 156.799 13.4385 156.799 19.2144C156.799 24.9904 161.055 29.0252 166.471 29.0252C171.695 29.0252 175.481 25.1838 175.923 20.4028V18.4682H165.559V20.5133H173.242C172.855 24.3271 170.258 26.7591 166.471 26.7591C162.409 26.7591 159.369 23.8296 159.369 19.2144C159.369 14.5716 162.409 11.6421 166.471 11.6421C169.18 11.6421 171.28 12.941 172.33 15.1796H175.343C173.906 11.4763 170.534 9.37598 166.471 9.37598Z" fill="#C59E43"/>
<path d="M193.564 28.8594H196.217L189.28 9.70761H186.378L179.414 28.8594H182.067L183.615 24.5758H192.016L193.564 28.8594ZM191.297 22.5307H184.333L187.815 12.8028L191.297 22.5307Z" fill="#C59E43"/>
<path d="M200.634 28.8594H203.149V14.5716L209.533 28.8594H211.301L217.658 14.5992V28.8594H220.172V9.73525H217.492L210.417 25.5431L203.342 9.73525H200.634V28.8594Z" fill="#C59E43"/>
<path d="M225.819 28.8594H228.334V9.59707H225.819V28.8594Z" fill="#C59E43"/>
<path d="M246.632 9.56943V24.8798L236.517 9.56943H234.002V28.8594H236.517V13.5214L246.632 28.8594H249.147V9.56943H246.632Z" fill="#C59E43"/>
<path d="M263.549 9.37598C258.132 9.37598 253.876 13.4385 253.876 19.2144C253.876 24.9904 258.132 29.0252 263.549 29.0252C268.772 29.0252 272.558 25.1838 273 20.4028V18.4682H262.637V20.5133H270.319C269.932 24.3271 267.335 26.7591 263.549 26.7591C259.486 26.7591 256.446 23.8296 256.446 19.2144C256.446 14.5716 259.486 11.6421 263.549 11.6421C266.257 11.6421 268.357 12.941 269.407 15.1796H272.42C270.983 11.4763 267.611 9.37598 263.549 9.37598Z" fill="#C59E43"/>
<path fill-rule="evenodd" clip-rule="evenodd" d="M8.72721 16.9867C7.19338 19.2773 7.5145 22.0851 10.5617 22.6108C12.7702 22.9897 16.3024 22.1687 21.1567 20.1495C21.4403 20.0317 21.7272 19.9105 22.0193 19.7859C16.9395 23.8602 12.227 25.8077 7.88344 25.6285C3.84901 25.4578 -0.291318 23.7475 0.0161324 19.0144C0.754012 7.68599 20.3061 0.0563264 30.1531 0C27.3399 0.971203 24.5985 2.14211 21.951 3.50418C24.0041 3.24474 26.0794 3.21914 28.1359 3.43079C25.2082 4.28763 22.3712 5.42952 19.6639 6.8411C21.7119 6.34099 23.8059 6.06106 25.912 6.00644C20.3762 7.74402 12.0767 11.9924 8.72551 16.9867H8.72721ZM28.1649 20.5643C29.6919 18.2736 29.3776 15.4659 26.3304 14.9401C24.0707 14.551 20.4274 15.4164 15.4006 17.538L15.0436 17.6899L14.8779 17.7599L15.0299 17.6404C15.1324 17.5585 15.2383 17.4765 15.3425 17.3963C15.4347 17.3246 15.5253 17.2546 15.6107 17.1864C15.7798 17.0515 15.9489 16.9269 16.118 16.8023L16.1607 16.7716C20.7519 13.3681 25.0374 11.7517 29.0138 11.919C33.0448 12.0897 37.1851 13.8 36.8777 18.5348C36.1415 29.8632 16.5894 37.4929 6.74416 37.5526C9.55733 36.5814 12.2988 35.4088 14.9462 34.0484C12.8915 34.3079 10.8145 34.3335 8.75454 34.1218C11.6822 33.2633 14.5192 32.1214 17.2265 30.7115C15.1785 31.2116 13.0845 31.4916 10.9784 31.5462C16.5142 29.8086 24.812 25.5653 28.1649 20.566V20.5643Z" fill="url(#paint0_linear_2_1008)"/>
<path d="M59.1965 22.0346C59.1965 21.0685 58.8503 20.3141 58.1579 19.7748C57.4775 19.2354 56.2753 18.6756 54.5494 18.0987C52.8235 17.5218 51.4128 16.962 50.3174 16.4227C46.7519 14.6783 44.971 12.2803 44.971 9.22857C44.971 7.70954 45.4119 6.37313 46.2938 5.21763C47.1877 4.05019 48.4485 3.1456 50.0728 2.50556C51.697 1.85357 53.5245 1.52586 55.5518 1.52586C57.5791 1.52586 59.2981 1.87746 60.8604 2.58066C62.4347 3.28385 63.6559 4.28744 64.5257 5.59313C65.3938 6.88687 65.8296 8.36835 65.8296 10.0376H59.2172C59.2172 8.91964 58.871 8.05431 58.1785 7.43816C57.4982 6.82372 56.5732 6.51479 55.402 6.51479C54.2307 6.51479 53.28 6.77763 52.5875 7.30503C51.9072 7.82048 51.5679 8.47929 51.5679 9.28148C51.5679 9.98468 51.9451 10.6247 52.7012 11.2016C53.4574 11.7666 54.7854 12.3571 56.6869 12.9715C58.5885 13.574 60.1507 14.2277 61.3719 14.9292C64.3448 16.636 65.8313 18.9897 65.8313 21.9902C65.8313 24.3882 64.9236 26.2708 63.1099 27.6396C61.2961 29.0085 58.8089 29.6929 55.6466 29.6929C53.4177 29.6929 51.3956 29.2969 49.5819 28.5067C47.7802 27.7028 46.4212 26.6104 45.5015 25.2297C44.5955 23.8369 44.1407 22.236 44.1407 20.4285H50.791C50.791 21.898 51.1683 22.9835 51.9244 23.6867C52.6926 24.378 53.9328 24.7227 55.6466 24.7227C56.742 24.7227 57.605 24.4906 58.2354 24.0264C58.8778 23.5485 59.1999 22.8845 59.1999 22.0311L59.1965 22.0346Z" fill="white"/>
<path d="M85.82 20.961L87.8783 8.94695H93.9809L89.1633 29.3225H83.779L80.3961 17.2334L76.9943 29.3225H71.61L66.7924 8.94695H72.8949L74.9171 21.2443L78.1673 8.94695H82.6077L85.82 20.961Z" fill="white"/>
<path d="M102.219 29.3225H95.8342V8.94696H102.219V29.3225ZM95.4553 3.69348C95.4553 2.78888 95.7826 2.04814 96.4388 1.47125C97.0933 0.894355 97.9442 0.604202 98.9897 0.604202C100.035 0.604202 100.886 0.892649 101.541 1.47125C102.195 2.04814 102.522 2.78888 102.522 3.69348C102.522 4.59807 102.195 5.33882 101.541 5.91571C100.886 6.4926 100.035 6.78275 98.9897 6.78275C97.9442 6.78275 97.0933 6.49431 96.4388 5.91571C95.7843 5.33882 95.4553 4.59807 95.4553 3.69348Z" fill="white"/>
<path d="M106.792 29.3225V13.3522H103.826V8.94525H106.792V7.32551C106.792 5.00258 107.478 3.20192 108.851 1.92013C110.223 0.640043 112.151 0 114.633 0C115.541 0 116.534 0.131422 117.618 0.395974L117.637 5.06573C117.246 4.95308 116.724 4.89676 116.069 4.89676C114.142 4.89676 113.179 5.72455 113.179 7.38183V8.94525H117.165V13.3522H113.179V29.3208H106.792V29.3225Z" fill="white"/>
<path d="M126.047 3.88122V8.94695H129.41V13.3539H126.047V22.6746C126.047 23.4409 126.185 23.9735 126.462 24.2756C126.74 24.5777 127.288 24.7279 128.106 24.7279C128.736 24.7279 129.265 24.6903 129.692 24.6152V29.1536C128.547 29.5171 127.35 29.6997 126.102 29.6997C123.91 29.6997 122.292 29.1843 121.247 28.1551C120.201 27.1259 119.678 25.5625 119.678 23.4666V13.3539H117.072V8.94695H119.678V3.88122H126.047Z" fill="white"/>
<path d="M139.331 20.4336L142.731 8.94695H149.552L141.219 32.731L140.86 33.598C139.675 36.235 137.586 37.5526 134.587 37.5526C133.755 37.5526 132.88 37.4263 131.96 37.1754V32.6371H132.792C133.686 32.6371 134.367 32.5057 134.833 32.2411C135.312 31.9902 135.665 31.5311 135.891 30.8672L136.401 29.512L129.298 8.94866H136.099L139.331 20.4353V20.4336Z" fill="white"/>
<defs>
<linearGradient id="paint0_linear_2_1008" x1="-0.161504" y1="0.177512" x2="36.6913" y2="37.0578" gradientUnits="userSpaceOnUse">
<stop offset="0.2" stop-color="#FF3364"/>
<stop offset="0.51" stop-color="#BB34FF"/>
<stop offset="0.81" stop-color="#3586FF"/>
</linearGradient>
</defs>
</svg>
