<svg width="24" height="24" viewBox="0 0 24 24" fill="none" xmlns="http://www.w3.org/2000/svg">
<path d="M23.1654 12.3194C22.7198 11.4503 22.2114 10.4692 22.0106 9.27088C21.5147 6.26841 19.5942 4.73425 18.9478 4.29969C19.4436 2.54166 18.6214 0.296394 18.5838 0.197629C18.5524 0.118617 18.4959 0.052773 18.4143 0.0264355C18.339 -0.00648631 18.2511 9.80585e-05 18.1821 0.0461886C16.5378 0.981168 15.7281 2.2322 15.4394 2.76553C14.3097 2.33755 9.56495 0.915324 5.29089 5.01738C5.20303 5.10298 5.17792 5.23467 5.21558 5.3466C5.25951 5.46512 5.36621 5.53755 5.47918 5.53755C5.48545 5.53755 6.18838 5.53755 6.8411 5.78117C5.48545 6.48569 2.12771 8.59927 1.11725 12.5433C1.08587 12.6684 1.13608 12.8001 1.2365 12.8725C1.33692 12.945 1.47499 12.9384 1.56913 12.8594C1.57541 12.8594 2.16537 12.3853 3.13817 12.3129C2.74905 13.0042 2.0524 14.4857 1.38713 17.1787C1.31181 17.475 1.24277 17.791 1.16746 18.1203C1.14863 18.2124 0.0314777 23.4865 0.0126492 23.5787C-0.0187315 23.7433 -0.03756 23.954 0.0565823 24.0067H16.3306C16.3306 24.0067 16.3306 24.0067 16.3369 24.0067C16.3808 24.0067 16.4248 24.0001 16.4624 23.9738C16.6068 23.9013 16.6633 23.7236 16.5942 23.5721C16.5817 23.5458 15.2009 20.5828 13.9896 16.8297C13.067 13.9787 14.4792 12.4972 15.1005 12.01C16.3997 15.1178 18.5336 15.368 19.2491 15.3482C19.9708 17.238 21.1633 17.3301 21.8223 17.2116C22.4185 17.1063 22.9834 16.7441 23.4164 16.2042C24.4771 14.8808 23.862 13.6956 23.1528 12.3194H23.1654ZM21.8223 10.7589C21.8223 10.7589 21.8223 10.7524 21.8223 10.7458C21.8223 10.7458 21.8223 10.7458 21.8223 10.7524V10.7589Z" fill="white"/>
</svg>
