<svg width="40" height="40" viewBox="0 0 40 40" fill="none" xmlns="http://www.w3.org/2000/svg">
<rect width="40" height="40" rx="20" fill="#45494F"/>
<g clip-path="url(#clip0_1985_22894)">
<path d="M31.9892 16.927C31.8539 16.5062 31.2057 14.5365 30.7557 13.9018C30.808 13.7616 30.8529 13.551 30.7669 13.3548C30.7245 13.2616 30.641 13.1476 30.4746 13.0709L30.5736 11.9973C30.583 11.9072 30.5381 11.8213 30.4626 11.7738C30.3853 11.7268 30.2893 11.7292 30.2121 11.7765L29.1299 12.4691C28.6418 12.3618 26.6771 12.1434 24.4325 14.8346C24.1595 15.0073 21.6089 16.5169 16.4726 16.2726C16.0263 16.252 14.5443 16.2418 13.6327 16.9626C13.1935 16.9133 11.5479 16.8227 10.113 17.8764C8.97643 18.7106 8.2667 20.0465 8.00243 21.8479C7.99093 21.9214 8.01708 21.9969 8.07066 22.0498C8.12549 22.1029 8.20279 22.1253 8.27545 22.1141C8.33377 22.1029 9.70724 21.8441 11.4217 20.1287C11.5763 19.9735 11.6987 19.7734 11.8256 19.5608C11.9668 19.3272 12.1098 19.0906 12.3005 18.9085C12.1684 19.4654 12.1646 20.3693 12.8251 21.6109C12.494 21.8086 11.8297 22.2006 11.5525 22.3191L11.4924 22.344C11.2262 22.453 10.823 22.6202 10.7572 23.451C10.6212 25.1696 10.3321 25.8832 10.1251 26.1793C10.0079 26.1463 9.85204 26.132 9.69744 26.2005C9.56783 26.2616 9.39825 26.4031 9.33561 26.7429L9.14916 27.7002C9.14421 27.7257 9.14358 27.7513 9.14674 27.777C9.15233 27.815 9.20601 28.156 9.49823 28.242C9.53967 28.2557 9.5827 28.2601 9.62414 28.2601C9.88842 28.2601 10.1365 28.0276 10.3166 27.8218C10.5547 27.7121 11.3379 27.2372 11.5786 25.7038C11.5757 25.6259 11.5287 23.7907 13.035 23.5851C13.7525 23.4871 14.3084 23.2964 14.7476 23.0645C14.7099 23.1898 14.6428 23.3774 14.5161 23.6624C14.5032 23.6798 14.2115 24.1055 14.3615 24.5992C14.4753 24.9719 14.7968 25.2668 15.3195 25.4768C15.5582 25.6501 16.7538 26.514 17.2866 26.865C17.2221 27.0008 17.1723 27.181 17.2246 27.3567C17.2605 27.4739 17.3542 27.6298 17.5924 27.709L18.5734 28.0823C18.6009 28.0942 18.6284 28.0979 18.657 28.0979C18.6941 28.0979 18.7283 28.0879 18.7628 28.0724C18.8215 28.0424 18.8663 27.9895 18.8828 27.9258C18.8962 27.8778 19.1948 26.7514 18.055 25.9492L16.1177 24.4128C16.137 24.2139 16.2109 23.7296 16.4941 22.9423C16.5147 22.8875 16.5359 22.8189 16.5599 22.7411C16.6597 22.42 16.8267 21.8821 17.1159 21.7755C17.239 21.7306 17.4015 21.7693 17.5813 21.8828C17.6549 21.9371 19.412 23.2043 23.2963 22.4537C23.3038 22.4518 23.3081 22.4437 23.3138 22.4426C23.5805 22.6432 23.8736 22.8227 24.1876 22.9687C24.2401 23.0516 24.5842 23.6848 23.7388 25.0282C23.54 25.331 22.9273 26.0921 22.3183 26.2773C22.2678 26.2087 22.1918 26.1383 22.0821 26.1029C21.8788 26.0343 21.6445 26.1059 21.387 26.3173C21.3727 26.3296 21.3583 26.3447 21.3464 26.3608L20.8653 27.0384C20.8267 27.1051 20.6497 27.4574 20.8666 27.6823C20.9452 27.7652 21.051 27.8069 21.1919 27.8069C21.4051 27.8069 21.6994 27.7084 22.099 27.5097C22.1014 27.5072 22.3945 27.3844 22.6468 27.3638C22.7279 27.3608 23.4796 27.2871 24.8441 25.7881C25.2979 25.2906 25.7249 24.8094 25.9498 23.3034C26.5332 23.3171 27.5356 23.5882 27.9557 26.2629C27.9602 26.2872 27.9675 26.3097 27.9776 26.331C27.9807 26.3404 27.9994 26.3745 28.033 26.4288C27.9444 26.4875 27.8591 26.5704 27.8073 26.6882C27.7512 26.8216 27.7251 27.0434 27.9227 27.3383C27.9352 27.3551 27.947 27.37 27.9626 27.3839L28.7791 28.1081C28.9094 28.2228 29.1724 28.1898 29.352 27.9373C29.5378 27.6755 29.5315 27.2591 29.3315 26.6682C29.2985 26.3092 28.9731 23.2966 27.2047 22.2825C27.1648 22.26 26.2366 21.7252 26.2965 20.7024C26.3127 20.4144 26.3495 19.8134 26.4972 19.5094C26.6431 19.2158 26.8712 18.9088 27.1355 18.5532C27.512 18.0476 27.9788 17.419 28.4208 16.542C28.4837 16.4183 28.599 16.2703 28.7193 16.2618C28.8609 16.2435 29.0397 16.4074 29.2323 16.6876C29.2978 16.78 29.3607 16.907 29.433 17.0463C29.6674 17.5007 29.9889 18.1238 30.5842 18.2138C31.0499 18.2371 31.9288 18.0063 31.9974 17.013C32.0023 16.9837 31.9986 16.955 31.9892 16.927ZM24.4825 25.4904C23.2726 26.8174 22.6281 26.8941 22.62 26.8946C22.2809 26.9208 21.928 27.0704 21.9019 27.0835C21.5341 27.2662 21.3409 27.3186 21.2487 27.3334C21.2544 27.3148 21.2605 27.2992 21.2636 27.2905L21.7125 26.6635C21.8652 26.5419 21.9343 26.5494 21.9332 26.5487C21.9419 26.5551 21.9593 26.583 21.965 26.6011C21.9931 26.7189 22.1046 26.7974 22.2236 26.7799C23.2309 26.6509 24.098 25.3438 24.1361 25.2845C24.7607 24.2909 24.8143 23.6028 24.7401 23.1764C24.9752 23.2426 25.2219 23.285 25.4762 23.2987C25.2748 24.6071 24.9307 24.999 24.4825 25.4904ZM30.6322 17.747C30.3006 17.6955 30.0525 17.2169 29.8531 16.8313C29.7709 16.6716 29.6947 16.5261 29.6218 16.4202C29.3209 15.9824 29.0042 15.776 28.6887 15.7929C28.3015 15.8197 28.0803 16.1784 28.0036 16.3314C27.5804 17.172 27.1266 17.7822 26.7607 18.2731C26.4821 18.6471 26.2428 18.9693 26.0788 19.3028C25.8893 19.692 25.8507 20.3323 25.8289 20.6757C25.7509 21.9966 26.9278 22.6654 26.9744 22.6916C28.5995 23.6222 28.8651 26.7046 28.8688 26.7352C28.87 26.755 28.8738 26.775 28.8806 26.7945C29.0857 27.3903 29.0108 27.6005 28.9797 27.6539L28.3008 27.0531C28.2435 26.9602 28.2335 26.9004 28.2442 26.8735C28.2653 26.823 28.3763 26.7757 28.4429 26.762C28.5266 26.7483 28.5938 26.6896 28.6225 26.6104C28.6517 26.5307 28.6362 26.441 28.5801 26.3779C28.4979 26.2807 28.4429 26.1928 28.4168 26.1492C27.9294 23.1093 26.6664 22.8081 25.729 22.8381C25.6947 22.8394 25.6624 22.8394 25.6293 22.8394C23.5262 22.8394 21.9685 20.2594 21.9516 20.2332C21.885 20.121 21.7398 20.0836 21.6282 20.1516C21.5166 20.2176 21.4806 20.3623 21.5466 20.4733C21.5839 20.5356 22.0603 21.3235 22.8506 22.0523C19.4497 22.6164 17.8802 21.5161 17.8499 21.4956C17.5258 21.2905 17.2251 21.2356 16.9551 21.3342C16.4477 21.5205 16.2461 22.172 16.1127 22.602C16.0915 22.6718 16.0725 22.7335 16.055 22.7828C15.6371 23.9404 15.6427 24.5019 15.6427 24.525C15.6439 24.5955 15.6773 24.661 15.7321 24.7045L17.7753 26.3245C18.3541 26.7328 18.4569 27.2334 18.4582 27.5338L17.7516 27.2646C17.7114 27.2514 17.6808 27.2334 17.6781 27.2209C17.6615 27.166 17.7255 27.0202 17.7943 26.9324C17.8364 26.8774 17.8523 26.8065 17.8377 26.7397C17.8236 26.6718 17.7804 26.6138 17.7176 26.5814C17.5057 26.4654 16.318 25.6189 15.5724 25.0786C15.5572 25.0668 15.5379 25.0567 15.52 25.0499C15.1308 24.8973 14.8855 24.6965 14.8147 24.4671C14.7299 24.1935 14.9035 23.933 14.925 23.8949C15.1978 23.2928 15.3007 22.9505 15.2577 22.7443C15.6083 22.4768 15.8514 22.187 16.009 21.9277C16.4952 21.1206 16.4665 20.2447 16.335 19.8813C16.2917 19.7592 16.157 19.6955 16.032 19.7404C15.9114 19.7854 15.8475 19.92 15.8908 20.0428C15.9756 20.2703 16.018 21.0009 15.6057 21.6839C15.1344 22.4638 14.2493 22.9469 12.9739 23.1201C11.4356 23.3301 11.0824 24.9141 11.1151 25.6763C10.8867 27.1063 10.134 27.3942 10.1047 27.4061C10.0645 27.4191 10.028 27.444 10.0006 27.4752C9.76778 27.7476 9.65346 27.7837 9.64755 27.7956C9.6388 27.7856 9.631 27.7638 9.62414 27.7426L9.80089 26.8301C9.82145 26.7235 9.85699 26.6481 9.89591 26.6306C9.94389 26.6068 10.0421 26.6418 10.081 26.6636C10.1723 26.7165 10.2904 26.7028 10.3665 26.6262C10.8087 26.1848 11.0979 25.1283 11.2291 23.4876C11.2734 22.9436 11.4513 22.8705 11.676 22.7796L11.7418 22.7521C12.147 22.5783 13.2219 21.9231 13.2687 21.895C13.3771 21.8289 13.4137 21.6881 13.3497 21.5771C12.1957 19.5688 12.9331 18.5807 12.9643 18.5418C13.0269 18.4639 13.0331 18.3554 12.9801 18.2701C12.9271 18.1847 12.8296 18.1416 12.728 18.1634C12.0286 18.3193 11.6961 18.8725 11.4264 19.3176C11.3142 19.5045 11.2069 19.681 11.0939 19.7963C9.9809 20.9096 9.02009 21.3709 8.53319 21.5479C8.81339 20.0644 9.43643 18.9588 10.3873 18.2586C11.8637 17.1728 13.6483 17.4377 13.6676 17.4411C13.7358 17.4511 13.8072 17.4314 13.8596 17.3853C14.4717 16.8504 15.5906 16.7031 16.4517 16.7432C22.0549 17.001 24.6212 15.2797 24.7272 15.2055C24.7446 15.1932 24.7614 15.1787 24.7758 15.1628C27.1026 12.3499 29.0182 12.92 29.0979 12.9462C29.1646 12.9677 29.2401 12.9592 29.2992 12.9212L30.061 12.4328L29.9886 13.2148C29.9768 13.3354 30.0591 13.4452 30.1794 13.4675C30.2186 13.4756 30.3153 13.498 30.3377 13.5466C30.3664 13.609 30.3215 13.7446 30.2792 13.8166C30.2212 13.9141 30.2392 14.0388 30.3233 14.1133C30.5764 14.3386 31.1735 15.9349 31.527 17.0251C31.4494 17.7516 30.6797 17.737 30.6322 17.747Z" fill="white" stroke="white" stroke-width="0.2"/>
</g>
<defs>
<clipPath id="clip0_1985_22894">
<rect width="24" height="24" fill="white" transform="translate(8 8)"/>
</clipPath>
</defs>
</svg>
