<svg width="40" height="40" viewBox="0 0 40 40" fill="none" xmlns="http://www.w3.org/2000/svg">
<rect width="40" height="40" rx="20" fill="#45494F"/>
<g clip-path="url(#clip0_1985_22905)">
<path d="M31.5992 24.0792C31.2606 23.7031 30.7565 23.51 30.2499 23.5621L23.4079 24.272L20.4401 19.4378L26.3056 9.88415C26.414 9.70752 26.3589 9.47651 26.1822 9.36851C26.0048 9.25901 25.7746 9.31526 25.6666 9.49189L20.0003 18.7212L14.3335 9.49151C14.2252 9.31526 13.9949 9.25976 13.8175 9.36814C13.6413 9.47651 13.5858 9.70752 13.6942 9.88377L19.56 19.4378L16.5922 24.272L9.75021 23.5621C9.24508 23.5096 8.73957 23.7027 8.40094 24.0792C8.06044 24.4576 7.92544 24.9785 8.04019 25.4716C8.04094 25.4758 8.04206 25.4799 8.04319 25.4844C8.29819 26.5618 9.25596 27.3129 10.3772 27.3129H15.3956C15.3993 27.3129 15.4031 27.3114 15.4068 27.3114C15.4346 27.3107 15.4627 27.3077 15.4897 27.3005C15.5032 27.2972 15.5152 27.2904 15.5279 27.2855C15.5448 27.2792 15.5617 27.2743 15.5774 27.2653C15.5898 27.2585 15.6003 27.2488 15.6116 27.2405C15.6258 27.2304 15.6412 27.2214 15.6543 27.209C15.6682 27.1959 15.6791 27.1794 15.6907 27.164C15.6986 27.1539 15.7079 27.1457 15.7147 27.1344L20.0003 20.1544L24.2854 27.134C24.2926 27.1457 24.3023 27.1543 24.3102 27.1648C24.3218 27.1798 24.3323 27.1959 24.3458 27.2087C24.3593 27.2218 24.3754 27.2312 24.3904 27.242C24.4013 27.2495 24.4111 27.2589 24.4223 27.2653C24.4388 27.2743 24.4568 27.2799 24.4744 27.2863C24.4864 27.2908 24.4981 27.2972 24.5104 27.3005C24.5374 27.3077 24.5656 27.3107 24.5937 27.3114C24.5974 27.3114 24.6008 27.3129 24.6046 27.3129H29.6229C30.7438 27.3129 31.7019 26.5618 31.9569 25.4844C31.9581 25.4803 31.9592 25.4761 31.9599 25.4716C32.0747 24.9785 31.9397 24.4576 31.5992 24.0792ZM8.77107 25.304C8.77032 25.3003 8.7692 25.2965 8.76845 25.2928C8.71332 25.0404 8.7842 24.7753 8.95858 24.581C9.13708 24.3822 9.40146 24.2787 9.67296 24.308L16.1482 24.98L15.1848 26.5629H10.3768C9.60321 26.5629 8.94283 26.0454 8.77107 25.304ZM31.2317 25.2924C31.2309 25.2961 31.2298 25.2999 31.2291 25.3036C31.0573 26.045 30.3969 26.5625 29.6233 26.5625H24.8153L23.8519 24.9796L30.3272 24.3076C30.5964 24.2795 30.863 24.3819 31.0415 24.5803C31.2159 24.7749 31.2868 25.0404 31.2317 25.2924Z" fill="white"/>
<path d="M20.0002 27.688C18.5035 27.688 17.3752 28.333 17.3752 29.188C17.3752 30.043 18.5035 30.688 20.0002 30.688C21.4968 30.688 22.6252 30.043 22.6252 29.188C22.6252 28.333 21.4965 27.688 20.0002 27.688ZM20.0002 29.938C18.8557 29.938 18.1252 29.4936 18.1252 29.188C18.1252 28.8824 18.8557 28.438 20.0002 28.438C21.1447 28.438 21.8752 28.8824 21.8752 29.188C21.8752 29.494 21.1447 29.938 20.0002 29.938Z" fill="white"/>
</g>
<defs>
<clipPath id="clip0_1985_22905">
<rect width="24" height="24" fill="white" transform="translate(8 8)"/>
</clipPath>
</defs>
</svg>
