<svg width="15" height="15" viewBox="0 0 15 15" fill="none" xmlns="http://www.w3.org/2000/svg">
<path fill-rule="evenodd" clip-rule="evenodd" d="M7.50036 0.625C3.70283 0.625 0.625 3.70283 0.625 7.49964C0.625 11.2972 3.70283 14.375 7.50036 14.375C11.2964 14.375 14.375 11.2972 14.375 7.49964C14.375 3.70283 11.2964 0.625 7.50036 0.625ZM8.14197 3.10703C8.81225 3.10703 9.00918 3.49588 9.00918 3.94058C9.00918 4.49557 8.56519 5.00902 7.80683 5.00902C7.17236 5.00902 6.87016 4.69035 6.88878 4.16258C6.88878 3.71787 7.26044 3.10703 8.14197 3.10703ZM5.95211 10.1177C5.63201 11.3387 5.96643 11.6173 6.42474 11.6173C6.88234 11.6173 8.0632 11.2005 9.14667 10.1177L8.88744 9.7697C8.44489 10.1184 7.99517 10.2846 7.85768 10.2846C7.75098 10.2846 7.70515 10.1457 7.81185 9.74321L8.41338 7.46598C8.64182 6.63243 8.56591 6.09105 8.1076 6.09105C7.55978 6.09105 6.27937 6.63673 5.16583 7.56695L5.39426 7.94148C5.74516 7.70516 6.34024 7.46598 6.47702 7.46598C6.583 7.46598 6.56797 7.60491 6.47702 7.9515L5.95211 10.1177Z" fill="#ffffff"/>
</svg>
