<svg width="21" height="20" viewBox="0 0 21 20" fill="none" xmlns="http://www.w3.org/2000/svg">
<mask id="mask0_547_6168" style="mask-type:alpha" maskUnits="userSpaceOnUse" x="0" y="0" width="21" height="20">
<path d="M10.4252 0C4.86696 0 0.360229 4.4075 0.360229 9.84333C0.360229 15.2792 4.86696 19.6875 10.4252 19.6875C15.9834 19.6875 20.491 15.2792 20.491 9.84333C20.491 4.4075 15.9834 0 10.4252 0ZM12.5205 15.2558C12.0024 15.4558 11.59 15.6075 11.2807 15.7125C10.9722 15.8175 10.6135 15.87 10.2053 15.87C9.57819 15.87 9.08994 15.72 8.74229 15.4208C8.39463 15.1217 8.22166 14.7425 8.22166 14.2817C8.22166 14.1025 8.23444 13.9192 8.26 13.7325C8.28642 13.5458 8.32817 13.3358 8.38526 13.1L9.03371 10.86C9.0908 10.645 9.14022 10.4408 9.17941 10.2508C9.21861 10.0592 9.23736 9.88333 9.23736 9.72333C9.23736 9.43833 9.17686 9.23833 9.05671 9.12583C8.93486 9.01333 8.70565 8.95833 8.36396 8.95833C8.19695 8.95833 8.02483 8.9825 7.84844 9.03333C7.67376 9.08583 7.52209 9.13333 7.39768 9.18L7.56895 8.49C7.9933 8.32083 8.39975 8.17583 8.78745 8.05583C9.17515 7.93417 9.54155 7.87417 9.88665 7.87417C10.5095 7.87417 10.9901 8.0225 11.3284 8.31583C11.665 8.61 11.8345 8.9925 11.8345 9.4625C11.8345 9.56 11.8226 9.73167 11.7996 9.97667C11.7766 10.2225 11.7331 10.4467 11.6701 10.6525L11.0251 12.8858C10.9722 13.065 10.9254 13.27 10.8828 13.4992C10.841 13.7283 10.8205 13.9033 10.8205 14.0208C10.8205 14.3175 10.8879 14.52 11.0242 14.6275C11.1588 14.735 11.3949 14.7892 11.7289 14.7892C11.8865 14.7892 12.0629 14.7617 12.2623 14.7083C12.46 14.655 12.6031 14.6075 12.6935 14.5667L12.5205 15.2558ZM12.4063 6.19083C12.1055 6.46417 11.7434 6.60083 11.3199 6.60083C10.8972 6.60083 10.5325 6.46417 10.2292 6.19083C9.92755 5.9175 9.77503 5.585 9.77503 5.19667C9.77503 4.80917 9.92841 4.47583 10.2292 4.2C10.5325 3.92333 10.8972 3.78583 11.3199 3.78583C11.7434 3.78583 12.1064 3.92333 12.4063 4.2C12.7071 4.47583 12.8579 4.80917 12.8579 5.19667C12.8579 5.58583 12.7071 5.9175 12.4063 6.19083Z" fill="white"/>
</mask>
<g mask="url(#mask0_547_6168)">
<path fill-rule="evenodd" clip-rule="evenodd" d="M-0.491882 -0.833252H21.3431V20.5209H-0.491882V-0.833252Z" fill="white"/>
</g>
</svg>
