<svg width="14" height="16" viewBox="0 0 14 16" fill="none" xmlns="http://www.w3.org/2000/svg">
<path fillRule="evenodd" clipRule="evenodd" d="M7.03032 13.652C4.44437 13.652 2.34801 11.5556 2.34801 8.96965C2.34801 7.77966 2.69825 7.03948 3.29378 6.15189L6.48683 8.88954C6.68414 9.09766 7.03445 8.95961 7.03683 8.67284L7.07355 4.28842C9.63949 4.31172 11.7126 6.39819 11.7126 8.96965C11.7126 11.5556 9.61626 13.652 7.03032 13.652ZM12.3304 5.44935L13.0289 4.77502C13.1121 4.69468 13.1144 4.56222 13.0341 4.47905L11.8471 3.14993C11.8085 3.11 11.7558 3.087 11.7002 3.086C11.645 3.08478 11.5911 3.10616 11.5512 3.14472L10.8155 3.85493C10.1025 3.32678 9.27538 2.94389 8.37783 2.75026V2.15656H8.7887C8.92821 2.15656 9.04128 2.07056 9.04128 1.96439V0.8588C9.04128 0.752709 8.92821 0.666626 8.7887 0.666626H5.45958C5.32007 0.666626 5.20708 0.752709 5.20708 0.8588V1.96439C5.20708 2.07056 5.32007 2.15656 5.45958 2.15656H5.87037V2.71339C2.91004 3.25894 0.666664 5.8514 0.666664 8.96964C0.666664 12.4842 3.51577 15.3333 7.03031 15.3333C10.5449 15.3333 13.394 12.4842 13.394 8.96964C13.394 7.66743 13.0016 6.45759 12.3304 5.44935Z" fill="white"/>
</svg>
