<svg width="18" height="18" viewBox="0 0 18 18" fill="none" xmlns="http://www.w3.org/2000/svg">
<path d="M5.39995 0.199951C2.53294 0.199951 0.199951 2.53294 0.199951 5.39995V12.6C0.199951 15.467 2.53294 17.8 5.39995 17.8H12.6C15.467 17.8 17.8 15.467 17.8 12.6V5.39995C17.8 2.53294 15.467 0.199951 12.6 0.199951H5.39995ZM5.39995 0.999951H12.6C15.0345 0.999951 17 2.96536 17 5.39995V12.6C17 15.0345 15.0345 17 12.6 17H5.39995C2.96536 17 0.999951 15.0345 0.999951 12.6V5.39995C0.999951 2.96536 2.96536 0.999951 5.39995 0.999951ZM13.8 3.39995C13.5878 3.39995 13.3843 3.48424 13.2343 3.63427C13.0842 3.7843 13 3.98778 13 4.19995C13 4.41212 13.0842 4.61561 13.2343 4.76564C13.3843 4.91567 13.5878 4.99995 13.8 4.99995C14.0121 4.99995 14.2156 4.91567 14.3656 4.76564C14.5157 4.61561 14.6 4.41212 14.6 4.19995C14.6 3.98778 14.5157 3.7843 14.3656 3.63427C14.2156 3.48424 14.0121 3.39995 13.8 3.39995ZM8.99995 4.59995C6.57464 4.59995 4.59995 6.57464 4.59995 8.99995C4.59995 11.4253 6.57464 13.4 8.99995 13.4C11.4253 13.4 13.4 11.4253 13.4 8.99995C13.4 6.57464 11.4253 4.59995 8.99995 4.59995ZM8.99995 5.39995C10.9929 5.39995 12.6 7.00699 12.6 8.99995C12.6 10.9929 10.9929 12.6 8.99995 12.6C7.00699 12.6 5.39995 10.9929 5.39995 8.99995C5.39995 7.00699 7.00699 5.39995 8.99995 5.39995Z" fill="white"/>
</svg>
