<svg width="20" height="18" viewBox="0 0 20 18" fill="none" xmlns="http://www.w3.org/2000/svg">
<path d="M3.20005 0.20459C2.52509 0.20459 1.93424 0.396555 1.50161 0.745996C1.06898 1.09544 0.804736 1.61319 0.804736 2.17881C0.804736 3.27624 1.78753 4.12569 3.08677 4.17646C3.12341 4.1882 3.16158 4.19451 3.20005 4.19521C3.90148 4.19521 4.49853 3.98961 4.92505 3.62568C5.35157 3.26176 5.59536 2.73708 5.59536 2.17881C5.5953 2.17151 5.59504 2.16422 5.59458 2.15693C5.53297 1.05258 4.54996 0.20459 3.20005 0.20459ZM3.20005 0.995215C4.24368 0.995215 4.7584 1.50764 4.80239 2.18896C4.79955 2.52188 4.67067 2.80466 4.41255 3.0249C4.15157 3.24758 3.74862 3.40459 3.20005 3.40459C2.15927 3.40459 1.59536 2.83957 1.59536 2.17881C1.59536 1.84843 1.73112 1.5768 1.99849 1.36084C2.26586 1.14488 2.67501 0.995215 3.20005 0.995215ZM1.20005 4.9999C1.09397 4.99991 0.99223 5.04206 0.917218 5.11707C0.842206 5.19208 0.800059 5.29382 0.800049 5.3999V16.9999C0.800059 17.106 0.842206 17.2077 0.917218 17.2827C0.99223 17.3577 1.09397 17.3999 1.20005 17.3999H5.20005C5.30613 17.3999 5.40787 17.3577 5.48288 17.2827C5.55789 17.2077 5.60004 17.106 5.60005 16.9999V13.2655V5.3999C5.60004 5.29382 5.55789 5.19208 5.48288 5.11707C5.40787 5.04206 5.30613 4.99991 5.20005 4.9999H1.20005ZM7.20005 4.9999C7.09397 4.99991 6.99223 5.04206 6.91722 5.11707C6.84221 5.19208 6.80006 5.29382 6.80005 5.3999V16.9999C6.80006 17.106 6.84221 17.2077 6.91722 17.2827C6.99223 17.3577 7.09397 17.3999 7.20005 17.3999H11.2C11.3061 17.3999 11.4079 17.3577 11.4829 17.2827C11.5579 17.2077 11.6 17.106 11.6 16.9999V10.5999V10.4999V10.3999C11.6 9.62213 12.2223 8.9999 13 8.9999C13.7778 8.9999 14.4 9.62213 14.4 10.3999V16.9999C14.4001 17.106 14.4422 17.2077 14.5172 17.2827C14.5922 17.3577 14.694 17.3999 14.8 17.3999H18.8C18.9061 17.3999 19.0079 17.3577 19.0829 17.2827C19.1579 17.2077 19.2 17.106 19.2 16.9999V10.1999C19.2 8.54929 18.7152 7.24168 17.8977 6.3499C17.0802 5.45812 15.9397 4.9999 14.7149 4.9999C13.1532 4.9999 12.2087 5.57033 11.6 6.04053V5.3999C11.6 5.29382 11.5579 5.19208 11.4829 5.11707C11.4079 5.04206 11.3061 4.99991 11.2 4.9999H7.20005ZM1.60005 5.7999H4.80005V13.2655V16.5999H1.60005V5.7999ZM7.60005 5.7999H10.8V6.85537C10.8001 6.93631 10.8246 7.01533 10.8705 7.08201C10.9164 7.14869 10.9814 7.19988 11.057 7.22883C11.1326 7.25777 11.2152 7.26311 11.2939 7.24414C11.3725 7.22517 11.4436 7.18277 11.4977 7.12256C11.4977 7.12256 12.684 5.7999 14.7149 5.7999C15.7441 5.7999 16.6463 6.16881 17.3079 6.89053C17.9695 7.61225 18.4 8.70451 18.4 10.1999V16.5999H15.2V10.3999C15.2006 10.3435 15.1891 10.2875 15.1665 10.2358C15.0777 9.10555 14.1522 8.1999 13 8.1999C11.7898 8.1999 10.8 9.18967 10.8 10.3999V10.4999V10.5999V16.5999H7.60005V5.7999Z" fill="white"/>
</svg>
