<svg width="14" height="20" viewBox="0 0 14 20" fill="none" xmlns="http://www.w3.org/2000/svg">
<path d="M7.0001 0.399902C3.46416 0.399902 0.600098 3.26396 0.600098 6.7999C0.600098 9.72334 2.14385 12.8655 3.6626 15.2999C5.18135 17.7343 6.7001 19.4624 6.7001 19.4624C6.77666 19.5483 6.88603 19.5983 7.0001 19.5983C7.11416 19.5983 7.22354 19.5483 7.3001 19.4624C7.3001 19.4624 8.82041 17.6983 10.3376 15.2499C11.8548 12.8015 13.4001 9.66709 13.4001 6.7999C13.4001 3.26396 10.536 0.399902 7.0001 0.399902ZM7.0001 1.1999C10.1048 1.1999 12.6001 3.69521 12.6001 6.7999C12.6001 9.37334 11.1454 12.4327 9.6626 14.8249C8.42041 16.8296 7.36885 18.1202 7.0001 18.5624C6.62822 18.1233 5.57666 16.8608 4.3376 14.8749C2.85635 12.4999 1.4001 9.43584 1.4001 6.7999C1.4001 3.69521 3.89541 1.1999 7.0001 1.1999ZM7.0001 4.3999C5.45791 4.3999 4.2001 5.65771 4.2001 7.1999C4.2001 8.74209 5.45791 9.9999 7.0001 9.9999C8.54228 9.9999 9.8001 8.74209 9.8001 7.1999C9.8001 5.65771 8.54228 4.3999 7.0001 4.3999ZM7.0001 5.1999C8.10947 5.1999 9.0001 6.09053 9.0001 7.1999C9.0001 8.30928 8.10947 9.1999 7.0001 9.1999C5.89072 9.1999 5.0001 8.30928 5.0001 7.1999C5.0001 6.09053 5.89072 5.1999 7.0001 5.1999Z" fill="white"/>
</svg>
