<svg width="20" height="16" viewBox="0 0 20 16" fill="none" xmlns="http://www.w3.org/2000/svg">
<path d="M5.36442e-07 2C5.96046e-07 0.895431 0.89543 0 2 0L11 4.17233e-07C12.1046 4.17233e-07 13 0.895431 13 2L13 4C13 4.55229 12.5523 5 12 5C11.4477 5 11 4.55228 11 4L11 2L2 2L2 14H11V12C11 11.4477 11.4477 11 12 11C12.5523 11 13 11.4477 13 12V14C13 15.1046 12.1046 16 11 16H2C0.895431 16 0 15.1046 0 14L5.36442e-07 2ZM15.2929 4.29289C15.6834 3.90237 16.3166 3.90237 16.7071 4.29289L19.7071 7.29289C20.0976 7.68342 20.0976 8.31658 19.7071 8.70711L16.7071 11.7071C16.3166 12.0976 15.6834 12.0976 15.2929 11.7071C14.9024 11.3166 14.9024 10.6834 15.2929 10.2929L16.5858 9H7C6.44772 9 6 8.55228 6 8C6 7.44772 6.44772 7 7 7L16.5858 7L15.2929 5.70711C14.9024 5.31658 14.9024 4.68342 15.2929 4.29289Z" fill="#2B2F34"/>
</svg>
