<svg width="40" height="40" viewBox="0 0 40 40" fill="none" xmlns="http://www.w3.org/2000/svg">
<rect width="40" height="40" rx="20" fill="#45494F"/>
<path d="M14.4651 31.8114H25.5265C25.7304 31.8114 25.8952 31.6468 25.8952 31.443V28.1307H28.8456C29.0495 28.1307 29.2143 27.9661 29.2143 27.7623V13.3895C29.2143 11.358 27.5602 9.70518 25.5272 9.70518H23.5412L22.9055 8.43523C22.9011 8.42668 22.8933 8.42125 22.8882 8.4127C22.879 8.39724 22.8683 8.38326 22.8565 8.36928C22.8458 8.35596 22.8362 8.3423 22.8237 8.33096C22.8133 8.32142 22.8016 8.31434 22.7901 8.30628C22.7827 8.30069 22.7794 8.29345 22.7717 8.28852C22.7639 8.28342 22.7544 8.28293 22.7462 8.27898C22.7322 8.27125 22.7192 8.26352 22.7037 8.2576C22.6904 8.2525 22.6767 8.2502 22.6627 8.24724C22.6431 8.24247 22.6244 8.2395 22.6048 8.2377C22.5952 8.23654 22.5863 8.23145 22.5761 8.23145H17.4154C17.4051 8.23145 17.3963 8.23654 17.3863 8.23737C17.366 8.23918 17.3476 8.24247 17.3277 8.24691C17.314 8.25052 17.3007 8.2525 17.2875 8.25727C17.2727 8.26286 17.2599 8.27059 17.2459 8.27783C17.2373 8.2826 17.2275 8.28293 17.2189 8.28819C17.2112 8.29329 17.207 8.30102 17.1993 8.30694C17.1886 8.31467 17.1776 8.32125 17.1675 8.33046C17.1557 8.34148 17.1461 8.35398 17.1358 8.3673C17.1233 8.38244 17.1117 8.39757 17.1015 8.41484C17.0968 8.42257 17.0897 8.42701 17.0857 8.43507L16.4502 9.70518H14.4643C12.4312 9.70518 10.7771 11.358 10.7771 13.3895V27.7623C10.7771 27.9661 10.9419 28.1307 11.1458 28.1307H14.0964V31.443C14.0964 31.6468 14.2612 31.8114 14.4651 31.8114L14.4651 31.8114ZM19.9954 11.9922L18.0843 8.96839H21.9061L19.9954 11.9922ZM17.4531 9.34929L19.5595 12.6821L19.1605 13.3132L17.1005 10.0529L17.4531 9.34929ZM19.4608 14.2181C19.4629 14.2151 19.4649 14.2119 19.467 14.2092L20.2978 12.8947C20.2984 12.8935 20.2993 12.8926 20.2999 12.8914L22.5384 9.34882L22.8908 10.0525L14.8339 22.802V21.5401L19.4608 14.2181ZM20.3644 24.4442V25.1796H19.627V24.4442H20.3644ZM25.1577 24.4442V25.1796H21.1018V24.4442H25.1577ZM22.3507 28.7361L20.6487 25.9164H21.2681L22.8131 28.4767L22.3507 28.7361ZM17.6527 28.7361L17.19 28.4767L18.7348 25.9164H19.3542L17.6527 28.7361ZM18.8897 25.1796H14.8338V24.4442H18.8897V25.1796ZM14.8338 25.9164H17.8736L16.3615 28.4218C16.3604 28.4236 16.3604 28.4259 16.3594 28.4277C16.3582 28.4295 16.3567 28.4304 16.3558 28.4322C16.3447 28.4521 16.3429 28.4734 16.3355 28.4945C16.3274 28.5185 16.3156 28.5412 16.3123 28.566C16.3093 28.5896 16.3141 28.6124 16.3159 28.6361C16.3174 28.6596 16.3156 28.6833 16.3219 28.7062C16.3278 28.7287 16.3406 28.7475 16.3507 28.768C16.361 28.7906 16.3684 28.8134 16.3834 28.8332C16.3971 28.8516 16.4173 28.8644 16.4346 28.8799C16.4524 28.8962 16.4659 28.9152 16.4869 28.9277C16.4891 28.9292 16.4917 28.9296 16.494 28.9307C16.4952 28.9314 16.4958 28.9328 16.4973 28.9337L17.6035 29.5541C17.6212 29.5639 17.64 29.5695 17.6581 29.5761C17.6685 29.5802 17.6787 29.5856 17.689 29.5886C17.7202 29.5963 17.7518 29.6008 17.7832 29.6008C17.815 29.6008 17.8466 29.5963 17.8772 29.5886C17.8858 29.5865 17.8938 29.5812 17.9019 29.5787C17.9236 29.5713 17.9447 29.5644 17.9649 29.5532C17.9738 29.5477 17.9815 29.5404 17.9904 29.5342C18.0082 29.5223 18.0258 29.511 18.0413 29.4955C18.0502 29.487 18.0568 29.4759 18.0645 29.4664C18.0764 29.4521 18.0892 29.4394 18.0992 29.4233L20.0014 26.2717L21.9036 29.4233C21.9131 29.4396 21.9265 29.4524 21.9383 29.4667C21.9461 29.4759 21.9531 29.4873 21.9615 29.4955C21.977 29.511 21.9948 29.5225 22.0127 29.5345C22.0213 29.5404 22.029 29.5478 22.0377 29.5532C22.058 29.5643 22.0794 29.5717 22.1011 29.5791C22.1092 29.582 22.1174 29.5868 22.1255 29.5886C22.1564 29.5963 22.1882 29.6008 22.22 29.6008C22.2512 29.6008 22.283 29.5963 22.3143 29.5883C22.3246 29.5853 22.3348 29.5797 22.3452 29.5758C22.3637 29.5692 22.3824 29.5639 22.3999 29.5537L23.506 28.9333C23.5075 28.9327 23.5081 28.9312 23.5093 28.9304C23.5114 28.9292 23.5141 28.9289 23.5164 28.9274C23.5374 28.9149 23.5511 28.8957 23.5687 28.8796C23.586 28.8641 23.6062 28.8513 23.6199 28.8328C23.6351 28.8129 23.6425 28.7901 23.6527 28.7677C23.6625 28.7471 23.6759 28.7282 23.6815 28.7059C23.6877 28.6827 23.6859 28.6595 23.6874 28.6358C23.6892 28.6123 23.694 28.5894 23.691 28.5657C23.6877 28.541 23.6762 28.5182 23.6678 28.4942C23.6604 28.4731 23.6589 28.4517 23.6476 28.4318C23.6464 28.43 23.6449 28.4292 23.6439 28.4274C23.6428 28.4256 23.6428 28.4233 23.6418 28.4215L22.1296 25.9164H25.1578V31.0745H14.8338L14.8338 25.9164ZM28.477 13.3897V27.394H25.8954V14.1274C25.8954 13.9236 25.7306 13.7589 25.5266 13.7589C25.3227 13.7589 25.1579 13.9236 25.1579 14.1274V23.7075L15.134 23.7077L23.5171 10.4423H25.5272C27.1537 10.4423 28.4769 11.7646 28.4769 13.3898L28.477 13.3897ZM11.515 27.394V13.3897C11.515 11.7644 12.8382 10.4422 14.4647 10.4422H16.4742L18.7245 14.0038L14.8341 20.1598V14.1272C14.8341 13.9234 14.6693 13.7588 14.4654 13.7588C14.2614 13.7588 14.0967 13.9234 14.0967 14.1272V27.3938L11.515 27.394Z" fill="white"/>
</svg>
