<svg width="40" height="40" viewBox="0 0 40 40" fill="none" xmlns="http://www.w3.org/2000/svg">
<rect width="40" height="40" rx="20" fill="#45494F"/>
<g clip-path="url(#clip0_556_1627)">
<path d="M29.68 29.12L29.6522 29.0784L29.6522 29.0784L29.6519 29.0786L29.6511 29.0792L29.6478 29.0813L29.6355 29.0898C29.6247 29.0972 29.609 29.1082 29.5891 29.1224C29.5492 29.1509 29.4924 29.1925 29.4243 29.2455C29.2882 29.3514 29.1065 29.5027 28.9247 29.6846C28.7429 29.8663 28.5599 30.0795 28.4221 30.3092C28.2936 30.5235 28.2027 30.7548 28.1912 30.99H27.33V29.6C27.33 29.3925 27.3758 29.2211 27.4671 29.0611C27.5589 28.9001 27.698 28.7484 27.8881 28.5824C27.8882 28.5822 27.8884 28.5821 27.8885 28.582L29.0368 27.6245C29.1972 27.5171 29.25 27.3552 29.25 27.2C29.25 27.051 29.2002 26.8826 29.0326 26.8204L27.8886 25.818L27.8885 25.8179C27.5104 25.4878 27.33 25.1647 27.33 24.8V23.41H32.03V24.8C32.03 25.1681 31.8933 25.4904 31.5206 25.8176C31.5205 25.8177 31.5203 25.8179 31.5202 25.818L30.3701 26.7755C30.2097 26.8829 30.1569 27.0447 30.1569 27.2C30.1569 27.349 30.2067 27.5173 30.3743 27.5795L31.5202 28.5819C31.7086 28.7473 31.8353 28.8984 31.9153 29.0586C31.995 29.2183 32.03 29.3903 32.03 29.6V30.99H31.1688C31.1573 30.7548 31.0664 30.5235 30.9379 30.3092C30.8001 30.0795 30.6171 29.8663 30.4354 29.6846C30.2535 29.5027 30.0718 29.3514 29.9357 29.2455C29.8676 29.1925 29.8108 29.1509 29.7709 29.1224C29.751 29.1082 29.7353 29.0972 29.7245 29.0898L29.7122 29.0813L29.7089 29.0792L29.7081 29.0786L29.7078 29.0784L29.7078 29.0784L29.68 29.12ZM29.68 29.12L29.7077 29.0784L29.68 29.0599L29.6523 29.0784L29.68 29.12ZM29.68 26.24L29.6929 26.2883L29.693 26.2882L29.6933 26.2882L29.6942 26.2879L29.6976 26.287L29.7102 26.2834C29.7211 26.2802 29.737 26.2754 29.7571 26.269C29.7973 26.2562 29.8546 26.2367 29.9231 26.21C30.0602 26.1567 30.2433 26.0743 30.4268 25.9581C30.792 25.7267 31.17 25.3535 31.17 24.8V24.75H31.12H28.24H28.19V24.8C28.19 25.3535 28.568 25.7267 28.9332 25.9581C29.1168 26.0743 29.2999 26.1567 29.4369 26.21C29.5055 26.2367 29.5627 26.2562 29.6029 26.269C29.623 26.2754 29.6389 26.2802 29.6498 26.2834L29.6624 26.287L29.6658 26.2879L29.6667 26.2882L29.667 26.2882L29.6671 26.2883L29.68 26.24ZM29.68 26.24L29.6929 26.2883L29.68 26.2917L29.6671 26.2883L29.68 26.24ZM12.88 8.90996H12.83V8.95996V30.08V30.13H12.88H25.36H25.41V30.08V29.12V29.07H25.36H13.89V9.96996H30.11V21.44V21.49H30.16H31.12H31.17V21.44V8.95996V8.90996H31.12H12.88ZM16.72 13.23H16.67V13.28V14.24V14.29H16.72H27.28H27.33V14.24V13.28V13.23H27.28H16.72ZM16.72 19.47H16.67V19.52V20.48V20.53H16.72H18.64H18.69V20.48V19.52V19.47H18.64H16.72ZM20.08 19.47H20.03V19.52V20.48V20.53H20.08H27.28H27.33V20.48V19.52V19.47H27.28H20.08ZM16.72 22.35H16.67V22.4V23.36V23.41H16.72H18.64H18.69V23.36V22.4V22.35H18.64H16.72ZM20.08 22.35H20.03V22.4V23.36V23.41H20.08H24.4881H24.5594L24.5351 23.3429C24.4824 23.1975 24.45 23.042 24.45 22.88C24.45 22.7179 24.4824 22.5625 24.5351 22.417L24.5594 22.35H24.4881H20.08ZM33.09 23.41H33.52C33.6757 23.41 33.809 23.3582 33.9036 23.2636C33.9982 23.169 34.05 23.0356 34.05 22.88C34.05 22.7243 33.9982 22.5909 33.9036 22.4963C33.809 22.4017 33.6757 22.35 33.52 22.35H25.84C25.6844 22.35 25.551 22.4017 25.4564 22.4963C25.3618 22.5909 25.31 22.7243 25.31 22.88C25.31 23.0356 25.3618 23.169 25.4564 23.2636C25.551 23.3582 25.6844 23.41 25.84 23.41H26.27V24.8C26.27 25.489 26.6147 26.1266 27.2012 26.614L27.2016 26.6144L27.9223 27.2012L27.2484 27.7856C26.6152 28.2727 26.27 28.8616 26.27 29.6V30.99H25.84C25.6844 30.99 25.551 31.0417 25.4564 31.1363C25.3618 31.2309 25.31 31.3643 25.31 31.52C25.31 31.6756 25.3618 31.809 25.4564 31.9036C25.551 31.9982 25.6844 32.05 25.84 32.05H33.52C33.6757 32.05 33.809 31.9982 33.9036 31.9036C33.9982 31.809 34.05 31.6756 34.05 31.52C34.05 31.3642 33.9981 31.2301 33.8966 31.1352C33.7954 31.0406 33.6503 30.99 33.4731 30.99H33.09V29.6C33.09 28.9131 32.794 28.2747 32.1585 27.7856L31.4832 27.2L32.1585 26.6143C32.794 26.1253 33.09 25.4868 33.09 24.8V23.41ZM16.72 25.23H16.67V25.28V26.24V26.29H16.72H18.64H18.69V26.24V25.28V25.23H18.64H16.72ZM20.08 25.23H20.03V25.28V26.24V26.29H20.08H25.7331H25.8172L25.7771 26.2161C25.6147 25.9172 25.506 25.6001 25.4544 25.2722L25.4478 25.23H25.405H20.08Z" fill="white" stroke="white" stroke-width="0.1"/>
</g>
<defs>
<clipPath id="clip0_556_1627">
<rect width="24" height="24" fill="white" transform="translate(10 8)"/>
</clipPath>
</defs>
</svg>
