<svg width="24" height="24" viewBox="0 0 24 24" fill="none" xmlns="http://www.w3.org/2000/svg">
<path d="M5.86464 7.52522C6.19421 4.38464 8.84218 2 12 2V2C15.1578 2 17.8058 4.38464 18.1354 7.52522L18.4578 10.5982C18.4925 10.9283 18.5098 11.0934 18.5337 11.2561C18.6612 12.1255 18.9311 12.968 19.3326 13.7497C19.4077 13.896 19.4895 14.0404 19.6532 14.3292L20.3094 15.4873C21.0609 16.8135 21.4367 17.4766 21.1489 17.9726C21.1483 17.9736 21.1476 17.9747 21.147 17.9757C20.8574 18.4707 20.0952 18.4707 18.5709 18.4707H5.4291C3.90477 18.4707 3.14261 18.4707 2.85298 17.9757C2.85236 17.9747 2.85174 17.9736 2.85113 17.9726C2.56332 17.4766 2.93907 16.8135 3.69058 15.4873L4.3468 14.3292C4.51047 14.0404 4.5923 13.896 4.66742 13.7497C5.06887 12.968 5.33879 12.1255 5.46634 11.2561C5.4902 11.0934 5.50752 10.9283 5.54217 10.5982L5.86464 7.52522Z" stroke="white"/>
<path d="M8.78041 18.9481C8.97033 19.8236 9.38881 20.5973 9.97096 21.1491C10.5531 21.7009 11.2664 22 12.0002 22C12.7339 22 13.4472 21.7009 14.0294 21.1491C14.6115 20.5973 15.03 19.8236 15.2199 18.9481" stroke="white" stroke-linecap="round"/>
</svg>
