<svg width="24" height="24" viewBox="0 0 24 24" fill="none" xmlns="http://www.w3.org/2000/svg">
<g clip-path="url(#clip0_5103_58747)">
<path d="M5.86463 7.52522C6.1942 4.38464 8.84218 2 12 2V2C15.1578 2 17.8058 4.38464 18.1354 7.52522L18.4578 10.598C18.4925 10.9281 18.5098 11.0932 18.5337 11.2558C18.6612 12.1253 18.9311 12.9678 19.3326 13.7496C19.4077 13.8958 19.4896 14.0402 19.6532 14.329L20.3094 15.487C21.0609 16.8131 21.4366 17.4762 21.1489 17.9722C21.1483 17.9733 21.1476 17.9743 21.147 17.9754C20.8573 18.4703 20.0952 18.4703 18.571 18.4703H5.42904C3.90479 18.4703 3.14266 18.4703 2.85302 17.9754C2.85239 17.9743 2.85175 17.9733 2.85112 17.9722C2.56335 17.4762 2.9391 16.8131 3.69058 15.487L4.3468 14.329C4.51044 14.0402 4.59227 13.8958 4.66738 13.7496C5.06886 12.9678 5.3388 12.1253 5.46635 11.2558C5.49021 11.0932 5.50753 10.9281 5.54217 10.598L5.86463 7.52522Z" stroke="white"/>
<path d="M8.77992 18.9481C8.96984 19.8237 9.38832 20.5973 9.97047 21.1491C10.5526 21.7009 11.2659 22 11.9997 22C12.7335 22 13.4467 21.7009 14.0289 21.1491C14.611 20.5973 15.0295 19.8237 15.2194 18.9481" stroke="white" stroke-linecap="round"/>
<circle cx="17.6768" cy="5.50049" r="4" fill="#00B027" stroke="#45494F"/>
</g>
<defs>
<clipPath id="clip0_5103_58747">
<rect width="24" height="24" fill="white"/>
</clipPath>
</defs>
</svg>
