<svg width="16" height="16" viewBox="0 0 16 16" fill="none" xmlns="http://www.w3.org/2000/svg">
<path d="M3.33333 2C2.598 2 2 2.598 2 3.33333V12.6667C2 13.402 2.598 14 3.33333 14H7.05859C6.88793 13.5793 6.77024 13.1327 6.71224 12.6667H3.33333V3.33333H6.11458C6.38992 4.10933 7.13067 4.66667 8 4.66667C8.86933 4.66667 9.61008 4.10933 9.88542 3.33333H12.6667V6.71224C13.1327 6.77024 13.5793 6.88793 14 7.05859V3.33333C14 2.598 13.402 2 12.6667 2H8.66667V2.66667C8.66667 3.034 8.36733 3.33333 8 3.33333C7.63267 3.33333 7.33333 3.034 7.33333 2.66667V2H3.33333ZM12 8C9.8 8 8 9.8 8 12C8 14.2 9.8 16 12 16C14.2 16 16 14.2 16 12C16 9.8 14.2 8 12 8ZM12 9.33333C13.4667 9.33333 14.6667 10.5333 14.6667 12C14.6667 13.4667 13.4667 14.6667 12 14.6667C10.5333 14.6667 9.33333 13.4667 9.33333 12C9.33333 10.5333 10.5333 9.33333 12 9.33333ZM12.2852 10.0781L11.2188 12.0924L12.6172 13.4909L13.3242 12.7839L12.4479 11.9076L13.1693 10.5456L12.2852 10.0781Z" fill="white"/>
</svg>
