<svg width="40" height="40" viewBox="0 0 40 40" fill="none" xmlns="http://www.w3.org/2000/svg">
<rect width="40" height="40" rx="20" fill="#45494F"/>
<path d="M13 11C11.897 11 11 11.897 11 13V27C11 28.103 11.897 29 13 29H18.5879C18.3319 28.369 18.1554 27.699 18.0684 27H13V13H17.1719C17.5849 14.164 18.696 15 20 15C21.304 15 22.4151 14.164 22.8281 13H27V18.0684C27.699 18.1554 28.369 18.3319 29 18.5879V13C29 11.897 28.103 11 27 11H21V12C21 12.551 20.551 13 20 13C19.449 13 19 12.551 19 12V11H13ZM26 20C22.7 20 20 22.7 20 26C20 29.3 22.7 32 26 32C29.3 32 32 29.3 32 26C32 22.7 29.3 20 26 20ZM26 22C28.2 22 30 23.8 30 26C30 28.2 28.2 30 26 30C23.8 30 22 28.2 22 26C22 23.8 23.8 22 26 22ZM26.4277 23.1172L24.8281 26.1387L26.9258 28.2363L27.9863 27.1758L26.6719 25.8613L27.7539 23.8184L26.4277 23.1172Z" fill="white"/>
</svg>
