<svg width="18" height="18" viewBox="0 0 18 18" fill="none" xmlns="http://www.w3.org/2000/svg">
<path d="M3.73587 0.195247C3.42806 0.170247 3.08587 0.25931 2.77025 0.481185C2.49212 0.674935 1.89212 1.1515 1.33118 1.69056C1.0515 1.95931 0.784309 2.239 0.578059 2.514C0.370246 2.789 0.188996 3.04056 0.199934 3.40618C0.210871 3.73431 0.243684 4.70462 0.942121 6.19212C1.64056 7.67806 2.99525 9.71712 5.63743 12.3609C8.28118 15.0046 10.3202 16.3593 11.8062 17.0577C13.2921 17.7562 14.264 17.789 14.5921 17.7999C14.9562 17.8109 15.2077 17.6296 15.4827 17.4218C15.7577 17.214 16.0374 16.9484 16.3062 16.6687C16.8437 16.1077 17.3202 15.5077 17.514 15.2296C17.9562 14.5999 17.8827 13.8562 17.3906 13.5109C17.0812 13.2937 14.2359 11.3999 13.8077 11.1374C13.3734 10.8718 12.8734 10.9921 12.4265 11.2281C12.0749 11.414 11.1234 11.9593 10.8515 12.1156C10.6468 11.9859 9.87025 11.4687 8.19993 9.79837C6.52806 8.12806 6.01243 7.3515 5.88275 7.14681C6.039 6.87494 6.58275 5.92806 6.77025 5.57025C7.00462 5.12494 7.13587 4.62025 6.85618 4.18275C6.739 3.99681 6.20618 3.18587 5.66868 2.37181C5.12962 1.55775 4.61868 0.785872 4.48587 0.601497V0.599935C4.31243 0.360873 4.04212 0.220247 3.73587 0.195247ZM3.66243 1.01243C3.77181 1.0265 3.83743 1.07025 3.83743 1.07025C3.9015 1.15931 4.46243 1.99994 4.99993 2.81243C5.53743 3.6265 6.08587 4.46087 6.18118 4.61243C6.19681 4.63587 6.21868 4.9015 6.06243 5.19681V5.19837C5.88587 5.53431 5.06243 6.97337 5.06243 6.97337L4.94837 7.17494L5.06556 7.37494C5.06556 7.37494 5.67962 8.41087 7.63275 10.364C9.58743 12.3171 10.6234 12.9327 10.6234 12.9327L10.8234 13.0499L11.0249 12.9359C11.0249 12.9359 12.4609 12.114 12.7999 11.9359C13.0952 11.7812 13.3609 11.8015 13.3921 11.8202C13.6687 11.9906 16.7421 14.0327 16.9312 14.1656C16.9374 14.1702 17.1046 14.4234 16.8609 14.7702H16.8593C16.7124 14.9812 16.2312 15.5921 15.7296 16.114C15.4781 16.3749 15.2202 16.6187 15.0015 16.7827C14.7827 16.9468 14.5874 16.9984 14.6187 16.9999C14.2781 16.989 13.5265 16.9812 12.1468 16.3327C10.7671 15.6859 8.79837 14.3906 6.20306 11.7937C3.60931 9.19993 2.314 7.23118 1.66556 5.84994C1.01868 4.47025 1.01087 3.71868 0.999934 3.37962C1.0015 3.41087 1.05306 3.214 1.21712 2.99525C1.38118 2.7765 1.62337 2.51712 1.88431 2.26556C2.40775 1.764 3.01712 1.28275 3.22806 1.13587V1.13743C3.4015 1.01556 3.55306 0.999935 3.66243 1.01243Z" fill="white"/>
</svg>
