<svg width="8" height="14" viewBox="0 0 8 14" fill="none" xmlns="http://www.w3.org/2000/svg">
<g id="Frame" clip-path="url(#clip0_3670_10728)">
<path id="Vector" d="M4 1.42871C2.59041 1.42871 1.44931 2.59187 1.44931 4.02871C1.44931 4.02871 1.44931 4.03849 1.44931 4.04826C1.44931 5.47533 2.6 6.62871 4 6.62871C5.4 6.62871 6.54109 5.46555 6.55068 4.04826C6.55068 4.04826 6.55068 4.03849 6.55068 4.02871C6.55068 2.59187 5.40958 1.42871 4 1.42871Z" fill="#AD0E3E"/>
<path id="Vector_2" d="M4 0.5C2.0726 0.5 0.5 2.08346 0.5 4.02857C0.5 5.71955 1.7274 7.19549 3.36712 7.4985V12.8549C3.36712 13.2068 3.65479 13.5 4 13.5C4.34521 13.5 4.63288 13.2165 4.63288 12.8549V7.4985C6.2726 7.19549 7.5 5.71955 7.5 4.02857C7.5 2.08346 5.9274 0.5 4 0.5ZM6.38767 4.02857C6.38767 4.02857 6.38767 4.03835 6.38767 4.04812C6.38767 5.38722 5.3137 6.47218 4 6.47218C2.6863 6.47218 1.62192 5.38722 1.61233 4.04812C1.61233 4.04812 1.61233 4.03835 1.61233 4.02857C1.61233 2.6797 2.6863 1.59474 4 1.59474C5.3137 1.59474 6.38767 2.68947 6.38767 4.02857Z" fill="#25292D"/>
</g>
<defs>
<clipPath id="clip0_3670_10728">
<rect width="7" height="13" fill="white" transform="translate(0.5 0.5)"/>
</clipPath>
</defs>
</svg>
