<svg width="40" height="40" viewBox="0 0 40 40" fill="none" xmlns="http://www.w3.org/2000/svg">
<rect width="40" height="40" rx="20" fill="#45494F"/>
<g clip-path="url(#clip0_556_1660)">
<path fillRule="evenodd" clipRule="evenodd" d="M10.8333 14H29.1667C29.627 14 30 14.3731 30 14.8333V24.8334C30 25.2939 29.627 25.6667 29.1667 25.6667H10.8333C10.3731 25.6667 10 25.2939 10 24.8334V14.8333C10 14.3731 10.3731 14 10.8333 14ZM13.1906 15.6667H11.6667V17.1908C12.3758 16.9394 12.9392 16.3764 13.1906 15.6667ZM11.6667 22.4758V24H13.1906C12.9392 23.2906 12.3758 22.7272 11.6667 22.4758ZM26.8095 24H28.3334V22.4758C27.6242 22.7272 27.0609 23.2903 26.8095 24ZM25.0842 24C25.4164 22.37 26.7034 21.0831 28.3334 20.7508V18.9158C26.7034 18.5836 25.4164 17.2967 25.0842 15.6667H14.9158C14.5836 17.2967 13.2967 18.5836 11.6667 18.9158V20.7508C13.2967 21.0831 14.5836 22.37 14.9158 24H25.0842ZM26.8095 15.6667C27.0609 16.3761 27.6242 16.9394 28.3334 17.1908V15.6667H26.8095ZM17.5 19.8333C17.5 18.4547 18.6214 17.3333 20 17.3333C21.3786 17.3333 22.5 18.4547 22.5 19.8333C22.5 21.2119 21.3786 22.3333 20 22.3333C18.6214 22.3333 17.5 21.2119 17.5 19.8333ZM19.1667 19.8333C19.1667 20.2931 19.5406 20.6667 20 20.6667C20.4595 20.6667 20.8334 20.2931 20.8334 19.8333C20.8334 19.3736 20.4595 19 20 19C19.5406 19 19.1667 19.3736 19.1667 19.8333Z" fill="white"/>
<rect x="23" y="20" width="8" height="8" fill="#45494F"/>
<path d="M22.9166 20.875V22.125H24.0833V22.9648C24.0833 23.7933 24.3903 24.5885 24.9378 25.1743L26.1751 26.5L24.9378 27.8257C24.3903 28.4115 24.0833 29.2067 24.0833 30.0352V30.875H22.9166V32.125H31.0833V30.875H29.9166V30.0352C29.9166 29.2068 29.6089 28.4115 29.0621 27.8257L27.8248 26.5L29.0621 25.1743C29.6093 24.588 29.9166 23.7933 29.9166 22.9648V22.125H31.0833V20.875H22.9166ZM25.25 22.125H28.75V22.9648C28.75 23.3363 28.6469 23.6952 28.4583 24H25.5416C25.3527 23.6955 25.25 23.3367 25.25 22.9648V22.125ZM27 27.3838L28.2373 28.7095C28.5655 29.0612 28.75 29.5385 28.75 30.0352V30.875H25.25V30.0352C25.25 29.5374 25.434 29.0623 25.7627 28.7107L27 27.3838Z" fill="white"/>
</g>
<defs>
<clipPath id="clip0_556_1660">
<rect width="24" height="24" fill="white" transform="translate(8 8)"/>
</clipPath>
</defs>
</svg>
