<svg width="24" height="24" viewBox="0 0 24 24" fill="none" xmlns="http://www.w3.org/2000/svg">
<path d="M19.0989 17.0277C19.9134 17.6911 20.5454 18.0033 21.1211 18.1334C21.1352 18.1334 21.1492 18.1334 21.1633 18.1334C21.3318 18.1724 21.5003 18.1854 21.6548 18.1854C21.9637 18.1854 22.2165 18.1334 22.4412 18.0424C23.2698 17.7302 24.1966 16.7676 23.986 14.0228C23.8315 12.1757 23.1855 9.89927 22.1744 7.63585C21.1492 5.35943 19.8572 3.34317 18.5372 1.9513C16.5711 -0.116994 15.1808 -0.169027 14.3523 0.143168C13.9169 0.312274 13.4395 0.676502 13.1305 1.40496C13.1024 1.47 13.0743 1.53504 13.0462 1.61309C13.0182 1.86024 12.962 2.22447 12.8215 2.69276C12.2036 4.80008 9.9848 8.89764 1.9099 12.5269C0.280882 13.2554 -0.4915 15.1285 0.337055 16.6245L0.365142 16.6765C0.365142 16.6765 1.06731 18.0944 4.69048 18.2245C5.16795 18.2375 5.61734 18.4326 5.91225 18.7708C7.13401 20.1887 10.4061 23.9871 10.4061 23.9871L14.3804 22.0359L10.2235 16.2733C10.2235 16.2733 15.3774 15.6749 18.9725 16.9497M21.1492 15.3887C20.9807 15.4537 20.3347 15.2066 19.4079 14.1139C18.4389 12.9822 17.4839 11.3432 16.7115 9.50902C15.9392 7.67488 15.4617 5.86675 15.3493 4.42284C15.251 3.01797 15.5459 2.44561 15.7145 2.39357C15.7285 2.39357 15.7426 2.39357 15.7706 2.39357C15.9953 2.39357 16.5992 2.67975 17.4558 3.66837C18.4248 4.80008 19.3798 6.4391 20.1522 8.27325C21.9497 12.5659 21.6688 15.2066 21.1492 15.3887Z" fill="white"/>
</svg>
