<svg width="40" height="40" viewBox="0 0 40 40" fill="none" xmlns="http://www.w3.org/2000/svg">
<rect width="40" height="40" rx="20" fill="#45494F"/>
<g clip-path="url(#clip0_556_1574)">
<path d="M19.9999 8C18.8224 8 17.8287 8.65063 16.3549 9.41C14.8812 10.1694 12.9031 11.0863 9.81494 11.765L9.43994 11.855V12.23C9.43994 19.5837 12.0181 24.4981 14.5999 27.545C17.1818 30.5919 19.8049 31.805 19.8049 31.805L20.0149 31.91L20.2249 31.805C20.2249 31.805 30.5599 26.465 30.5599 12.23V11.855L30.1849 11.765C27.0968 11.0863 25.1187 10.1694 23.6449 9.41C22.1712 8.65063 21.1774 8 19.9999 8ZM19.9999 8.96C20.7893 8.96 21.7043 9.49063 23.2099 10.265C24.6406 11 26.6524 11.9019 29.5699 12.59C29.3937 25.6062 20.6018 30.4888 19.9849 30.815C19.6868 30.6706 17.6093 29.6319 15.3199 26.93C12.9068 24.0819 10.5181 19.5013 10.4299 12.59C13.3474 11.9019 15.3593 11 16.7899 10.265C18.2956 9.49063 19.2106 8.96 19.9999 8.96Z" fill="white" stroke="white"/>
</g>
<defs>
<clipPath id="clip0_556_1574">
<rect width="24" height="24" fill="white" transform="translate(8 8)"/>
</clipPath>
</defs>
</svg>
