<svg width="30" height="30" viewBox="0 0 30 30" fill="none" xmlns="http://www.w3.org/2000/svg">
<path fillRule="evenodd" clipRule="evenodd" d="M4.24226 2.75587C4.62995 2.46037 5.15406 2.41719 5.58488 2.64527L26.8349 13.8953C27.2441 14.1119 27.5 14.537 27.5 15C27.5 15.463 27.2441 15.8881 26.8349 16.1048L5.58488 27.3548C5.15406 27.5828 4.62995 27.5396 4.24226 27.2441C3.85457 26.9486 3.67403 26.4546 3.77978 25.9789L6.21952 15L3.77978 4.02117C3.67403 3.5453 3.85457 3.05138 4.24226 2.75587ZM8.50273 16.25L6.80746 23.8788L21.2174 16.25H8.50273ZM21.2174 13.75H8.50273L6.80746 6.12125L21.2174 13.75Z" fill="#676767"/>
</svg>
