<svg width="40" height="40" viewBox="0 0 40 40" fill="none" xmlns="http://www.w3.org/2000/svg">
<rect width="40" height="40" rx="20" fill="#45494F"/>
<g clip-path="url(#clip0_1985_22929)">
<path d="M13.4688 25.6444C13.7 25.7248 13.8848 25.9112 13.9636 26.1436C14.0196 26.3104 14.1756 26.4156 14.3424 26.4156C14.3848 26.4156 14.428 26.4088 14.4704 26.394C14.68 26.3236 14.792 26.0964 14.7212 25.8872C14.564 25.4228 14.1944 25.0496 13.7312 24.8884C13.5224 24.816 13.2952 24.9268 13.2224 25.1352C13.1496 25.3436 13.2604 25.5716 13.4688 25.6444Z" fill="white"/>
<path d="M19.6 20.0001C19.6 18.2356 18.1644 16.8 16.4 16.8C14.6356 16.8 13.2 18.2356 13.2 20.0001C13.2 21.7645 14.6356 23.2001 16.4 23.2001C18.1644 23.2001 19.6 21.7645 19.6 20.0001ZM14 20.0001C14 18.6769 15.0768 17.6001 16.4 17.6001C17.7236 17.6001 18.8 18.6769 18.8 20.0001C18.8 21.3237 17.7236 22.4001 16.4 22.4001C15.0768 22.4001 14 21.3237 14 20.0001Z" fill="white"/>
<path d="M9.59998 26.4C9.59998 28.1644 11.0356 29.6 12.8 29.6C14.5644 29.6 16 28.1644 16 26.4C16 24.6355 14.5644 23.2 12.8 23.2C11.0356 23.2 9.59998 24.6356 9.59998 26.4ZM15.2 26.4C15.2 27.7236 14.1236 28.8 12.8 28.8C11.4768 28.8 10.4 27.7236 10.4 26.4C10.4 25.0768 11.4768 24 12.8 24C14.1236 24 15.2 25.0768 15.2 26.4Z" fill="white"/>
<path d="M31.4684 24.2024C31.3756 24.0224 29.4228 20.5532 27.8012 17.6748L25.3664 13.3556C24.728 12.2232 24.4248 11.6856 24.2468 11.4309L24.272 11.4181C23.4456 9.80322 21.8088 8.80005 20 8.80005C18.1932 8.80005 16.5552 9.80285 15.7328 11.4036C15.4472 11.9096 8.73598 23.8044 8.52838 24.2084C8.17798 24.8908 8 25.628 8 26.4C8 29.0468 10.1532 31.2 12.8 31.2H25.6C25.8212 31.2 26 31.0208 26 30.8C26 30.5793 25.8212 30.4 25.6 30.4H12.8C10.5948 30.4 8.80002 28.6056 8.80002 26.4001C8.80002 25.7565 8.948 25.1421 9.24003 24.574C9.40044 24.2616 14.0132 16.0796 16.4372 11.7828C17.1292 10.4365 18.4944 9.60002 20 9.60002C21.5068 9.60002 22.8708 10.436 23.5596 11.7824C23.5636 11.79 23.5676 11.7972 23.572 11.8048C23.6816 11.9964 30.5972 24.2584 30.7576 24.5692C31.0512 25.1388 31.2 25.7548 31.2 26.4C31.2 28.6056 29.4056 30.4 27.2 30.4C26.9793 30.4 26.8001 30.5792 26.8001 30.8C26.8001 31.0208 26.9793 31.2 27.2 31.2C29.8473 31.2 32 29.0468 32 26.4C32 25.6368 31.816 24.8768 31.4684 24.2024Z" fill="white"/>
<path d="M16.6636 19.2444C16.8948 19.3248 17.0796 19.5112 17.158 19.7436C17.214 19.91 17.37 20.0156 17.5368 20.0156C17.5796 20.0156 17.6224 20.0088 17.6648 19.994C17.8744 19.9236 17.9864 19.6964 17.9156 19.4872C17.7588 19.0228 17.3888 18.6496 16.9259 18.4884C16.7164 18.4156 16.4892 18.5268 16.4167 18.7352C16.3443 18.9436 16.4548 19.1715 16.6636 19.2444Z" fill="white"/>
<path d="M23.8636 19.2444C24.0948 19.3248 24.2796 19.5112 24.358 19.7436C24.414 19.91 24.57 20.0156 24.7368 20.0156C24.7796 20.0156 24.8224 20.0088 24.8648 19.994C25.0744 19.9236 25.1864 19.6964 25.1156 19.4872C24.9588 19.0228 24.5888 18.6496 24.126 18.4884C23.9168 18.4156 23.6896 18.5268 23.6168 18.7352C23.5444 18.9435 23.6548 19.1715 23.8636 19.2444Z" fill="white"/>
<path d="M26.8 20.0001C26.8 18.2356 25.3644 16.8 23.6 16.8C21.8356 16.8 20.4 18.2356 20.4 20.0001C20.4 21.7645 21.8356 23.2001 23.6 23.2001C25.3644 23.2001 26.8 21.7645 26.8 20.0001ZM21.2 20.0001C21.2 18.6769 22.2768 17.6001 23.6 17.6001C24.9236 17.6001 26 18.6769 26 20.0001C26 21.3237 24.9236 22.4001 23.6 22.4001C22.2768 22.4001 21.2 21.3237 21.2 20.0001Z" fill="white"/>
<path d="M27.8688 25.6444C28.1 25.7248 28.2848 25.9112 28.3636 26.1436C28.4196 26.3104 28.5756 26.4156 28.7424 26.4156C28.7848 26.4156 28.828 26.4088 28.8704 26.394C29.08 26.3236 29.192 26.0964 29.1212 25.8872C28.964 25.4228 28.5944 25.0496 28.1312 24.8884C27.9224 24.816 27.6948 24.9268 27.6224 25.1352C27.5496 25.3436 27.6604 25.5716 27.8688 25.6444Z" fill="white"/>
<path d="M20.2636 12.8443C20.4948 12.9247 20.6796 13.1111 20.758 13.3435C20.814 13.5103 20.97 13.6156 21.1368 13.6156C21.1796 13.6156 21.2224 13.6088 21.2648 13.5939C21.4744 13.5235 21.5864 13.2963 21.5156 13.0871C21.3588 12.6227 20.9888 12.2495 20.5259 12.0883C20.3172 12.0159 20.0892 12.1267 20.0167 12.3351C19.9444 12.5435 20.0548 12.7715 20.2636 12.8443Z" fill="white"/>
<path d="M27.2 29.6C28.9644 29.6 30.4 28.1644 30.4 26.4C30.4 24.6355 28.9644 23.2 27.2 23.2C25.4356 23.2 24 24.6355 24 26.4C24 28.1644 25.4356 29.6 27.2 29.6ZM27.2 24C28.5236 24 29.6 25.0768 29.6 26.4C29.6 27.7236 28.5236 28.8 27.2 28.8C25.8768 28.8 24.8 27.7236 24.8 26.4C24.8 25.0768 25.8768 24 27.2 24Z" fill="white"/>
<path d="M23.2 13.6002C23.2 11.8357 21.7644 10.4001 20 10.4001C18.2356 10.4001 16.8 11.8357 16.8 13.6002C16.8 15.3645 18.2356 16.8002 20 16.8002C21.7644 16.8001 23.2 15.3645 23.2 13.6002ZM17.6 13.6002C17.6 12.277 18.6768 11.2002 20 11.2002C21.3236 11.2002 22.4 12.277 22.4 13.6002C22.4 14.9238 21.3236 16.0002 20 16.0002C18.6768 16.0002 17.6 14.9237 17.6 13.6002Z" fill="white"/>
<path d="M20.2636 25.6444C20.4948 25.7248 20.6796 25.9112 20.758 26.1436C20.814 26.3104 20.97 26.4156 21.1368 26.4156C21.1796 26.4156 21.2224 26.4088 21.2648 26.394C21.4744 26.3236 21.5864 26.0964 21.5156 25.8872C21.3588 25.4228 20.9888 25.0496 20.5259 24.8884C20.3172 24.816 20.0892 24.9268 20.0167 25.1352C19.9444 25.3436 20.0548 25.5716 20.2636 25.6444Z" fill="white"/>
<path d="M20 29.6C21.7644 29.6 23.2 28.1644 23.2 26.4C23.2 24.6355 21.7644 23.2 20 23.2C18.2356 23.2 16.8 24.6355 16.8 26.4C16.8 28.1644 18.2356 29.6 20 29.6ZM20 24C21.3236 24 22.4 25.0768 22.4 26.4C22.4 27.7236 21.3236 28.8 20 28.8C18.6768 28.8 17.6 27.7236 17.6 26.4C17.6 25.0768 18.6768 24 20 24Z" fill="white"/>
</g>
<defs>
<clipPath id="clip0_1985_22929">
<rect width="24" height="24" fill="white" transform="translate(8 8)"/>
</clipPath>
</defs>
</svg>
