<svg width="38" height="38" viewBox="0 0 38 38" fill="none" xmlns="http://www.w3.org/2000/svg">
<rect width="38" height="38" rx="19" fill="#24282C"/>
<path d="M26.0711 11.9289C24.1823 10.0402 21.6711 9 19 9C16.3289 9 13.8177 10.0402 11.9289 11.9289C10.0402 13.8177 9 16.3289 9 19C9 21.6711 10.0402 24.1823 11.9289 26.0711C13.8177 27.9598 16.3289 29 19 29C21.6711 29 24.1823 27.9598 26.0711 26.0711C27.9599 24.1823 29 21.6711 29 19C29 16.3289 27.9598 13.8177 26.0711 11.9289ZM25.9993 12.8687L24.7293 16.7773L22.6848 17.4655L19.3452 15.039V12.8594L22.6691 10.4445C23.9536 10.9975 25.0895 11.8314 25.9993 12.8687ZM22.2203 17.9813L20.9902 21.7669H17.0098L15.7798 17.9813L19 15.6416L22.2203 17.9813ZM19 9.69036C20.0109 9.69036 20.9845 9.85296 21.8967 10.1523L19 12.2569L16.1033 10.1523C17.0154 9.85296 17.989 9.69036 19 9.69036ZM15.3309 10.4445L18.6548 12.8595V15.0391L15.3152 17.4655L13.2707 16.7773L12.0007 12.8687C12.9105 11.8314 14.0464 10.9975 15.3309 10.4445ZM9.69036 19C9.69036 16.9499 10.357 15.0528 11.4842 13.513L12.5903 16.9172L9.69072 19.0239C9.69063 19.0159 9.69036 19.008 9.69036 19ZM9.72948 19.849L13.0548 17.433L15.0993 18.1212L16.3758 22.0501L15.113 23.7635H11.0044C10.3077 22.5984 9.85848 21.2693 9.72948 19.849ZM11.46 24.4538H15.0366L16.1436 27.8607C14.2435 27.2468 12.6088 26.0376 11.46 24.4538ZM19 28.3096C18.2925 28.3096 17.6033 28.2299 16.9406 28.0797L15.6705 24.1706L16.9333 22.4573H21.0666L22.3295 24.1706L21.0594 28.0797C20.3967 28.2299 19.7075 28.3096 19 28.3096ZM21.8563 27.8608L22.9634 24.4538H26.54C25.3912 26.0376 23.7565 27.2468 21.8563 27.8608ZM26.9956 23.7634H22.887L21.6241 22.0501L22.9007 18.1212L24.9452 17.433L28.2705 19.849C28.1415 21.2693 27.6923 22.5984 26.9956 23.7634ZM25.4097 16.9172L26.5158 13.513C27.643 15.0528 28.3096 16.9499 28.3096 19C28.3096 19.0079 28.3094 19.0159 28.3093 19.0239L25.4097 16.9172Z" fill="white"/>
</svg>
