<svg width="16" height="16" viewBox="0 0 16 16" fill="none" xmlns="http://www.w3.org/2000/svg">
<path fillRule="evenodd" clipRule="evenodd" d="M14.7702 5.10317L10.4197 3.5775C9.83451 3.37242 9.18496 3.4832 8.70082 3.87064L8.03459 1.3323C7.76245 0.373483 6.77376 -0.191904 5.80938 0.0598033L1.3323 1.23903C0.373483 1.51117 -0.191904 2.49986 0.0598033 3.46424L2.0585 10.9927C2.32192 11.9595 3.31332 12.5354 4.28371 12.2851L5.56953 11.9454V12.0386C5.23443 12.9822 5.7219 14.0195 6.66215 14.3638L11.006 15.8895C11.9546 16.2099 12.9853 15.7123 13.3245 14.7702L15.8961 7.44164C16.0578 6.98227 16.0299 6.47744 15.8186 6.03866C15.6074 5.59988 15.2301 5.26327 14.7702 5.10317ZM11.3258 10.1332V11.5923L10.493 10.393L9.49363 10.6928C10.0031 10.2403 10.2144 9.53944 10.0399 8.8807L9.99331 8.74079L10.513 8.92734L11.3991 7.76143L11.3657 9.22714L12.7515 9.70683L11.3258 10.1332ZM4.16378 11.8388C3.81455 11.9399 3.43917 11.8939 3.12466 11.7115C2.81015 11.5291 2.58384 11.2261 2.49821 10.8727L0.499514 3.331C0.321881 2.60916 0.754173 1.87782 1.47221 1.68541L5.92263 0.499515C6.65048 0.313196 7.39285 0.746741 7.58821 1.47221L8.32773 4.26372L9.47365 8.56091L9.5869 8.99396V9.14719C9.68107 9.82244 9.26769 10.4652 8.61421 10.6595L5.74941 11.419L4.16378 11.8388ZM1.35094 2.53843C1.40983 2.45098 1.47415 2.35548 1.53884 2.24504C1.64632 2.30735 1.74688 2.35764 1.83942 2.40392C2.14265 2.55556 2.35969 2.6641 2.45157 3.01121C2.51101 3.23733 2.37728 3.46914 2.15177 3.53087C2.04216 3.56605 1.92226 3.52875 1.85197 3.43759C1.83778 3.5491 1.75516 3.63972 1.64543 3.66411C1.53582 3.69662 1.4177 3.683 1.31836 3.62642C1.21902 3.56983 1.14706 3.47517 1.11911 3.36431C1.02759 3.01856 1.16113 2.82027 1.35094 2.53843ZM8.96731 8.98064C8.90547 8.75153 8.67076 8.61486 8.44099 8.67417C8.33323 8.7019 8.25214 8.79083 8.23446 8.90069C8.161 8.81419 8.04422 8.77785 7.93465 8.80742C7.70823 8.87216 7.57505 9.10596 7.63485 9.33374C7.72577 9.67217 7.93925 9.78082 8.23753 9.93263L8.23756 9.93264C8.33268 9.98105 8.43643 10.0339 8.54759 10.0999C8.61158 9.99065 8.6752 9.89565 8.73358 9.80849C8.9244 9.52361 9.05914 9.32244 8.96731 8.98064ZM4.59684 4.89664C4.64401 4.64585 4.8303 4.44404 5.07652 4.37698C5.60431 4.23699 6.14607 4.54954 6.28906 5.07652C6.49803 5.87163 6.18841 6.3392 5.75395 6.9953C5.6205 7.19682 5.47528 7.41612 5.32969 7.66816C5.0774 7.52086 4.84207 7.40231 4.62612 7.29353C3.92392 6.93979 3.42665 6.68929 3.21774 5.88933C3.1511 5.63483 3.18893 5.36425 3.3228 5.13779C3.45668 4.91132 3.67551 4.74775 3.93061 4.68345C4.17513 4.62283 4.43293 4.70533 4.59684 4.89664Z" fill="white"/>
</svg>
