<svg width="18" height="17" viewBox="0 0 18 17" fill="none" xmlns="http://www.w3.org/2000/svg">
<path d="M16.7507 0.394487C16.5559 0.403034 16.3663 0.457256 16.1953 0.525737C16.026 0.593761 15.0515 1.00969 13.6124 1.62496C12.1734 2.24022 10.3027 3.04142 8.44838 3.83589C4.73969 5.42483 1.09526 6.98824 1.09526 6.98824L1.12182 6.97808C1.12182 6.97808 0.901861 7.0516 0.678852 7.20699C0.567348 7.28468 0.447387 7.38498 0.349164 7.53121C0.250942 7.67743 0.179135 7.88467 0.206196 8.10386C0.301245 8.87376 1.09916 9.09214 1.09916 9.09214L1.10229 9.09371L4.66323 10.3125C4.75402 10.6153 5.74327 13.9171 5.96088 14.6164C6.08106 15.0029 6.19355 15.226 6.31088 15.3781C6.3696 15.4542 6.43113 15.5131 6.49916 15.5562C6.5262 15.5733 6.55463 15.5862 6.58276 15.5976C6.58336 15.5979 6.58372 15.5973 6.58432 15.5976C6.58778 15.5991 6.59103 15.5993 6.59448 15.6007L6.5851 15.5984C6.59164 15.601 6.59809 15.6055 6.60463 15.6078C6.61733 15.6122 6.62511 15.6121 6.64135 15.6156C7.04917 15.758 7.38666 15.4937 7.38666 15.4937L7.40073 15.4828L9.58823 13.4539L13.1382 16.2218L13.1828 16.2421C13.8041 16.518 14.3661 16.3641 14.6773 16.1109C14.9885 15.8577 15.1109 15.5312 15.1109 15.5312L15.1242 15.4968L17.7328 1.90074C17.7995 1.59656 17.809 1.33364 17.746 1.09605C17.6831 0.858463 17.5301 0.651931 17.3382 0.537456C17.1463 0.422982 16.9455 0.38594 16.7507 0.394487ZM16.7718 1.20777C16.8509 1.2041 16.9096 1.21315 16.9281 1.22417C16.9466 1.2352 16.9549 1.23375 16.9726 1.30074C16.9903 1.36773 17 1.50882 16.9515 1.72964L16.9499 1.73433L14.3562 15.2515C14.3501 15.2651 14.296 15.3902 14.1726 15.4906C14.0467 15.593 13.9067 15.673 13.5351 15.5171L9.65307 12.4898L9.5437 12.4039L9.54135 12.4062L8.38041 11.5351L14.9046 3.85933C14.9548 3.8005 14.9868 3.72841 14.9968 3.65178C15.0068 3.57514 14.9945 3.49724 14.9612 3.42749C14.9278 3.35774 14.8751 3.29913 14.8091 3.25876C14.7432 3.21838 14.6671 3.19795 14.5898 3.19996C14.5143 3.20192 14.4409 3.22521 14.3781 3.26714L4.93745 9.56089L1.37104 8.3398C1.37104 8.3398 1.0169 8.14273 0.999946 8.00542C0.999006 7.99782 0.994824 8.0047 1.01323 7.9773C1.03163 7.9499 1.07789 7.90365 1.13588 7.86324C1.25187 7.78242 1.38432 7.73355 1.38432 7.73355L1.3976 7.72886L1.41088 7.72339C1.41088 7.72339 5.0555 6.15991 8.76401 4.57105C10.6183 3.77662 12.4886 2.976 13.9273 2.36089C15.3656 1.74594 16.4049 1.3033 16.4929 1.26792C16.5931 1.22781 16.6927 1.21143 16.7718 1.20777ZM12.4453 5.51714L7.4976 11.3382L7.49526 11.3406C7.48753 11.3499 7.48023 11.3595 7.47338 11.3695C7.46553 11.3803 7.45823 11.3915 7.45151 11.4031C7.42371 11.4503 7.40589 11.5026 7.39916 11.557C7.39916 11.558 7.39916 11.5591 7.39916 11.5601L6.75463 14.4585C6.74392 14.4272 6.73641 14.4158 6.72495 14.3789V14.3781C6.52023 13.7203 5.58689 10.6064 5.45776 10.1757L12.4453 5.51714ZM8.0562 12.2921L8.94526 12.9593L7.63901 14.1703L8.0562 12.2921Z" fill="white"/>
</svg>
