<svg width="40" height="40" viewBox="0 0 40 40" fill="none" xmlns="http://www.w3.org/2000/svg">
<rect width="40" height="40" rx="20" fill="#45494F"/>
<g clip-path="url(#clip0_1985_22955)">
<path d="M30.9433 14.7637C29.1604 12.9808 25.7141 13.5264 23.2614 15.9786C22.0904 17.15 21.3116 18.5813 21.069 20.0084C20.8407 21.3515 21.1133 22.5431 21.8276 23.4112L20 25.2391L18.172 23.4108C19.6798 21.5712 19.0832 18.3237 16.7393 15.979C14.2859 13.5267 10.8404 12.9808 9.05702 14.7641C8.17585 15.6445 7.82901 16.9419 8.07986 18.4163C8.32209 19.8438 9.10089 21.275 10.2723 22.4464C11.7508 23.9249 13.5907 24.7104 15.2094 24.7104C16.1251 24.7104 16.9692 24.457 17.6385 23.9376L19.4705 25.7697L15.8499 29.3911C15.7033 29.5377 15.7033 29.7747 15.8499 29.9213C15.923 29.9944 16.019 30.0312 16.115 30.0312C16.211 30.0312 16.307 29.9944 16.3801 29.9213L20.0007 26.2999L23.6214 29.9213C23.6945 29.9944 23.7905 30.0312 23.8865 30.0312C23.9825 30.0312 24.0785 29.9944 24.1516 29.9213C24.2982 29.7747 24.2982 29.5374 24.1516 29.3911L20.5309 25.7697L22.363 23.9376C23.032 24.4573 23.8756 24.7104 24.792 24.7104C26.4108 24.7104 28.2507 23.9249 29.7292 22.4464C30.9006 21.275 31.679 19.8441 31.9216 18.4163C32.1714 16.9415 31.8241 15.6442 30.9433 14.7637ZM10.8021 21.9158C9.73983 20.8536 9.03527 19.5659 8.81892 18.2907C8.61006 17.0623 8.88304 15.9981 9.58722 15.2943C10.1557 14.7263 10.9378 14.454 11.8096 14.454C13.2244 14.454 14.872 15.1725 16.2091 16.5092C18.3696 18.6701 18.9145 21.6406 17.424 23.1311C15.9331 24.6208 12.9627 24.076 10.8021 21.9158ZM31.1811 18.2903C30.9647 19.5659 30.2602 20.8532 29.1979 21.9155C27.0366 24.0764 24.0665 24.6205 22.576 23.1303C21.8722 22.4265 21.5996 21.3624 21.8081 20.134C22.0248 18.8584 22.729 17.5707 23.7913 16.5085C25.1284 15.1713 26.776 14.4533 28.1904 14.4533C29.0614 14.4533 29.8447 14.7255 30.4128 15.2936C31.117 15.9978 31.3899 17.0619 31.1811 18.2903Z" fill="white"/>
<path d="M20.3749 13.7194C21.4087 13.7194 22.2498 12.8783 22.2498 11.8446C22.2498 10.8108 21.4087 9.96973 20.3749 9.96973C19.3412 9.96973 18.5001 10.8108 18.5001 11.8446C18.5001 12.8783 19.3412 13.7194 20.3749 13.7194ZM20.3749 10.7197C20.9951 10.7197 21.4998 11.2244 21.4998 11.8446C21.4998 12.4647 20.9951 12.9694 20.3749 12.9694C19.7548 12.9694 19.2501 12.4647 19.2501 11.8446C19.2501 11.2244 19.7548 10.7197 20.3749 10.7197Z" fill="white"/>
</g>
<defs>
<clipPath id="clip0_1985_22955">
<rect width="24" height="24" fill="white" transform="translate(8 8)"/>
</clipPath>
</defs>
</svg>
