<svg width="24" height="24" viewBox="0 0 24 24" fill="none" xmlns="http://www.w3.org/2000/svg">
<circle cx="12" cy="12" r="12" fill="#E20B5C"/>
<path d="M7.52876 7.52858C7.78911 7.26823 8.21122 7.26823 8.47157 7.52858L12.0002 11.0572L15.5288 7.52858C15.7891 7.26823 16.2112 7.26823 16.4716 7.52858C16.7319 7.78892 16.7319 8.21103 16.4716 8.47138L12.943 12L16.4716 15.5286C16.7319 15.7889 16.7319 16.211 16.4716 16.4714C16.2112 16.7317 15.7891 16.7317 15.5288 16.4714L12.0002 12.9428L8.47157 16.4714C8.21122 16.7317 7.78911 16.7317 7.52876 16.4714C7.26841 16.211 7.26841 15.7889 7.52876 15.5286L11.0574 12L7.52876 8.47138C7.26841 8.21103 7.26841 7.78892 7.52876 7.52858Z" fill="white" stroke="white" stroke-miterlimit="10" strokeLinecap="round" strokeLinejoin="round"/>
</svg>
