<svg width="40" height="40" viewBox="0 0 40 40" fill="none" xmlns="http://www.w3.org/2000/svg">
<rect width="40" height="40" rx="20" fill="#45494F"/>
<mask id="mask0_556_1637" style="mask-type:alpha" maskUnits="userSpaceOnUse" x="12" y="12" width="18" height="18">
<path d="M27.9231 12C29.0203 12 29.9187 12.8848 29.9948 14.0057L30 14.16V27.84C30 28.9811 29.1492 29.9155 28.0714 29.9946L27.9231 30H14.0769C12.9797 30 12.0813 29.1152 12.0052 27.9943L12 27.84V14.16C12 13.0189 12.8508 12.0845 13.9286 12.0054L14.0769 12H27.9231ZM27.9231 13.44H14.0769C13.7264 13.44 13.4368 13.7109 13.3909 14.0623L13.3846 14.16V27.84C13.3846 28.2045 13.6451 28.5058 13.983 28.5534L14.0769 28.56H27.9231C28.2736 28.56 28.5632 28.2891 28.6091 27.9377L28.6154 27.84V14.16C28.6154 13.7624 28.3054 13.44 27.9231 13.44Z" fill="white"/>
</mask>
<g mask="url(#mask0_556_1637)">
<path fillRule="evenodd" clipRule="evenodd" d="M11 11H31V31H11V11Z" fill="white"/>
</g>
<mask id="mask1_556_1637" style="mask-type:alpha" maskUnits="userSpaceOnUse" x="15" y="16" width="12" height="4">
<path d="M18.6825 16.5703C18.9126 16.8096 18.9485 17.1785 18.7818 17.4581L18.7188 17.5477L17.8257 18.4801H25.5C25.8823 18.4801 26.1923 18.8025 26.1923 19.2001C26.1923 19.5646 25.9318 19.8659 25.5939 19.9135L25.5 19.9201H16.1538C15.8739 19.9207 15.6212 19.746 15.5134 19.4773C15.4201 19.2415 15.4545 18.9748 15.5977 18.7742L15.6657 18.6925L17.7426 16.5325C18.0173 16.2879 18.4268 16.3043 18.6825 16.5703Z" fill="white"/>
</mask>
<g mask="url(#mask1_556_1637)">
<path fillRule="evenodd" clipRule="evenodd" d="M14.4067 15.2878H27.1922V20.9207H14.4067V15.2878Z" fill="white"/>
</g>
<mask id="mask2_556_1637" style="mask-type:alpha" maskUnits="userSpaceOnUse" x="16" y="22" width="11" height="5">
<path d="M26.1923 22.4399C26.4722 22.4393 26.7249 22.6141 26.8327 22.8827C26.926 23.1186 26.8916 23.3853 26.7484 23.5859L26.6803 23.6675L24.6034 25.8275C24.4342 26.033 24.1686 26.1225 23.9157 26.0592C23.6628 25.996 23.4653 25.7906 23.4045 25.5276C23.3523 25.3022 23.4081 25.067 23.5495 24.8936L23.6273 24.8123L24.5203 23.8799H16.8461C16.4638 23.8799 16.1538 23.5576 16.1538 23.1599C16.1538 22.7954 16.4143 22.4942 16.7522 22.4465L16.8461 22.4399H26.1923Z" fill="white"/>
</mask>
<g mask="url(#mask2_556_1637)">
<path fillRule="evenodd" clipRule="evenodd" d="M15.1538 21.4395H27.9393V27.1226H15.1538V21.4395Z" fill="white"/>
</g>
</svg>
