<svg width="16" height="16" viewBox="0 0 16 16" fill="none" xmlns="http://www.w3.org/2000/svg">
<path fillRule="evenodd" clipRule="evenodd" d="M9.72416 14.116L10.8225 11.8899L13.2865 11.533C13.9395 10.5614 14.3096 9.42719 14.3556 8.25744L12.563 6.52026L12.98 4.06766C12.259 3.15165 11.301 2.45042 10.2096 2.0404L8.00001 3.20233L5.78208 2.0404C4.69088 2.45042 3.73266 3.15165 3.01171 4.06766L3.43705 6.52026L1.64445 8.25744C1.6922 9.42784 2.06457 10.5621 2.72001 11.533L5.17749 11.8899L6.27586 14.116C7.40307 14.4354 8.59694 14.4354 9.72416 14.116ZM0.666672 7.99996C0.666672 3.94984 3.94989 0.666626 8 0.666626C12.05 0.666626 15.3333 3.94984 15.3333 7.99996C15.3333 12.0499 12.05 15.3333 8 15.3333C3.94989 15.3333 0.666672 12.0499 0.666672 7.99996ZM6.2758 10.3775L5.21002 7.09871L7.99995 5.07145L10.7899 7.09871L9.72409 10.3775H6.2758Z" fill="white"/>
</svg>
