<svg width="20" height="17" viewBox="0 0 20 17" fill="none" xmlns="http://www.w3.org/2000/svg">
<path d="M13.6875 0.1875C11.2954 0.1875 9.35005 2.13281 9.35005 4.525C9.35005 4.66875 9.38599 4.80938 9.40005 4.95C6.44224 4.66719 3.82661 3.24219 2.05005 1.0625C1.96724 0.957812 1.83911 0.901563 1.70474 0.910938C1.57192 0.920313 1.45317 0.996875 1.38755 1.1125C1.01411 1.75469 0.80005 2.49375 0.80005 3.2875C0.80005 4.24844 1.1438 5.12813 1.67505 5.85C1.57192 5.80469 1.45942 5.77969 1.36255 5.725C1.23911 5.65938 1.09067 5.6625 0.970362 5.73438C0.85005 5.80625 0.776612 5.93594 0.77505 6.075V6.125C0.77505 7.59844 1.53755 8.87813 2.66255 9.6625C2.65005 9.66094 2.63755 9.66563 2.62505 9.6625C2.48755 9.63906 2.34849 9.6875 2.2563 9.79219C2.16411 9.89688 2.13442 10.0422 2.17505 10.175C2.62192 11.5641 3.76255 12.625 5.17505 13.0125C4.05005 13.6813 2.74536 14.075 1.33755 14.075C1.03286 14.075 0.740675 14.0594 0.45005 14.025C0.26255 14 0.0828621 14.1094 0.0203623 14.2875C-0.0437003 14.4656 0.0266123 14.6641 0.18755 14.7625C1.99224 15.9203 4.13442 16.6 6.43755 16.6C10.1704 16.6 13.0985 15.0406 15.0625 12.8125C17.0266 10.5844 18.05 7.69063 18.05 4.9875C18.05 4.87344 18.0407 4.7625 18.0375 4.65C18.7704 4.08906 19.425 3.43125 19.9375 2.6625C20.0391 2.51406 20.0282 2.31563 19.911 2.17813C19.7954 2.04063 19.6 1.99844 19.4375 2.075C19.2313 2.16719 18.9907 2.17656 18.775 2.25C19.0594 1.87031 19.3032 1.46094 19.45 1C19.5 0.842188 19.4454 0.66875 19.3157 0.565625C19.186 0.464062 19.0047 0.451562 18.8625 0.5375C18.1797 0.942188 17.4235 1.22656 16.625 1.4C15.85 0.675 14.8297 0.1875 13.6875 0.1875ZM13.6875 0.9875C14.7079 0.9875 15.6297 1.42344 16.275 2.1125C16.3719 2.2125 16.5141 2.25469 16.65 2.225C17.1719 2.12188 17.6672 1.97031 18.15 1.775C17.8719 2.15 17.5282 2.47031 17.125 2.7125C16.9422 2.80156 16.8563 3.0125 16.9235 3.20469C16.9891 3.39531 17.1891 3.50625 17.3875 3.4625C17.7875 3.41406 18.1438 3.25156 18.525 3.15C18.1829 3.52031 17.8079 3.85469 17.4 4.15C17.2891 4.23125 17.2282 4.3625 17.2375 4.5C17.2438 4.6625 17.25 4.82344 17.25 4.9875C17.25 7.4875 16.2907 10.2016 14.4625 12.275C12.6344 14.3484 9.95005 15.8 6.43755 15.8C4.84224 15.8 3.33599 15.4469 1.97505 14.825C3.66255 14.6953 5.2188 14.0984 6.47505 13.1125C6.6063 13.0078 6.65786 12.8328 6.60474 12.6734C6.55161 12.5141 6.40474 12.4047 6.23755 12.4C4.9188 12.3766 3.81411 11.6094 3.22505 10.525C3.24692 10.525 3.26567 10.525 3.28755 10.525C3.68286 10.525 4.07349 10.475 4.43755 10.375C4.61255 10.3234 4.73286 10.1609 4.72661 9.97813C4.72036 9.79531 4.59067 9.63906 4.41255 9.6C2.98911 9.3125 1.92192 8.15313 1.67505 6.7125C2.07817 6.85156 2.49067 6.96094 2.93755 6.975C3.12036 6.98594 3.28599 6.87188 3.34224 6.69844C3.39849 6.525 3.32974 6.33438 3.17505 6.2375C2.22505 5.60156 1.60005 4.51875 1.60005 3.2875C1.60005 2.83125 1.7188 2.4125 1.87505 2.0125C3.87505 4.20781 6.67505 5.66563 9.83755 5.825C9.96255 5.83125 10.0844 5.77969 10.1657 5.68438C10.2469 5.5875 10.2782 5.45938 10.25 5.3375C10.1891 5.07813 10.15 4.80313 10.15 4.525C10.15 2.56563 11.7282 0.9875 13.6875 0.9875Z" fill="white"/>
</svg>
