<svg width="40" height="40" viewBox="0 0 40 40" fill="none" xmlns="http://www.w3.org/2000/svg">
<rect width="40" height="40" rx="20" fill="#45494F"/>
<g clip-path="url(#clip0_1985_22968)">
<path d="M28.4854 11.5147C26.2189 9.24823 23.2054 8 20.0002 8C16.7949 8 13.7815 9.24828 11.515 11.5148C9.24848 13.7813 8.00024 16.7947 8.00024 19.9999C8.00024 23.2052 9.24848 26.2187 11.515 28.4852C13.7814 30.7517 16.7948 32 20.0002 32C23.2055 32 26.2189 30.7517 28.4854 28.4852C30.7519 26.2187 32.0002 23.2052 32.0002 20C32.0002 16.7946 30.7519 13.7812 28.4854 11.5147ZM30.1162 15.263C29.1712 17.9009 27.6367 20.1843 25.6704 21.8745C23.9276 23.3725 21.8778 24.3535 19.8588 24.6631C19.5819 23.1365 19.726 21.6482 20.277 20.3901C22.0393 20.1976 23.785 19.319 25.2181 17.8968C26.6711 16.455 27.6927 14.5741 28.2001 12.4214C28.9757 13.2601 29.6246 14.2174 30.1162 15.263ZM20.0002 8.82842C22.8848 8.82842 25.5174 9.9274 27.5017 11.7286C27.3781 12.3714 27.207 12.9899 26.9909 13.5794C24.8047 11.005 21.3567 9.39533 17.5225 9.10583C18.3197 8.92456 19.1489 8.82842 20.0002 8.82842ZM15.178 9.92389C19.8539 9.60795 24.2095 11.3328 26.6295 14.4478C26.1408 15.4942 25.4983 16.4303 24.7176 17.2247C23.3348 15.5139 21.3897 14.1862 19.0626 13.3704C16.7482 12.5591 14.1858 12.3152 11.5925 12.6522C12.5857 11.5172 13.8042 10.584 15.178 9.92389ZM10.8441 13.6071C13.5995 13.1074 16.3429 13.2948 18.7885 14.1521C20.9572 14.9124 22.8317 16.1971 24.1094 17.7909C22.9257 18.794 21.5648 19.4133 20.1997 19.5652C19.1518 18.1352 17.5181 17.0626 15.5699 16.5327C13.5923 15.9948 11.4497 16.0511 9.32919 16.6902C9.67476 15.5785 10.1901 14.5409 10.8441 13.6071ZM8.82871 19.9999C8.82871 19.1909 8.91599 18.4019 9.0801 17.6412C9.70054 17.4258 10.3238 17.264 10.9446 17.1562C9.81037 20.3302 10.1364 24.1122 11.7942 27.5718C9.95455 25.5796 8.82871 22.9189 8.82871 19.9999ZM13.6803 29.2066C11.0727 25.3167 10.3906 20.6858 11.8774 17.0349C13.0279 16.9349 14.1598 17.0234 15.2381 17.3022C14.448 19.3553 14.2707 21.7036 14.7278 24.1267C15.1828 26.5396 16.2548 28.8832 17.8465 30.9623C16.3251 30.6639 14.9136 30.0559 13.6803 29.2066ZM20.0002 31.1715C19.6787 31.1715 19.3605 31.157 19.0457 31.1303C17.2332 28.9927 16.0225 26.5216 15.5418 23.9732C15.1159 21.7149 15.2911 19.4492 16.0324 17.5458C17.493 18.0694 18.7098 18.9383 19.5239 20.0445C18.8095 21.667 18.6975 23.6181 19.2126 25.5703C19.7354 27.5519 20.8556 29.3792 22.4693 30.8961C21.6747 31.076 20.8484 31.1715 20.0002 31.1715ZM23.4174 30.6363C22.9207 30.2067 22.4691 29.7478 22.0653 29.2643C25.3879 28.6581 28.506 26.4772 30.6736 23.3015C29.5978 26.7722 26.872 29.5237 23.4174 30.6363ZM21.4939 28.5171C20.8322 27.5707 20.3427 26.5461 20.045 25.4729C22.2181 25.1307 24.3404 24.1101 26.2104 22.5027C28.0725 20.9022 29.5661 18.802 30.5709 16.384C30.9601 17.5187 31.1718 18.735 31.1718 19.9999C31.1718 20.2888 31.1608 20.5752 31.1391 20.8586C29.0751 25.0679 25.4026 27.9787 21.4939 28.5171Z" fill="white"/>
</g>
<defs>
<clipPath id="clip0_1985_22968">
<rect width="24" height="24" fill="white" transform="translate(8 8)"/>
</clipPath>
</defs>
</svg>
