<svg width="24" height="24" viewBox="0 0 24 24" fill="none" xmlns="http://www.w3.org/2000/svg">
<path d="M17.0909 6.27271H6.90909C5.85473 6.27271 5 7.12743 5 8.1818V17.0909C5 18.1452 5.85473 19 6.90909 19H17.0909C18.1453 19 19 18.1452 19 17.0909V8.1818C19 7.12743 18.1453 6.27271 17.0909 6.27271Z" stroke="white" stroke-linecap="round" stroke-linejoin="round"/>
<path d="M5 10.0908H19" stroke="white" stroke-linecap="round" stroke-linejoin="round"/>
<path d="M12 7.54545V5" stroke="white" stroke-linecap="round" stroke-linejoin="round"/>
<path d="M8.18182 7.54545V5" stroke="white" stroke-linecap="round" stroke-linejoin="round"/>
<path d="M15.8182 7.54545V5" stroke="white" stroke-linecap="round" stroke-linejoin="round"/>
<path d="M7.54541 13.2727H8.81814" stroke="white" stroke-linecap="round" stroke-linejoin="round"/>
<path d="M11.3636 13.2727H12.6364" stroke="white" stroke-linecap="round" stroke-linejoin="round"/>
<path d="M15.1818 13.2727H16.4546" stroke="white" stroke-linecap="round" stroke-linejoin="round"/>
<path d="M7.54541 15.8181H8.81814" stroke="white" stroke-linecap="round" stroke-linejoin="round"/>
<path d="M11.3636 15.8181H12.6364" stroke="white" stroke-linecap="round" stroke-linejoin="round"/>
<path d="M15.1818 15.8181H16.4546" stroke="white" stroke-linecap="round" stroke-linejoin="round"/>
</svg>
