<svg width="32" height="32" viewBox="0 0 32 32" fill="none" xmlns="http://www.w3.org/2000/svg">
<rect width="32" height="32" rx="16" fill="#D6C08F"/>
<path d="M23.8 12.6531H22.58C21.58 9.9362 18.96 8.125 16 8.125C13.04 8.125 10.42 9.93624 9.42005 12.6531H8.20006C7.54007 12.6531 7 13.1847 7 13.8344V16.1969C7 16.8465 7.54003 17.3782 8.20006 17.3782H9.70005C9.82003 17.3782 9.94001 17.3191 10.0201 17.2207C10.1 17.1222 10.1201 16.9845 10.0801 16.8664C9.88002 16.2757 9.78013 15.6458 9.78013 15.0157C9.78013 14.3856 9.88016 13.7557 10.0801 13.1651C10.9201 10.6253 13.28 8.91258 16 8.91258C18.7201 8.91258 21.08 10.6254 21.9 13.1651C22.1 13.7557 22.1999 14.3856 22.1999 15.0157C22.1999 15.6458 22.0999 16.2757 21.9 16.8664C21.08 19.406 18.72 21.1188 16 21.1188H13.0001C12.2201 21.1188 11.6001 21.7291 11.6001 22.4969C11.6001 23.2647 12.2201 23.875 13.0001 23.875H15C15.78 23.875 16.4 23.2647 16.4 22.4969V21.8866C19.1999 21.7291 21.62 19.977 22.5799 17.3782L23.7999 17.3781C24.4599 17.3781 25 16.8465 25 16.1968V13.8343C25 13.1848 24.46 12.6532 23.7999 12.6532L23.8 12.6531ZM9.18006 16.5906H8.20013C7.98013 16.5906 7.80017 16.4134 7.80017 16.1969L7.80003 13.8343C7.80003 13.6177 7.98 13.4406 8.19999 13.4406H9.18002C9.06005 13.9524 9.00006 14.484 9.00006 15.0156C9.00006 15.5472 9.06005 16.0786 9.18002 16.5906L9.18006 16.5906ZM15.6 22.4968C15.6 22.8315 15.34 23.0875 15 23.0875H13C12.66 23.0875 12.4 22.8315 12.4 22.4968C12.4 22.1621 12.66 21.9061 13 21.9061H15.6V22.4968ZM24.1999 16.1968C24.1999 16.4134 24.02 16.5905 23.8 16.5905H22.82C22.9399 16.0787 22.9999 15.5471 22.9999 15.0155C22.9999 14.4839 22.9399 13.9525 22.82 13.4405H23.7999C24.0199 13.4405 24.1998 13.6176 24.1998 13.8342L24.1999 16.1968ZM20.9999 15.0155C20.9999 12.2986 18.76 10.0937 15.9999 10.0937C13.2399 10.0937 11 12.2986 11 15.0155C11 16.1968 11.42 17.3189 12.2 18.2048L11.1201 19.2679C11.0001 19.386 10.98 19.5435 11.0402 19.701C11.1002 19.8389 11.2402 19.9372 11.4001 19.9372H16.0001C18.7599 19.9374 21 17.7324 21 15.0154L20.9999 15.0155ZM13.04 17.9292C12.24 17.1418 11.8 16.118 11.8 15.0155C11.8 12.7317 13.68 10.8812 16 10.8812C18.32 10.8812 20.1999 12.7318 20.1999 15.0155C20.1999 17.2992 18.3199 19.1499 16 19.1499H12.3596L13.0196 18.5002C13.1797 18.3427 13.1797 18.0867 13.0397 17.9292L13.04 17.9292ZM15.5999 15.0155C15.5999 14.7989 15.7799 14.6218 15.9999 14.6218C16.2199 14.6218 16.3999 14.799 16.3999 15.0155C16.3999 15.2321 16.2199 15.4092 15.9999 15.4092C15.7799 15.4092 15.5999 15.2321 15.5999 15.0155ZM17.5999 15.0155C17.5999 14.7989 17.7799 14.6218 17.9999 14.6218C18.2199 14.6218 18.3998 14.799 18.3998 15.0155C18.3998 15.2321 18.2199 15.4092 17.9999 15.4092C17.7799 15.4092 17.5999 15.2321 17.5999 15.0155ZM13.6 15.0155C13.6 14.7989 13.7799 14.6218 13.9999 14.6218C14.2199 14.6218 14.3999 14.799 14.3999 15.0155C14.3999 15.2321 14.2199 15.4092 13.9999 15.4092C13.7799 15.4092 13.6 15.2321 13.6 15.0155Z" fill="white"/>
</svg>
