<svg width="43" height="42" viewBox="0 0 43 42" fill="none" xmlns="http://www.w3.org/2000/svg">
<g clipPath="url(#clip0_1852_54249)">
<path d="M21.5 27.8086C20.4806 27.8086 19.6543 28.6349 19.6543 29.6543C19.6543 30.6737 20.4806 31.5 21.5 31.5C22.5194 31.5 23.3457 30.6737 23.3457 29.6543C23.3457 28.6349 22.5194 27.8086 21.5 27.8086Z" fill="white"/>
<path d="M21.5 10.5C20.4806 10.5 19.6543 11.3263 19.6543 12.3457V24.6094C19.6543 25.6287 20.4806 26.4551 21.5 26.4551C22.5194 26.4551 23.3457 25.6287 23.3457 24.6094V12.3457C23.3457 11.3263 22.5194 10.5 21.5 10.5Z" fill="white"/>
</g>
<circle cx="21.5" cy="21" r="19.5" stroke="#BC9239" stroke-width="3"/>
<circle cx="21.5" cy="21" r="19.5" stroke="url(#paint0_linear_1852_54249)" stroke-opacity="0.2" stroke-width="3"/>
<defs>
<linearGradient id="paint0_linear_1852_54249" x1="21.5" y1="0" x2="18.0545" y2="29.7954" gradientUnits="userSpaceOnUse">
<stop stop-color="white"/>
<stop offset="1" stop-color="white" stop-opacity="0"/>
</linearGradient>
<clipPath id="clip0_1852_54249">
<rect width="21" height="21" fill="white" transform="translate(11 10.5)"/>
</clipPath>
</defs>
</svg>
