<svg width="351" height="144" viewBox="0 0 351 144" fill="none" xmlns="http://www.w3.org/2000/svg">
<path d="M348.324 1.40958e-06C349.802 1.47254e-06 350 1.52358e-06 351 0.00011513L351 144C350 144 349.802 144 348.324 144L2.67562 144C1.19772 144 1.99994 144 -0.000311634 144L-0.000305176 -4.0727e-06C1.49988 -2.04679e-05 1.19772 -1.33796e-05 2.67563 -1.33166e-05L348.324 1.40958e-06Z" fill="url(#paint0_radial_4665_54933)"/>
<g opacity="0.05">
<g clipPath="url(#clip0_4665_54933)">
<path d="M351 0L351 144L281 144L281 -2.98232e-06L351 0Z" fill="black"/>
<path d="M69 0L69 144L-0.999999 144L-0.999992 -2.98232e-06L69 0Z" fill="black"/>
<path d="M210 0L210 144L140 144L140 -3.70112e-06L210 0Z" fill="black"/>
</g>
</g>
<path fillRule="evenodd" clipRule="evenodd" d="M156.897 74.2641C156.897 83.5474 164.982 91.1812 175.095 91.1812C185.209 91.1812 193.293 83.5474 193.293 74.2641C193.293 64.9808 185.209 57.347 175.095 57.347C164.982 57.347 156.897 64.9808 156.897 74.2641ZM154.672 74.2641C154.672 84.7888 163.816 93.3207 175.095 93.3207C186.375 93.3207 195.519 84.7888 195.519 74.2641C195.519 63.7395 186.375 55.2075 175.095 55.2075C163.816 55.2075 154.672 63.7394 154.672 74.2641Z" fill="white"/>
<path d="M176.107 22L176.107 122L174.489 122L174.489 22L176.107 22Z" fill="white"/>
<path d="M175.275 75.92C174.394 75.92 173.68 75.2536 173.68 74.4317C173.68 73.6097 174.394 72.9434 175.275 72.9434C176.156 72.9434 176.87 73.6097 176.87 74.4317C176.87 75.2536 176.156 75.92 175.275 75.92Z" fill="white"/>
<mask id="mask0_4665_54933" style="mask-type:alpha" maskUnits="userSpaceOnUse" x="15" y="22" width="321" height="100">
<path d="M335.045 22L335.045 122L15.9545 122L15.9545 22L335.045 22Z" fill="#C4C4C4"/>
</mask>
<g mask="url(#mask0_4665_54933)">
<path fillRule="evenodd" clipRule="evenodd" d="M330.409 22.0001C330.409 24.4318 332.537 26.4898 335.274 26.4898C338.012 26.4898 340.14 24.4318 340.14 22.0001C340.14 19.5683 338.012 17.5104 335.274 17.5104C332.537 17.5104 330.409 19.5683 330.409 22.0001ZM328.628 22.0001C328.628 25.4249 331.604 28.2013 335.274 28.2013C338.945 28.2013 341.92 25.4249 341.92 22.0001C341.92 18.5752 338.945 15.7988 335.274 15.7988C331.604 15.7988 328.628 18.5752 328.628 22.0001Z" fill="white"/>
<path fillRule="evenodd" clipRule="evenodd" d="M330.355 122.164C330.355 124.595 332.483 126.653 335.221 126.653C337.958 126.653 340.086 124.595 340.086 122.164C340.086 119.732 337.958 117.674 335.221 117.674C332.483 117.674 330.355 119.732 330.355 122.164ZM328.575 122.164C328.575 125.589 331.55 128.365 335.221 128.365C338.891 128.365 341.867 125.589 341.867 122.164C341.867 118.739 338.891 115.962 335.221 115.962C331.55 115.962 328.575 118.739 328.575 122.164Z" fill="white"/>
<path fillRule="evenodd" clipRule="evenodd" d="M11.7629 22.0001C11.7629 24.1836 13.6789 26.0619 16.1835 26.0619C18.688 26.0619 20.6041 24.1836 20.6041 22.0001C20.6041 19.8166 18.688 17.9383 16.1835 17.9383C13.6789 17.9383 11.7629 19.8166 11.7629 22.0001ZM9.53745 22.0001C9.53745 25.4249 12.513 28.2013 16.1835 28.2013C19.854 28.2013 22.8295 25.4249 22.8295 22.0001C22.8295 18.5752 19.854 15.7988 16.1835 15.7988C12.513 15.7988 9.53745 18.5752 9.53745 22.0001Z" fill="white"/>
<path fillRule="evenodd" clipRule="evenodd" d="M11.7094 121.031C11.7094 123.215 13.6255 125.093 16.13 125.093C18.6346 125.093 20.5506 123.215 20.5506 121.031C20.5506 118.848 18.6346 116.97 16.13 116.97C13.6255 116.97 11.7094 118.848 11.7094 121.031ZM9.48398 121.031C9.48398 124.456 12.4595 127.233 16.13 127.233C19.8005 127.233 22.7761 124.456 22.7761 121.031C22.7761 117.606 19.8005 114.83 16.13 114.83C12.4595 114.83 9.48398 117.606 9.48398 121.031Z" fill="white"/>
<path fillRule="evenodd" clipRule="evenodd" d="M333.412 96.1377L333.412 47.8627L314.729 47.8627L314.729 96.1377L333.412 96.1377ZM335.192 46.1511L312.949 46.1511L312.949 97.8492L335.192 97.8492L335.192 46.1511Z" fill="white"/>
<path fillRule="evenodd" clipRule="evenodd" d="M333.412 77.2697L333.412 66.7306L329.289 66.7306L329.289 77.2697L333.412 77.2697ZM335.192 65.019L327.508 65.019L327.508 78.9813L335.192 78.9813L335.192 65.019Z" fill="white"/>
<path d="M319.879 72.5662C319.544 72.5662 319.272 72.3127 319.272 72.0001C319.272 71.6875 319.544 71.4341 319.879 71.4341C320.214 71.4341 320.485 71.6875 320.485 72.0001C320.485 72.3127 320.214 72.5662 319.879 72.5662Z" fill="white"/>
<path fillRule="evenodd" clipRule="evenodd" d="M312.669 61.9115C309.399 64.1743 307.302 67.7894 307.302 71.8369C307.302 75.8843 309.399 79.4994 312.669 81.7622L312.669 61.9115ZM312.669 59.8636C313.238 59.5342 313.833 59.2391 314.449 58.9814L314.449 84.6923C313.833 84.4346 313.238 84.1395 312.669 83.8101C308.379 81.3274 305.522 76.8935 305.522 71.8369C305.522 66.7803 308.379 62.3463 312.669 59.8636Z" fill="white"/>
<path fillRule="evenodd" clipRule="evenodd" d="M17.7345 48.2398L17.7345 96.5147L36.4171 96.5147L36.4171 48.2398L17.7345 48.2398ZM15.9542 98.2263L38.1975 98.2263L38.1975 46.5282L15.9542 46.5282L15.9542 98.2263Z" fill="white"/>
<path fillRule="evenodd" clipRule="evenodd" d="M17.7345 67.1075L17.7345 77.6466L21.8579 77.6466L21.8579 67.1075L17.7345 67.1075ZM15.9542 79.3582L23.6382 79.3582L23.6382 65.3959L15.9542 65.3959L15.9542 79.3582Z" fill="white"/>
<path d="M31.2671 71.8113C31.6021 71.8113 31.8737 72.0647 31.8737 72.3773C31.8737 72.6899 31.6021 72.9434 31.2671 72.9434C30.9321 72.9434 30.6605 72.6899 30.6605 72.3773C30.6605 72.0647 30.9321 71.8113 31.2671 71.8113Z" fill="white"/>
<path fillRule="evenodd" clipRule="evenodd" d="M38.4781 82.4661C41.7478 80.2033 43.8447 76.5883 43.8447 72.5408C43.8447 68.4934 41.7478 64.8783 38.4781 62.6155L38.4781 82.4661ZM38.4781 84.514C37.9088 84.8435 37.3142 85.1386 36.6978 85.3962L36.6978 59.6854C37.3142 59.9431 37.9088 60.2382 38.4781 60.5676C42.7681 63.0503 45.6251 67.4842 45.6251 72.5408C45.6251 77.5974 42.7681 82.0314 38.4781 84.514Z" fill="white"/>
<path fillRule="evenodd" clipRule="evenodd" d="M332.82 119.861L332.82 24.1395L18.18 24.1395L18.1799 119.861L332.82 119.861ZM335.045 22L15.9545 22L15.9545 122L335.045 122L335.045 22Z" fill="white"/>
</g>
<defs>
<radialGradient id="paint0_radial_4665_54933" cx="0" cy="0" r="1" gradientUnits="userSpaceOnUse" gradientTransform="translate(175.5 71.9995) rotate(-180) scale(175.5 72)">
<stop stop-color="#7DB342"/>
<stop offset="1" stop-color="#4F7429"/>
</radialGradient>
<clipPath id="clip0_4665_54933">
<path d="M351 0L351 144L-6.45796e-06 144L0 -1.49542e-05L351 0Z" fill="white"/>
</clipPath>
</defs>
</svg>
