<svg width="38" height="38" viewBox="0 0 38 38" fill="none" xmlns="http://www.w3.org/2000/svg">
<rect width="37.9971" height="38" rx="18.9986" fill="#24282C"/>
<path d="M22.1581 16.2919L22.2333 16.2167C22.358 16.092 22.358 15.89 22.2333 15.7653C22.1087 15.6407 21.9066 15.6407 21.782 15.7653L21.7068 15.8406L21.0298 15.1636C20.9051 15.039 20.703 15.039 20.5784 15.1636C20.4538 15.2883 20.4538 15.4903 20.5784 15.6149L21.2554 16.2919L19.9014 17.6459L19.2244 16.9689C19.0997 16.8443 18.8976 16.8443 18.773 16.9689C18.6484 17.0936 18.6484 17.2956 18.773 17.4203L19.45 18.0973L18.096 19.4513L17.419 18.7743C17.2943 18.6497 17.0923 18.6497 16.9676 18.7743C16.843 18.8989 16.843 19.101 16.9676 19.2256L17.6447 19.9026L16.2907 21.2566L15.6137 20.5797C15.489 20.4551 15.287 20.4551 15.1623 20.5797C15.0377 20.7043 15.0377 20.9064 15.1623 21.031L15.8393 21.708L15.7641 21.7832C15.6394 21.9079 15.6394 22.11 15.7641 22.2346C15.8264 22.2969 15.9081 22.328 15.9898 22.328C16.0714 22.328 16.1531 22.2969 16.2155 22.2346L16.2907 22.1594L16.9677 22.8363C17.03 22.8986 17.1117 22.9298 17.1934 22.9298C17.2751 22.9298 17.3568 22.8986 17.4191 22.8363C17.5437 22.7117 17.5437 22.5096 17.4191 22.385L16.7421 21.708L18.0961 20.354L18.7731 21.031C18.8355 21.0933 18.9172 21.1245 18.9988 21.1245C19.0805 21.1245 19.1622 21.0933 19.2245 21.031C19.3492 20.9063 19.3492 20.7043 19.2245 20.5797L18.5475 19.9026L19.9015 18.5486L20.5785 19.2257C20.6409 19.288 20.7226 19.3191 20.8042 19.3191C20.8859 19.3191 20.9676 19.288 21.0299 19.2257C21.1546 19.101 21.1546 18.8989 21.0299 18.7743L20.3529 18.0973L21.7069 16.7433L22.3839 17.4203C22.4462 17.4826 22.5279 17.5137 22.6096 17.5137C22.6913 17.5137 22.773 17.4826 22.8353 17.4203C22.9599 17.2956 22.9599 17.0935 22.8353 16.9689L22.1581 16.2919Z" fill="white"/>
<path d="M12.6619 19.2563C12.8382 19.2563 12.9811 19.1135 12.9811 18.9372C12.9811 18.7609 12.8382 18.618 12.6619 18.618C12.4857 18.618 12.3428 18.7609 12.3428 18.9372C12.3428 19.1135 12.4857 19.2563 12.6619 19.2563Z" fill="white"/>
<path d="M12.6619 21.0617C12.8382 21.0617 12.9811 20.9188 12.9811 20.7425C12.9811 20.5663 12.8382 20.4234 12.6619 20.4234C12.4857 20.4234 12.3428 20.5663 12.3428 20.7425C12.3428 20.9188 12.4857 21.0617 12.6619 21.0617Z" fill="white"/>
<path d="M28.4003 17.3688C28.5385 16.8776 28.6525 16.3802 28.7427 15.8787C28.7444 15.8709 28.7457 15.8631 28.7469 15.8554C29.1143 13.7959 29.0779 11.6678 28.6322 9.61881C28.6317 9.61617 28.6312 9.61391 28.6307 9.61166C28.6304 9.61009 28.6297 9.60864 28.6294 9.60711C28.6266 9.59511 28.6231 9.58328 28.6189 9.57162C28.6181 9.56945 28.6175 9.56728 28.6166 9.56515C28.6117 9.55226 28.6059 9.53966 28.5993 9.52736C28.5983 9.52566 28.5973 9.52404 28.5963 9.52238C28.5906 9.51217 28.5841 9.50221 28.5771 9.49255C28.5752 9.48996 28.5734 9.48736 28.5714 9.48485C28.5632 9.47417 28.5544 9.46374 28.5446 9.45396C28.5348 9.44421 28.5244 9.43545 28.5138 9.42723C28.5112 9.42523 28.5086 9.42336 28.5059 9.42145C28.4964 9.41451 28.4866 9.40817 28.4765 9.40243C28.4747 9.4014 28.4729 9.40026 28.4711 9.39923C28.4589 9.39264 28.4464 9.38689 28.4337 9.382C28.4313 9.38111 28.4289 9.38034 28.4265 9.37949C28.4152 9.37545 28.4037 9.37204 28.392 9.36928C28.3903 9.36889 28.3886 9.36817 28.3869 9.36779C27.2673 9.12374 26.1177 9 24.9698 9C22.8956 9 20.8736 9.39345 18.96 10.1694C16.9786 10.9729 15.2009 12.1533 13.6764 13.6778C11.75 15.6042 10.3419 17.9995 9.60405 20.6049C9.60162 20.6134 9.59937 20.6221 9.59698 20.6306C9.45864 21.1224 9.34464 21.6198 9.25439 22.1213C9.25268 22.129 9.25137 22.1368 9.25026 22.1446C8.88277 24.204 8.9192 26.3321 9.3649 28.3811C9.36545 28.3838 9.36592 28.386 9.36639 28.3883C9.36673 28.3899 9.36737 28.3913 9.36775 28.3929C9.37051 28.4049 9.37405 28.4167 9.37822 28.4283C9.37898 28.4305 9.37966 28.4327 9.38047 28.4348C9.38541 28.4477 9.3912 28.4603 9.39788 28.4726C9.39881 28.4743 9.39988 28.4759 9.40081 28.4776C9.4066 28.4878 9.41307 28.4977 9.42009 28.5074C9.42196 28.51 9.42379 28.5126 9.42575 28.5151C9.434 28.5258 9.44273 28.5362 9.45256 28.546C9.46234 28.5557 9.47273 28.5645 9.48337 28.5727C9.48596 28.5747 9.4886 28.5766 9.49124 28.5785C9.50077 28.5854 9.51056 28.5918 9.52068 28.5975C9.52251 28.5986 9.52422 28.5997 9.52605 28.6007C9.53826 28.6073 9.55077 28.6131 9.56358 28.618C9.56583 28.6189 9.56817 28.6196 9.57047 28.6204C9.58196 28.6245 9.59358 28.6279 9.60537 28.6307C9.60703 28.6311 9.60856 28.6317 9.61022 28.6321C10.7297 28.8763 11.8793 29 13.0273 29C15.1017 29 17.1237 28.6066 19.0372 27.8306C21.0186 27.0271 22.7962 25.8467 24.3207 24.3222C26.2471 22.3958 27.6552 20.0005 28.3931 17.3951C28.3955 17.3865 28.3978 17.3778 28.4003 17.3688ZM27.6705 9.87668L27.4839 10.0633C27.3592 10.188 27.3592 10.39 27.4839 10.5147C27.5462 10.577 27.6279 10.6081 27.7096 10.6081C27.7912 10.6081 27.8729 10.577 27.9353 10.5147L28.1217 10.3282C28.4106 11.9443 28.4384 13.5684 28.22 15.1473L22.8558 9.78306C23.5506 9.68779 24.2563 9.6383 24.9698 9.6383C25.8746 9.6383 26.7805 9.71834 27.6705 9.87668ZM15.9175 28.0904L9.90511 22.078C9.95268 21.8294 10.0064 21.5821 10.0662 21.3365L16.6601 27.9303C16.4143 27.9897 16.1668 28.0431 15.9175 28.0904ZM13.0273 28.3617C12.1225 28.3617 11.2166 28.2817 10.3266 28.1233L10.5132 27.9367C10.6379 27.812 10.6379 27.61 10.5132 27.4853C10.3886 27.3607 10.1865 27.3607 10.0619 27.4853L9.87541 27.6718C9.58656 26.0557 9.55873 24.4316 9.7772 22.8527L15.1415 28.2169C14.4466 28.3122 13.7408 28.3617 13.0273 28.3617ZM23.8694 23.8708C22.0286 25.7116 19.802 27.0257 17.3722 27.7397L10.2577 20.6251C10.9704 18.212 12.2809 15.976 14.1277 14.1292C15.9685 12.2884 18.1952 10.9743 20.6249 10.2604L25.5737 15.2091C25.636 15.2714 25.7177 15.3026 25.7994 15.3026C25.8811 15.3026 25.9628 15.2714 26.0251 15.2091C26.1497 15.0845 26.1497 14.8824 26.0251 14.7578L21.3371 10.0697C21.5828 10.0103 21.8304 9.95694 22.0796 9.90966L28.092 15.9221C28.0445 16.1707 27.9907 16.418 27.9309 16.6636L26.9277 15.6605C26.8032 15.5359 26.6011 15.5358 26.4764 15.6605C26.3518 15.7851 26.3518 15.9872 26.4765 16.1118L27.7395 17.3749C27.0267 19.788 25.7163 22.0239 23.8694 23.8708Z" fill="white"/>
<path d="M14.8611 22.6859L14.2668 23.2802C14.1422 23.4049 14.1422 23.607 14.2668 23.7316C14.3292 23.7939 14.4109 23.8251 14.4925 23.8251C14.5742 23.8251 14.6559 23.7939 14.7182 23.7316L15.3125 23.1373C15.4372 23.0126 15.4372 22.8106 15.3125 22.6859C15.1878 22.5613 14.9858 22.5613 14.8611 22.6859Z" fill="white"/>
<path d="M11.5589 25.9884L10.9646 26.5826C10.8399 26.7073 10.8399 26.9094 10.9646 27.034C11.0269 27.0963 11.1086 27.1274 11.1903 27.1274C11.2719 27.1274 11.3536 27.0963 11.416 27.034L12.0103 26.4397C12.1349 26.315 12.1349 26.113 12.0103 25.9883C11.8856 25.8638 11.6836 25.8638 11.5589 25.9884Z" fill="white"/>
<path d="M23.2786 14.2684L22.6843 14.8627C22.5597 14.9874 22.5597 15.1894 22.6843 15.3141C22.7466 15.3763 22.8283 15.4075 22.91 15.4075C22.9917 15.4075 23.0734 15.3763 23.1357 15.3141L23.73 14.7198C23.8546 14.5951 23.8546 14.3931 23.73 14.2684C23.6053 14.1438 23.4032 14.1438 23.2786 14.2684Z" fill="white"/>
<path d="M26.2127 12.1051C26.2944 12.1051 26.3761 12.074 26.4384 12.0117L27.0327 11.4174C27.1573 11.2927 27.1573 11.0906 27.0327 10.966C26.908 10.8414 26.706 10.8414 26.5813 10.966L25.987 11.5603C25.8624 11.685 25.8624 11.887 25.987 12.0117C26.0493 12.0739 26.131 12.1051 26.2127 12.1051Z" fill="white"/>
</svg>
