<svg width="18" height="14" viewBox="0 0 18 14" fill="none" xmlns="http://www.w3.org/2000/svg">
<g clip-path="url(#clip0_2519_6905)">
<path d="M15.9933 4.89703C17.1016 4.89703 18.0002 3.80079 18.0002 2.44851C18.0002 1.09624 17.1016 0 15.9933 0C14.8849 0 13.9863 1.09624 13.9863 2.44851C13.9863 3.80079 14.8849 4.89703 15.9933 4.89703Z" fill="#888A8E"/>
<path d="M13.8107 1.99207C13.664 1.14059 13.0455 0.437616 12.2257 0.261378C12.1883 0.253458 12.1499 0.246527 12.1125 0.240586C12.0128 0.224745 11.9102 0.215834 11.8066 0.214844C11.8018 0.214844 11.798 0.214844 11.7932 0.214844H4.05125C3.88248 0.214844 3.71852 0.234646 3.5603 0.271279C2.76156 0.458408 2.1613 1.14257 2.01076 1.97425L1.8583 2.81583L0 13.0881C0 13.3386 0.172597 13.5544 0.411357 13.602L2.11336 13.9406C2.27253 13.9723 2.42499 13.8564 2.44225 13.6901L3.02237 8.29504V13.6119C3.02237 13.8257 3.19018 13.999 3.39729 13.999H12.3091C12.5162 13.999 12.684 13.8257 12.684 13.6119V8.41682L13.2584 13.7168C13.2766 13.8832 13.429 13.999 13.5901 13.9673L15.3056 13.6287C15.5462 13.5812 15.7198 13.3653 15.7198 13.1148L13.9574 2.85742L13.8088 1.99207H13.8107Z" fill="#888A8E"/>
</g>
<defs>
<clipPath id="clip0_2519_6905">
<rect width="18" height="14" fill="white"/>
</clipPath>
</defs>
</svg>
