<?xml version="1.0" standalone="no"?>
<!DOCTYPE svg PUBLIC "-//W3C//DTD SVG 20010904//EN"
 "http://www.w3.org/TR/2001/REC-SVG-20010904/DTD/svg10.dtd">
<svg version="1.0" xmlns="http://www.w3.org/2000/svg"
 width="608.000000pt" height="608.000000pt" viewBox="0 0 608.000000 608.000000"
 preserveAspectRatio="xMidYMid meet">
<metadata>
Created by potrace 1.14, written by Peter Selinger 2001-2017
</metadata>
<g transform="translate(0.000000,608.000000) scale(0.100000,-0.100000)"
fill="#000000" stroke="none">
<path d="M4707 6073 c-1 0 -36 -4 -77 -7 -74 -5 -122 -10 -210 -21 -43 -6 -59
-8 -145 -20 -38 -5 -121 -19 -175 -30 -22 -4 -51 -10 -110 -20 -47 -9 -339
-79 -420 -101 -128 -35 -262 -74 -280 -81 -8 -3 -19 -7 -25 -8 -24 -6 -212
-67 -235 -77 -14 -5 -56 -21 -95 -35 -38 -13 -77 -27 -85 -30 -8 -4 -17 -7
-20 -7 -3 -1 -9 -4 -15 -7 -16 -10 -89 -33 -97 -31 -5 1 -8 -2 -8 -8 0 -5 -5
-10 -12 -10 -21 0 -481 -201 -553 -242 -60 -34 -131 -68 -141 -68 -7 0 -14 -4
-16 -9 -1 -5 -28 -21 -58 -36 -128 -64 -480 -279 -488 -297 -2 -5 -8 -8 -13
-8 -12 0 -299 -206 -319 -230 -3 -3 -29 -24 -59 -48 -126 -99 -349 -316 -456
-444 -284 -340 -452 -693 -502 -1053 -10 -67 -10 -287 -1 -351 39 -264 220
-500 488 -634 95 -47 206 -92 225 -91 2 0 23 -6 45 -14 22 -8 40 -12 40 -8 0
3 7 -1 17 -8 9 -8 19 -13 22 -11 6 3 27 0 91 -13 94 -19 291 -37 415 -37 70 0
238 10 267 16 12 3 43 8 68 11 25 3 56 7 70 10 14 3 36 7 50 10 14 3 35 7 48
10 12 3 32 7 43 10 88 19 295 86 415 133 253 101 587 285 844 467 58 41 126
88 153 106 26 18 47 36 47 41 0 4 7 8 15 8 7 0 18 6 22 13 4 7 19 20 33 29 47
32 64 48 57 54 -4 4 -12 2 -19 -3 -7 -5 -85 -38 -173 -73 -88 -34 -169 -66
-180 -71 -34 -14 -129 -51 -140 -54 -5 -1 -19 -5 -30 -9 -11 -5 -31 -12 -45
-16 -14 -4 -34 -11 -45 -16 -11 -4 -24 -8 -30 -9 -5 -2 -37 -12 -70 -24 -49
-17 -262 -78 -337 -97 -26 -6 -101 -22 -136 -29 -13 -2 -31 -6 -40 -9 -9 -3
-39 -8 -67 -11 -27 -3 -63 -8 -80 -11 -71 -13 -290 -19 -350 -10 -64 10 -101
17 -135 27 -48 14 -134 52 -138 62 -2 4 -9 7 -17 7 -23 0 -125 113 -153 169
-15 31 -27 58 -28 61 0 3 -4 21 -8 39 -39 165 18 386 149 571 110 156 320 382
484 520 29 25 63 53 75 64 11 10 55 43 96 74 41 31 77 59 80 63 3 3 50 37 105
75 407 281 835 516 1315 719 36 15 80 34 99 42 18 8 39 16 45 17 6 1 16 5 22
8 9 6 167 66 189 72 6 2 17 6 25 9 8 3 53 19 100 35 l85 31 -90 -4 c-98 -5
-188 -12 -275 -21 -30 -4 -66 -8 -80 -9 -36 -4 -121 -16 -150 -21 -14 -2 -41
-7 -60 -10 -19 -3 -67 -12 -107 -20 -39 -7 -88 -17 -109 -20 -21 -3 -48 -10
-61 -15 -13 -5 -23 -5 -23 0 0 7 40 27 290 144 99 47 356 158 374 162 6 1 29
10 51 20 22 9 45 18 50 20 6 1 24 7 40 14 33 14 221 80 245 86 76 21 262 84
250 86 -8 1 -24 3 -35 4 -110 16 -531 23 -654 11 -31 -3 -90 -9 -131 -12 -41
-3 -87 -7 -102 -9 -16 -1 -28 -1 -28 1 0 4 431 214 450 219 8 3 50 21 158 68
56 25 102 43 102 40 0 -3 8 1 18 10 10 9 27 18 38 20 10 2 30 9 44 14 14 6 48
20 75 30 28 11 59 23 70 28 11 4 25 9 31 10 6 2 27 10 47 20 19 9 41 18 49 19
7 2 27 8 43 15 17 7 54 20 82 29 29 9 53 20 53 25 0 6 -157 6 -163 0z"/>
<path d="M4507 4174 c-1 -1 -33 -5 -72 -9 -181 -17 -346 -50 -510 -101 -49
-15 -92 -29 -95 -29 -3 -1 -14 -5 -25 -9 -11 -4 -45 -17 -75 -28 -30 -11 -70
-27 -87 -34 -18 -8 -50 -21 -70 -30 -130 -55 -374 -183 -503 -264 -8 -5 -50
-31 -92 -57 -43 -26 -78 -51 -78 -55 0 -5 -5 -8 -10 -8 -11 0 -62 -34 -87 -57
-7 -6 -29 -21 -50 -34 -21 -13 -40 -26 -43 -29 -3 -4 -32 -26 -65 -50 -88 -64
-168 -130 -158 -130 5 0 29 10 53 21 24 12 50 22 57 23 7 1 19 8 25 14 7 7 22
12 35 12 13 0 23 3 23 8 0 4 19 13 42 20 23 7 61 22 85 33 23 10 47 19 53 19
5 0 29 9 53 19 38 18 320 117 357 126 39 10 150 44 158 49 5 3 24 8 43 11 19
3 52 11 74 16 62 17 125 31 195 44 14 3 36 7 49 10 14 2 45 7 70 10 25 3 75 8
111 13 109 12 312 2 366 -18 13 -5 24 -8 24 -5 0 9 126 -47 171 -76 44 -28 65
-48 123 -120 21 -25 54 -105 65 -154 12 -60 5 -210 -13 -280 -30 -109 -127
-284 -210 -377 -9 -10 -16 -21 -16 -24 0 -3 -12 -18 -27 -34 -16 -16 -42 -46
-60 -67 -18 -21 -78 -83 -134 -138 -132 -129 -149 -145 -154 -145 -3 0 -13 -8
-23 -17 -10 -10 -40 -36 -66 -58 -27 -22 -54 -45 -60 -50 -15 -14 -221 -165
-281 -206 -27 -19 -54 -37 -60 -42 -46 -34 -294 -187 -304 -187 -5 0 -11 -3
-13 -7 -3 -7 -17 -16 -103 -62 -16 -9 -31 -19 -33 -23 -2 -5 -9 -8 -16 -8 -6
0 -28 -11 -49 -25 -20 -14 -37 -24 -37 -21 0 3 -32 -13 -70 -35 -85 -48 -462
-229 -477 -229 -3 0 -32 -13 -66 -28 -34 -16 -111 -48 -172 -72 -60 -23 -123
-48 -140 -55 -16 -7 -83 -30 -147 -51 -65 -22 -118 -41 -118 -44 0 -3 27 -6
60 -5 33 0 60 2 60 5 0 3 26 5 58 6 31 0 89 4 127 7 85 9 107 12 245 31 45 7
110 17 135 22 11 2 31 6 45 9 53 10 72 14 88 19 9 3 31 8 47 11 17 2 40 7 53
9 12 3 22 3 22 1 0 -6 -411 -205 -423 -205 -2 0 -31 -12 -63 -27 -33 -15 -61
-27 -64 -27 -6 -2 -116 -45 -155 -62 -33 -14 -304 -114 -320 -118 -49 -12
-285 -91 -285 -96 0 -3 12 -6 28 -6 15 0 77 -4 137 -8 118 -8 174 -8 186 0 4
2 10 1 12 -4 6 -8 60 -7 272 3 144 7 193 10 275 19 54 5 53 5 -101 -72 -161
-79 -257 -125 -344 -162 -27 -12 -63 -28 -80 -35 -49 -23 -346 -145 -352 -145
-3 0 -19 -6 -36 -14 -51 -22 -125 -49 -133 -46 -4 1 -10 -2 -13 -7 -3 -4 -38
-19 -78 -31 -40 -13 -75 -27 -78 -31 -2 -5 32 -7 78 -6 45 2 82 4 82 4 0 1 29
3 65 5 101 6 258 24 395 47 33 6 71 12 85 14 22 3 150 27 205 39 110 24 170
37 222 51 35 9 71 18 80 20 10 2 33 8 51 14 18 5 33 10 35 10 1 0 9 2 17 5 8
3 58 16 110 30 172 46 629 202 768 262 17 8 47 20 65 28 17 8 93 40 167 72
269 116 619 300 863 455 60 38 112 69 117 69 5 0 10 3 12 8 2 4 32 27 68 51
299 202 557 431 801 711 121 139 292 411 355 565 14 33 29 69 34 80 13 29 51
146 56 175 3 14 9 39 14 55 5 17 12 48 15 70 3 23 8 52 11 65 15 74 20 243 10
335 -40 354 -286 627 -681 757 -94 31 -229 64 -300 73 -27 4 -61 9 -75 11 -83
13 -403 27 -413 18z"/>
</g>
</svg>
